<?xml version="1.0" encoding="utf-8"?>
<!-- Generator: Adobe Illustrator 21.0.2, SVG Export Plug-In . SVG Version: 6.00 Build 0)  -->
<svg version="1.0" id="Layer_1" xmlns="http://www.w3.org/2000/svg" xmlns:xlink="http://www.w3.org/1999/xlink" x="0px" y="0px"
	 viewBox="0 0 385.6 1080" style="enable-background:new 0 0 385.6 1080;" xml:space="preserve">
<style type="text/css">
	.st0{fill:#7299A8;}
	.st1{fill:#C0E2E3;}
	.st2{fill:#F7FAF1;}
	.st3{fill:none;}
	.st4{fill:#B6A82D;}
	.st5{fill:#EF5A72;}
	.st6{fill:#64374C;}
</style>
<path class="st0" d="M154.3,1065.8h5.8c5.1,0,9.3-4.2,9.3-9.3s-4.2-9.3-9.3-9.3H140c-4.6,0-8.3-3.7-8.3-8.3c0-4.6,3.7-8.3,8.3-8.3
	h9.1c6.5,0,11.8-5.3,11.8-11.8s-5.3-11.8-11.8-11.8h-20.9c-6.9,0-12.6-5.6-12.6-12.6s5.6-12.6,12.6-12.6h37.7c3.6,0,6.5-2.9,6.5-6.5
	c0-3.6-2.9-6.5-6.5-6.5h-17.1c-6.9,0-12.6-5.6-12.6-12.6s5.6-12.6,12.6-12.6h22.9c4.9,0,8.8-3.9,8.8-8.8v0c0-4.9-3.9-8.8-8.8-8.8
	h-29.4c-6.9,0-12.6-5.6-12.6-12.6s5.6-12.6,12.6-12.6h14.8c6.5,0,11.8-5.3,11.8-11.8v0c0-6.5-5.3-11.8-11.8-11.8h-24.4
	c-7.5,0-13.6-6.1-13.6-13.6s6.1-13.6,13.6-13.6h20.1c4.2,0,7.5-3.4,7.5-7.5c0-4.2-3.4-7.5-7.5-7.5h-6.5c-3.1,0-5.5-2.5-5.5-5.5
	s2.5-5.5,5.5-5.5h13.8c6,0,10.8-4.8,10.8-10.8v0c0-6-4.8-10.8-10.8-10.8h-20.6c-7.1,0-12.8-5.7-12.8-12.8v0
	c0-7.1,5.7-12.8,12.8-12.8h16.1c6.8,0,12.3-5.5,12.3-12.3s-5.5-12.3-12.3-12.3h-26.9c-3.6,0-6.5-2.9-6.5-6.5c0-3.6,2.9-6.5,6.5-6.5
	h35.5c6.8,0,12.3-5.5,12.3-12.3s-5.5-12.3-12.3-12.3H138c-4,0-7.3-3.3-7.3-7.3s3.3-7.3,7.3-7.3h22.4c5,0,9.1-4.1,9.1-9.1
	s-4.1-9.1-9.1-9.1h-5.5c-6.1,0-11.1-5-11.1-11.1v0c0-6.1,5-11.1,11.1-11.1h9.1c6.4,0,11.6-5.2,11.6-11.6v0c0-6.4-5.2-11.6-11.6-11.6
	h-21.6c-6.4,0-11.6-5.2-11.6-11.6v0c0-6.4,5.2-11.6,11.6-11.6h7.8c7.1,0,12.8-5.7,12.8-12.8v0c0-7.1-5.7-12.8-12.8-12.8h-24.4
	c-3.6,0-6.5-2.9-6.5-6.5c0-3.6,2.9-6.5,6.5-6.5h40.3c5.8,0,10.6-4.7,10.6-10.6c0-5.8-4.7-10.6-10.6-10.6h-11.6
	c-1.6,0-3.2-0.3-4.7-0.8c-0.8-0.3-1.6-0.7-2.4-1.1c-0.4-0.2-0.7-0.5-1.1-0.7c-0.5-0.4-1-0.8-1.5-1.3c-0.3-0.3-0.6-0.6-0.9-1
	c-1.8-2.2-2.9-4.9-3.1-7.9c0-0.2,0-0.5,0-0.7v0c0-0.9,0.1-1.9,0.3-2.7c0.3-1.5,0.9-3,1.7-4.3c0.6-0.9,1.2-1.8,2-2.6
	c2.5-2.5,5.9-4,9.6-4h5.8c5.1,0,9.3-4.2,9.3-9.3c0-5.1-4.2-9.3-9.3-9.3H140c-4.6,0-8.3-3.7-8.3-8.3s3.7-8.3,8.3-8.3h9.1
	c6.5,0,11.8-5.3,11.8-11.8v0c0-6.5-5.3-11.8-11.8-11.8h-20.9c-6.9,0-12.6-5.6-12.6-12.6v0c0-6.9,5.6-12.6,12.6-12.6h37.7
	c3.6,0,6.5-2.9,6.5-6.5c0-3.6-2.9-6.5-6.5-6.5h-17.1c-6.9,0-12.6-5.6-12.6-12.6v0c0-6.9,5.6-12.6,12.6-12.6h22.9
	c4.9,0,8.8-3.9,8.8-8.8s-3.9-8.8-8.8-8.8h-29.4c-6.9,0-12.6-5.6-12.6-12.6v0c0-6.9,5.6-12.6,12.6-12.6h14.8
	c6.5,0,11.8-5.3,11.8-11.8s-5.3-11.8-11.8-11.8h-24.4c-7.5,0-13.6-6.1-13.6-13.6v0c0-7.5,6.1-13.6,13.6-13.6h20.1
	c4.2,0,7.5-3.4,7.5-7.5c0-4.2-3.4-7.5-7.5-7.5h-6.5c-3.1,0-5.5-2.5-5.5-5.5c0-3.1,2.5-5.5,5.5-5.5h13.8c6,0,10.8-4.8,10.8-10.8
	s-4.8-10.8-10.8-10.8h-20.6c-7.1,0-12.8-5.7-12.8-12.8s5.7-12.8,12.8-12.8h16.1c6.8,0,12.3-5.5,12.3-12.3v0
	c0-6.8-5.5-12.3-12.3-12.3h-26.9c-3.6,0-6.5-2.9-6.5-6.5c0-3.6,2.9-6.5,6.5-6.5h35.5c6.8,0,12.3-5.5,12.3-12.3v0
	c0-6.8-5.5-12.3-12.3-12.3H138c-4,0-7.3-3.3-7.3-7.3c0-4,3.3-7.3,7.3-7.3h22.4c5,0,9.1-4.1,9.1-9.1v0c0-5-4.1-9.1-9.1-9.1h-5.5
	c-6.1,0-11.1-5-11.1-11.1c0-6.1,5-11.1,11.1-11.1h9.1c6.4,0,11.6-5.2,11.6-11.6c0-6.4-5.2-11.6-11.6-11.6h-21.6
	c-6.4,0-11.6-5.2-11.6-11.6c0-6.4,5.2-11.6,11.6-11.6h7.8c7.1,0,12.8-5.7,12.8-12.8c0-7.1-5.7-12.8-12.8-12.8h-24.4
	c-3.6,0-6.5-2.9-6.5-6.5c0-3.6,2.9-6.5,6.5-6.5h40.3c5.8,0,10.6-4.7,10.6-10.6v0c0-5.8-4.7-10.6-10.6-10.6h-11.6
	C147,13.2,141,7.3,140.8,0H0.8v1080h140c0-0.2,0-0.4,0-0.6C140.7,1071.9,146.8,1065.8,154.3,1065.8z"/>
<g>
	<path class="st0" d="M384.8,0h-153c-0.2,7.3-6.2,13.2-13.6,13.2h-5.8c-5.1,0-9.3,4.2-9.3,9.3c0,5.1,4.2,9.3,9.3,9.3h20.1
		c4.6,0,8.3,3.7,8.3,8.3v0c0,4.6-3.7,8.3-8.3,8.3h-9.1c-6.5,0-11.8,5.3-11.8,11.8S217,72,223.5,72h20.9c6.9,0,12.6,5.6,12.6,12.6
		c0,6.9-5.6,12.6-12.6,12.6h-37.7c-3.6,0-6.5,2.9-6.5,6.5c0,3.6,2.9,6.5,6.5,6.5h17.1c6.9,0,12.6,5.6,12.6,12.6
		c0,6.9-5.6,12.6-12.6,12.6h-22.9c-4.9,0-8.8,3.9-8.8,8.8v0c0,4.9,3.9,8.8,8.8,8.8h29.4c6.9,0,12.6,5.6,12.6,12.6
		c0,6.9-5.6,12.6-12.6,12.6h-14.8c-6.5,0-11.8,5.3-11.8,11.8v0c0,6.5,5.3,11.8,11.8,11.8h24.4c7.5,0,13.6,6.1,13.6,13.6
		s-6.1,13.6-13.6,13.6h-20.1c-4.2,0-7.5,3.4-7.5,7.5c0,4.2,3.4,7.5,7.5,7.5h6.5c3.1,0,5.5,2.5,5.5,5.5c0,3.1-2.5,5.5-5.5,5.5h-13.8
		c-6,0-10.8,4.8-10.8,10.8v0c0,6,4.8,10.8,10.8,10.8h20.6c7.1,0,12.8,5.7,12.8,12.8v0c0,7.1-5.7,12.8-12.8,12.8H217
		c-6.8,0-12.3,5.5-12.3,12.3s5.5,12.3,12.3,12.3h26.9c3.6,0,6.5,2.9,6.5,6.5c0,3.6-2.9,6.5-6.5,6.5h-35.5c-6.8,0-12.3,5.5-12.3,12.3
		s5.5,12.3,12.3,12.3h26.2c4,0,7.3,3.3,7.3,7.3s-3.3,7.3-7.3,7.3h-22.4c-5,0-9.1,4.1-9.1,9.1s4.1,9.1,9.1,9.1h5.5
		c6.1,0,11.1,5,11.1,11.1v0c0,6.1-5,11.1-11.1,11.1h-9.1c-6.4,0-11.6,5.2-11.6,11.6v0c0,6.4,5.2,11.6,11.6,11.6h21.6
		c6.4,0,11.6,5.2,11.6,11.6v0c0,6.4-5.2,11.6-11.6,11.6h-7.8c-7.1,0-12.8,5.7-12.8,12.8v0c0,7.1,5.7,12.8,12.8,12.8h24.4
		c3.6,0,6.5,2.9,6.5,6.5c0,3.6-2.9,6.5-6.5,6.5h-40.3c-5.8,0-10.6,4.7-10.6,10.6s4.7,10.6,10.6,10.6h11.6c3.8,0,7.1,1.5,9.6,4
		c0.8,0.8,1.4,1.6,2,2.6c0.8,1.3,1.4,2.8,1.7,4.3c0.2,0.9,0.3,1.8,0.3,2.7v0c0,0.2,0,0.5,0,0.7c-0.2,3-1.3,5.8-3.1,7.9
		c-0.3,0.3-0.6,0.7-0.9,1c-0.5,0.5-1,0.9-1.5,1.3c-0.3,0.3-0.7,0.5-1.1,0.7c-0.7,0.5-1.5,0.8-2.4,1.1c-1.5,0.5-3,0.8-4.7,0.8h-5.8
		c-5.1,0-9.3,4.2-9.3,9.3v0c0,5.1,4.2,9.3,9.3,9.3h20.1c4.6,0,8.3,3.7,8.3,8.3s-3.7,8.3-8.3,8.3h-9.1c-6.5,0-11.8,5.3-11.8,11.8v0
		c0,6.5,5.3,11.8,11.8,11.8h20.9c6.9,0,12.6,5.6,12.6,12.6v0c0,6.9-5.6,12.6-12.6,12.6h-37.7c-3.6,0-6.5,2.9-6.5,6.5
		c0,3.6,2.9,6.5,6.5,6.5h17.1c6.9,0,12.6,5.6,12.6,12.6v0c0,6.9-5.6,12.6-12.6,12.6h-22.9c-4.9,0-8.8,3.9-8.8,8.8
		c0,4.9,3.9,8.8,8.8,8.8h29.4c6.9,0,12.6,5.6,12.6,12.6v0c0,6.9-5.6,12.6-12.6,12.6h-14.8c-6.5,0-11.8,5.3-11.8,11.8
		s5.3,11.8,11.8,11.8h24.4c7.5,0,13.6,6.1,13.6,13.6v0c0,7.5-6.1,13.6-13.6,13.6h-20.1c-4.2,0-7.5,3.4-7.5,7.5
		c0,4.2,3.4,7.5,7.5,7.5h6.5c3.1,0,5.5,2.5,5.5,5.5s-2.5,5.5-5.5,5.5h-13.8c-6,0-10.8,4.8-10.8,10.8s4.8,10.8,10.8,10.8h20.6
		c7.1,0,12.8,5.7,12.8,12.8s-5.7,12.8-12.8,12.8H217c-6.8,0-12.3,5.5-12.3,12.3v0c0,6.8,5.5,12.3,12.3,12.3h26.9
		c3.6,0,6.5,2.9,6.5,6.5c0,3.6-2.9,6.5-6.5,6.5h-35.5c-6.8,0-12.3,5.5-12.3,12.3v0c0,6.8,5.5,12.3,12.3,12.3h26.2
		c4,0,7.3,3.3,7.3,7.3c0,4-3.3,7.3-7.3,7.3h-22.4c-5,0-9.1,4.1-9.1,9.1v0c0,5,4.1,9.1,9.1,9.1h5.5c6.1,0,11.1,5,11.1,11.1
		c0,6.1-5,11.1-11.1,11.1h-9.1c-6.4,0-11.6,5.2-11.6,11.6c0,6.4,5.2,11.6,11.6,11.6h21.6c6.4,0,11.6,5.2,11.6,11.6
		c0,6.4-5.2,11.6-11.6,11.6h-7.8c-7.1,0-12.8,5.7-12.8,12.8c0,7.1,5.7,12.8,12.8,12.8h24.4c3.6,0,6.5,2.9,6.5,6.5
		c0,3.6-2.9,6.5-6.5,6.5h-40.3c-5.8,0-10.6,4.7-10.6,10.6c0,5.8,4.7,10.6,10.6,10.6h11.6c7.5,0,13.6,6.1,13.6,13.6
		c0,0.2,0,0.4,0,0.6h153V0z"/>
	<path class="st1" d="M218.2,1065.8h-11.6c-5.8,0-10.6-4.7-10.6-10.6c0-5.8,4.7-10.6,10.6-10.6h40.3c3.6,0,6.5-2.9,6.5-6.5
		c0-3.6-2.9-6.5-6.5-6.5h-24.4c-7.1,0-12.8-5.7-12.8-12.8c0-7.1,5.7-12.8,12.8-12.8h7.8c6.4,0,11.6-5.2,11.6-11.6
		c0-6.4-5.2-11.6-11.6-11.6h-21.6c-6.4,0-11.6-5.2-11.6-11.6c0-6.4,5.2-11.6,11.6-11.6h9.1c6.1,0,11.1-5,11.1-11.1
		c0-6.1-5-11.1-11.1-11.1h-5.5c-5,0-9.1-4.1-9.1-9.1v0c0-5,4.1-9.1,9.1-9.1h22.4c4,0,7.3-3.3,7.3-7.3c0-4-3.3-7.3-7.3-7.3h-26.2
		c-6.8,0-12.3-5.5-12.3-12.3v0c0-6.8,5.5-12.3,12.3-12.3h35.5c3.6,0,6.5-2.9,6.5-6.5c0-3.6-2.9-6.5-6.5-6.5H217
		c-6.8,0-12.3-5.5-12.3-12.3v0c0-6.8,5.5-12.3,12.3-12.3h16.1c7.1,0,12.8-5.7,12.8-12.8s-5.7-12.8-12.8-12.8h-20.6
		c-6,0-10.8-4.8-10.8-10.8s4.8-10.8,10.8-10.8h13.8c3.1,0,5.5-2.5,5.5-5.5s-2.5-5.5-5.5-5.5h-6.5c-4.2,0-7.5-3.4-7.5-7.5
		c0-4.2,3.4-7.5,7.5-7.5h20.1c7.5,0,13.6-6.1,13.6-13.6v0c0-7.5-6.1-13.6-13.6-13.6h-24.4c-6.5,0-11.8-5.3-11.8-11.8
		s5.3-11.8,11.8-11.8h14.8c6.9,0,12.6-5.6,12.6-12.6v0c0-6.9-5.6-12.6-12.6-12.6h-29.4c-4.9,0-8.8-3.9-8.8-8.8
		c0-4.9,3.9-8.8,8.8-8.8h22.9c6.9,0,12.6-5.6,12.6-12.6v0c0-6.9-5.6-12.6-12.6-12.6h-17.1c-3.6,0-6.5-2.9-6.5-6.5
		c0-3.6,2.9-6.5,6.5-6.5h37.7c6.9,0,12.6-5.6,12.6-12.6v0c0-6.9-5.6-12.6-12.6-12.6h-20.9c-6.5,0-11.8-5.3-11.8-11.8v0
		c0-6.5,5.3-11.8,11.8-11.8h9.1c4.6,0,8.3-3.7,8.3-8.3s-3.7-8.3-8.3-8.3h-20.1c-5.1,0-9.3-4.2-9.3-9.3v0c0-5.1,4.2-9.3,9.3-9.3h5.8
		c1.6,0,3.2-0.3,4.7-0.8c0.8-0.3,1.6-0.7,2.4-1.1c0.4-0.2,0.7-0.5,1.1-0.7c0.5-0.4,1-0.8,1.5-1.3c0.3-0.3,0.6-0.6,0.9-1
		c1.8-2.2,2.9-4.9,3.1-7.9c0-0.2,0-0.5,0-0.7v0c0-0.9-0.1-1.9-0.3-2.7c-0.3-1.5-0.9-3-1.7-4.3c-0.6-0.9-1.2-1.8-2-2.6
		c-2.5-2.5-5.9-4-9.6-4h-11.6c-5.8,0-10.6-4.7-10.6-10.6s4.7-10.6,10.6-10.6h40.3c3.6,0,6.5-2.9,6.5-6.5c0-3.6-2.9-6.5-6.5-6.5
		h-24.4c-7.1,0-12.8-5.7-12.8-12.8v0c0-7.1,5.7-12.8,12.8-12.8h7.8c6.4,0,11.6-5.2,11.6-11.6v0c0-6.4-5.2-11.6-11.6-11.6h-21.6
		c-6.4,0-11.6-5.2-11.6-11.6v0c0-6.4,5.2-11.6,11.6-11.6h9.1c6.1,0,11.1-5,11.1-11.1v0c0-6.1-5-11.1-11.1-11.1h-5.5
		c-5,0-9.1-4.1-9.1-9.1s4.1-9.1,9.1-9.1h22.4c4,0,7.3-3.3,7.3-7.3s-3.3-7.3-7.3-7.3h-26.2c-6.8,0-12.3-5.5-12.3-12.3
		s5.5-12.3,12.3-12.3h35.5c3.6,0,6.5-2.9,6.5-6.5c0-3.6-2.9-6.5-6.5-6.5H217c-6.8,0-12.3-5.5-12.3-12.3s5.5-12.3,12.3-12.3h16.1
		c7.1,0,12.8-5.7,12.8-12.8v0c0-7.1-5.7-12.8-12.8-12.8h-20.6c-6,0-10.8-4.8-10.8-10.8v0c0-6,4.8-10.8,10.8-10.8h13.8
		c3.1,0,5.5-2.5,5.5-5.5c0-3.1-2.5-5.5-5.5-5.5h-6.5c-4.2,0-7.5-3.4-7.5-7.5c0-4.2,3.4-7.5,7.5-7.5h20.1c7.5,0,13.6-6.1,13.6-13.6
		s-6.1-13.6-13.6-13.6h-24.4c-6.5,0-11.8-5.3-11.8-11.8v0c0-6.5,5.3-11.8,11.8-11.8h14.8c6.9,0,12.6-5.6,12.6-12.6
		c0-6.9-5.6-12.6-12.6-12.6h-29.4c-4.9,0-8.8-3.9-8.8-8.8v0c0-4.9,3.9-8.8,8.8-8.8h22.9c6.9,0,12.6-5.6,12.6-12.6
		c0-6.9-5.6-12.6-12.6-12.6h-17.1c-3.6,0-6.5-2.9-6.5-6.5c0-3.6,2.9-6.5,6.5-6.5h37.7c6.9,0,12.6-5.6,12.6-12.6
		c0-6.9-5.6-12.6-12.6-12.6h-20.9c-6.5,0-11.8-5.3-11.8-11.8s5.3-11.8,11.8-11.8h9.1c4.6,0,8.3-3.7,8.3-8.3v0c0-4.6-3.7-8.3-8.3-8.3
		h-20.1c-5.1,0-9.3-4.2-9.3-9.3c0-5.1,4.2-9.3,9.3-9.3h5.8c7.4,0,13.3-5.9,13.6-13.2h-91c0.2,7.3,6.2,13.2,13.6,13.2h11.6
		c5.8,0,10.6,4.7,10.6,10.6v0c0,5.8-4.7,10.6-10.6,10.6h-40.3c-3.6,0-6.5,2.9-6.5,6.5c0,3.6,2.9,6.5,6.5,6.5h24.4
		c7.1,0,12.8,5.7,12.8,12.8c0,7.1-5.7,12.8-12.8,12.8h-7.8c-6.4,0-11.6,5.2-11.6,11.6c0,6.4,5.2,11.6,11.6,11.6h21.6
		c6.4,0,11.6,5.2,11.6,11.6c0,6.4-5.2,11.6-11.6,11.6h-9.1c-6.1,0-11.1,5-11.1,11.1c0,6.1,5,11.1,11.1,11.1h5.5c5,0,9.1,4.1,9.1,9.1
		v0c0,5-4.1,9.1-9.1,9.1H138c-4,0-7.3,3.3-7.3,7.3c0,4,3.3,7.3,7.3,7.3h26.2c6.8,0,12.3,5.5,12.3,12.3v0c0,6.8-5.5,12.3-12.3,12.3
		h-35.5c-3.6,0-6.5,2.9-6.5,6.5c0,3.6,2.9,6.5,6.5,6.5h26.9c6.8,0,12.3,5.5,12.3,12.3v0c0,6.8-5.5,12.3-12.3,12.3h-16.1
		c-7.1,0-12.8,5.7-12.8,12.8s5.7,12.8,12.8,12.8h20.6c6,0,10.8,4.8,10.8,10.8s-4.8,10.8-10.8,10.8h-13.8c-3.1,0-5.5,2.5-5.5,5.5
		c0,3.1,2.5,5.5,5.5,5.5h6.5c4.2,0,7.5,3.4,7.5,7.5c0,4.2-3.4,7.5-7.5,7.5h-20.1c-7.5,0-13.6,6.1-13.6,13.6v0
		c0,7.5,6.1,13.6,13.6,13.6h24.4c6.5,0,11.8,5.3,11.8,11.8s-5.3,11.8-11.8,11.8h-14.8c-6.9,0-12.6,5.6-12.6,12.6v0
		c0,6.9,5.6,12.6,12.6,12.6h29.4c4.9,0,8.8,3.9,8.8,8.8s-3.9,8.8-8.8,8.8h-22.9c-6.9,0-12.6,5.6-12.6,12.6v0
		c0,6.9,5.6,12.6,12.6,12.6h17.1c3.6,0,6.5,2.9,6.5,6.5c0,3.6-2.9,6.5-6.5,6.5h-37.7c-6.9,0-12.6,5.6-12.6,12.6v0
		c0,6.9,5.6,12.6,12.6,12.6H149c6.5,0,11.8,5.3,11.8,11.8v0c0,6.5-5.3,11.8-11.8,11.8H140c-4.6,0-8.3,3.7-8.3,8.3s3.7,8.3,8.3,8.3
		h20.1c5.1,0,9.3,4.2,9.3,9.3c0,5.1-4.2,9.3-9.3,9.3h-5.8c-3.8,0-7.1,1.5-9.6,4c-0.8,0.8-1.4,1.6-2,2.6c-0.8,1.3-1.4,2.8-1.7,4.3
		c-0.2,0.9-0.3,1.8-0.3,2.7v0c0,0.2,0,0.5,0,0.7c0.2,3,1.3,5.8,3.1,7.9c0.3,0.3,0.6,0.7,0.9,1c0.5,0.5,1,0.9,1.5,1.3
		c0.3,0.3,0.7,0.5,1.1,0.7c0.7,0.5,1.5,0.8,2.4,1.1c1.5,0.5,3,0.8,4.7,0.8h11.6c5.8,0,10.6,4.7,10.6,10.6c0,5.8-4.7,10.6-10.6,10.6
		h-40.3c-3.6,0-6.5,2.9-6.5,6.5c0,3.6,2.9,6.5,6.5,6.5h24.4c7.1,0,12.8,5.7,12.8,12.8v0c0,7.1-5.7,12.8-12.8,12.8h-7.8
		c-6.4,0-11.6,5.2-11.6,11.6v0c0,6.4,5.2,11.6,11.6,11.6h21.6c6.4,0,11.6,5.2,11.6,11.6v0c0,6.4-5.2,11.6-11.6,11.6h-9.1
		c-6.1,0-11.1,5-11.1,11.1v0c0,6.1,5,11.1,11.1,11.1h5.5c5,0,9.1,4.1,9.1,9.1s-4.1,9.1-9.1,9.1H138c-4,0-7.3,3.3-7.3,7.3
		s3.3,7.3,7.3,7.3h26.2c6.8,0,12.3,5.5,12.3,12.3s-5.5,12.3-12.3,12.3h-35.5c-3.6,0-6.5,2.9-6.5,6.5c0,3.6,2.9,6.5,6.5,6.5h26.9
		c6.8,0,12.3,5.5,12.3,12.3s-5.5,12.3-12.3,12.3h-16.1c-7.1,0-12.8,5.7-12.8,12.8v0c0,7.1,5.7,12.8,12.8,12.8h20.6
		c6,0,10.8,4.8,10.8,10.8v0c0,6-4.8,10.8-10.8,10.8h-13.8c-3.1,0-5.5,2.5-5.5,5.5s2.5,5.5,5.5,5.5h6.5c4.2,0,7.5,3.4,7.5,7.5
		c0,4.2-3.4,7.5-7.5,7.5h-20.1c-7.5,0-13.6,6.1-13.6,13.6s6.1,13.6,13.6,13.6h24.4c6.5,0,11.8,5.3,11.8,11.8v0
		c0,6.5-5.3,11.8-11.8,11.8h-14.8c-6.9,0-12.6,5.6-12.6,12.6s5.6,12.6,12.6,12.6h29.4c4.9,0,8.8,3.9,8.8,8.8v0
		c0,4.9-3.9,8.8-8.8,8.8h-22.9c-6.9,0-12.6,5.6-12.6,12.6s5.6,12.6,12.6,12.6h17.1c3.6,0,6.5,2.9,6.5,6.5c0,3.6-2.9,6.5-6.5,6.5
		h-37.7c-6.9,0-12.6,5.6-12.6,12.6s5.6,12.6,12.6,12.6H149c6.5,0,11.8,5.3,11.8,11.8s-5.3,11.8-11.8,11.8H140
		c-4.6,0-8.3,3.7-8.3,8.3l0,0c0,4.6,3.7,8.3,8.3,8.3h20.1c5.1,0,9.3,4.2,9.3,9.3s-4.2,9.3-9.3,9.3h-5.8c-7.5,0-13.6,6.1-13.6,13.6
		c0,0.2,0,0.4,0,0.6h91c0-0.2,0-0.4,0-0.6C231.8,1071.9,225.7,1065.8,218.2,1065.8z"/>
</g>
<g>
	<path class="st0" d="M176.1,302.5H160c-6.8,0-12.3,5.5-12.3,12.3s5.5,12.3,12.3,12.3h24.7h2.2h24.7c6.8,0,12.3-5.5,12.3-12.3
		s-5.5-12.3-12.3-12.3h-16.1c-3.9,0-7.4-1.7-9.7-4.5C183.4,300.8,180,302.5,176.1,302.5z"/>
	<path class="st0" d="M176.1,842.4H160c-6.8,0-12.3,5.5-12.3,12.3v0c0,6.8,5.5,12.3,12.3,12.3h24.7h2.2h24.7
		c6.8,0,12.3-5.5,12.3-12.3v0c0-6.8-5.5-12.3-12.3-12.3h-16.1c-3.9,0-7.4-1.7-9.7-4.5C183.4,840.7,180,842.4,176.1,842.4z"/>
	<path class="st0" d="M162.7,229c-4.2,0-7.5,3.4-7.5,7.5c0,4.2,3.4,7.5,7.5,7.5h6.5c3.1,0,5.5,2.5,5.5,5.5c0,3.1-2.5,5.5-5.5,5.5
		h-13.8c-6,0-10.8,4.8-10.8,10.8v0c0,6,4.8,10.8,10.8,10.8h20.6c3.9,0,7.4,1.7,9.7,4.5c2.4-2.7,5.8-4.5,9.7-4.5h20.6
		c6,0,10.8-4.8,10.8-10.8v0c0-6-4.8-10.8-10.8-10.8h-13.8c-3.1,0-5.5-2.5-5.5-5.5c0-3.1,2.5-5.5,5.5-5.5h6.5c4.2,0,7.5-3.4,7.5-7.5
		c0-4.2-3.4-7.5-7.5-7.5h-20.1c-1,0-2-0.1-2.9-0.3c-0.9,0.2-1.9,0.3-2.9,0.3H162.7z"/>
	<path class="st0" d="M173.3,178.2h-14.8c-6.5,0-11.8,5.3-11.8,11.8v0c0,6.5,5.3,11.8,11.8,11.8h24.4c1,0,2,0.1,2.9,0.3
		c0.9-0.2,1.9-0.3,2.9-0.3h24.4c6.5,0,11.8-5.3,11.8-11.8v0c0-6.5-5.3-11.8-11.8-11.8h-14.8c-6.4,0-11.7-4.8-12.5-11
		C185,173.4,179.7,178.2,173.3,178.2z"/>
	<path class="st0" d="M149.7,637.1c-3.6,0-6.5,2.9-6.5,6.5c0,3.6,2.9,6.5,6.5,6.5h17.1c6.9,0,12.6,5.6,12.6,12.6v0
		c0,6.9-5.6,12.6-12.6,12.6h-22.9c-4.9,0-8.8,3.9-8.8,8.8c0,4.9,3.9,8.8,8.8,8.8h29.4c6.4,0,11.7,4.8,12.5,11
		c0.8-6.2,6.1-11,12.5-11h29.4c4.9,0,8.8-3.9,8.8-8.8c0-4.9-3.9-8.8-8.8-8.8h-22.9c-6.9,0-12.6-5.6-12.6-12.6v0
		c0-6.9,5.6-12.6,12.6-12.6h17.1c3.6,0,6.5-2.9,6.5-6.5c0-3.6-2.9-6.5-6.5-6.5h-34.5h-3.2H149.7z"/>
	<path class="st0" d="M162.7,769c-4.2,0-7.5,3.4-7.5,7.5c0,4.2,3.4,7.5,7.5,7.5h6.5c3.1,0,5.5,2.5,5.5,5.5s-2.5,5.5-5.5,5.5h-13.8
		c-6,0-10.8,4.8-10.8,10.8s4.8,10.8,10.8,10.8h20.6c3.9,0,7.4,1.7,9.7,4.5c2.4-2.7,5.8-4.5,9.7-4.5h20.6c6,0,10.8-4.8,10.8-10.8
		s-4.8-10.8-10.8-10.8h-13.8c-3.1,0-5.5-2.5-5.5-5.5s2.5-5.5,5.5-5.5h6.5c4.2,0,7.5-3.4,7.5-7.5c0-4.2-3.4-7.5-7.5-7.5h-20.1
		c-1,0-2-0.1-2.9-0.3c-0.9,0.2-1.9,0.3-2.9,0.3H162.7z"/>
	<path class="st0" d="M151.4,340.2c-6.8,0-12.3,5.5-12.3,12.3s5.5,12.3,12.3,12.3h26.2c4,0,7.3,3.3,7.3,7.3s-3.3,7.3-7.3,7.3h-22.4
		c-5,0-9.1,4.1-9.1,9.1s4.1,9.1,9.1,9.1h5.5c6.1,0,11.1,5,11.1,11.1v0c0,6.1-5,11.1-11.1,11.1h-9.1c-6.4,0-11.6,5.2-11.6,11.6v0
		c0,6.4,5.2,11.6,11.6,11.6h21.6c6.4,0,11.6,5.2,11.6,11.6v0c0,6.4-5.2,11.6-11.6,11.6h-7.8c-7.1,0-12.8,5.7-12.8,12.8v0
		c0,7.1,5.7,12.8,12.8,12.8h16.1h8.3h16.1c7.1,0,12.8-5.7,12.8-12.8v0c0-7.1-5.7-12.8-12.8-12.8h-7.8c-6.4,0-11.6-5.2-11.6-11.6v0
		c0-6.4,5.2-11.6,11.6-11.6h21.6c6.4,0,11.6-5.2,11.6-11.6v0c0-6.4-5.2-11.6-11.6-11.6h-9.1c-6.1,0-11.1-5-11.1-11.1v0
		c0-6.1,5-11.1,11.1-11.1h5.5c5,0,9.1-4.1,9.1-9.1s-4.1-9.1-9.1-9.1H194c-4,0-7.3-3.3-7.3-7.3s3.3-7.3,7.3-7.3h26.2
		c6.8,0,12.3-5.5,12.3-12.3s-5.5-12.3-12.3-12.3h-33.2h-2.2H151.4z"/>
	<path class="st0" d="M149.7,504.8c-5.8,0-10.6,4.7-10.6,10.6s4.7,10.6,10.6,10.6h11.6c3.8,0,7.1,1.5,9.6,4c0.8,0.8,1.4,1.6,2,2.6
		c0.8,1.3,1.4,2.8,1.7,4.3c0.2,0.9,0.3,1.8,0.3,2.7v0c0,0.2,0,0.5,0,0.7c-0.2,3-1.3,5.8-3.1,7.9c-0.3,0.3-0.6,0.7-0.9,1
		c-0.5,0.5-1,0.9-1.5,1.3c-0.3,0.3-0.7,0.5-1.1,0.7c-0.7,0.5-1.5,0.8-2.4,1.1c-1.5,0.5-3,0.8-4.7,0.8h-5.8c-5.1,0-9.3,4.2-9.3,9.3v0
		c0,5.1,4.2,9.3,9.3,9.3h20.1c4.6,0,8.3,3.7,8.3,8.3s-3.7,8.3-8.3,8.3h-9.1c-6.5,0-11.8,5.3-11.8,11.8v0c0,6.5,5.3,11.8,11.8,11.8
		h17.6h3.2H205c6.5,0,11.8-5.3,11.8-11.8v0c0-6.5-5.3-11.8-11.8-11.8H196c-4.6,0-8.3-3.7-8.3-8.3s3.7-8.3,8.3-8.3h20.1
		c5.1,0,9.3-4.2,9.3-9.3v0c0-5.1-4.2-9.3-9.3-9.3h-5.8c-1.6,0-3.2-0.3-4.7-0.8c-0.8-0.3-1.6-0.7-2.4-1.1c-0.4-0.2-0.7-0.5-1.1-0.7
		c-0.5-0.4-1-0.8-1.5-1.3c-0.3-0.3-0.6-0.6-0.9-1c-1.8-2.2-2.9-4.9-3.1-7.9c0-0.2,0-0.5,0-0.7v0c0-0.9,0.1-1.9,0.3-2.7
		c0.3-1.5,0.9-3,1.7-4.3c0.6-0.9,1.2-1.8,2-2.6c2.5-2.5,5.9-4,9.6-4h11.6c5.8,0,10.6-4.7,10.6-10.6s-4.7-10.6-10.6-10.6h-32h-8.3
		H149.7z"/>
	<path class="st0" d="M149.7,97.2c-3.6,0-6.5,2.9-6.5,6.5c0,3.6,2.9,6.5,6.5,6.5h17.1c6.9,0,12.6,5.6,12.6,12.6
		c0,6.9-5.6,12.6-12.6,12.6h-22.9c-4.9,0-8.8,3.9-8.8,8.8v0c0,4.9,3.9,8.8,8.8,8.8h29.4c6.4,0,11.7,4.8,12.5,11
		c0.8-6.2,6.1-11,12.5-11h29.4c4.9,0,8.8-3.9,8.8-8.8v0c0-4.9-3.9-8.8-8.8-8.8h-22.9c-6.9,0-12.6-5.6-12.6-12.6
		c0-6.9,5.6-12.6,12.6-12.6h17.1c3.6,0,6.5-2.9,6.5-6.5c0-3.6-2.9-6.5-6.5-6.5h-34.5h-3.2H149.7z"/>
	<path class="st0" d="M287.8,0c-0.2,7.3-6.2,13.2-13.6,13.2h-11.6c-5.8,0-10.6,4.7-10.6,10.6v0c0,5.8,4.7,10.6,10.6,10.6h40.3
		c3.6,0,6.5,2.9,6.5,6.5c0,3.6-2.9,6.5-6.5,6.5h-24.4c-7.1,0-12.8,5.7-12.8,12.8c0,7.1,5.7,12.8,12.8,12.8h7.8
		c6.4,0,11.6,5.2,11.6,11.6c0,6.4-5.2,11.6-11.6,11.6h-21.6c-6.4,0-11.6,5.2-11.6,11.6c0,6.4,5.2,11.6,11.6,11.6h9.1
		c6.1,0,11.1,5,11.1,11.1c0,6.1-5,11.1-11.1,11.1h-5.5c-5,0-9.1,4.1-9.1,9.1v0c0,5,4.1,9.1,9.1,9.1h22.4c4,0,7.3,3.3,7.3,7.3
		c0,4-3.3,7.3-7.3,7.3h-26.2c-6.8,0-12.3,5.5-12.3,12.3v0c0,6.8,5.5,12.3,12.3,12.3h35.5c3.6,0,6.5,2.9,6.5,6.5
		c0,3.6-2.9,6.5-6.5,6.5H273c-6.8,0-12.3,5.5-12.3,12.3v0c0,6.8,5.5,12.3,12.3,12.3h16.1c7.1,0,12.8,5.7,12.8,12.8
		s-5.7,12.8-12.8,12.8h-20.6c-6,0-10.8,4.8-10.8,10.8s4.8,10.8,10.8,10.8h13.8c3.1,0,5.5,2.5,5.5,5.5c0,3.1-2.5,5.5-5.5,5.5h-6.5
		c-4.2,0-7.5,3.4-7.5,7.5c0,4.2,3.4,7.5,7.5,7.5h20.1c7.5,0,13.6,6.1,13.6,13.6v0c0,7.5-6.1,13.6-13.6,13.6h-24.4
		c-6.5,0-11.8,5.3-11.8,11.8s5.3,11.8,11.8,11.8h14.8c6.9,0,12.6,5.6,12.6,12.6v0c0,6.9-5.6,12.6-12.6,12.6h-29.4
		c-4.9,0-8.8,3.9-8.8,8.8s3.9,8.8,8.8,8.8h22.9c6.9,0,12.6,5.6,12.6,12.6v0c0,6.9-5.6,12.6-12.6,12.6h-17.1c-3.6,0-6.5,2.9-6.5,6.5
		c0,3.6,2.9,6.5,6.5,6.5h37.7c6.9,0,12.6,5.6,12.6,12.6v0c0,6.9-5.6,12.6-12.6,12.6h-20.9c-6.5,0-11.8,5.3-11.8,11.8v0
		c0,6.5,5.3,11.8,11.8,11.8h9.1c4.6,0,8.3,3.7,8.3,8.3s-3.7,8.3-8.3,8.3h-20.1c-5.1,0-9.3,4.2-9.3,9.3c0,5.1,4.2,9.3,9.3,9.3h5.8
		c3.8,0,7.1,1.5,9.6,4c0.8,0.8,1.4,1.6,2,2.6c0.8,1.3,1.4,2.8,1.7,4.3c0.2,0.9,0.3,1.8,0.3,2.7v0c0,0.2,0,0.5,0,0.7
		c-0.2,3-1.3,5.8-3.1,7.9c-0.3,0.3-0.6,0.7-0.9,1c-0.5,0.5-1,0.9-1.5,1.3c-0.3,0.3-0.7,0.5-1.1,0.7c-0.7,0.5-1.5,0.8-2.4,1.1
		c-1.5,0.5-3,0.8-4.7,0.8h-11.6c-5.8,0-10.6,4.7-10.6,10.6c0,5.8,4.7,10.6,10.6,10.6h40.3c3.6,0,6.5,2.9,6.5,6.5
		c0,3.6-2.9,6.5-6.5,6.5h-24.4c-7.1,0-12.8,5.7-12.8,12.8v0c0,7.1,5.7,12.8,12.8,12.8h7.8c6.4,0,11.6,5.2,11.6,11.6v0
		c0,6.4-5.2,11.6-11.6,11.6h-21.6c-6.4,0-11.6,5.2-11.6,11.6v0c0,6.4,5.2,11.6,11.6,11.6h9.1c6.1,0,11.1,5,11.1,11.1v0
		c0,6.1-5,11.1-11.1,11.1h-5.5c-5,0-9.1,4.1-9.1,9.1s4.1,9.1,9.1,9.1h22.4c4,0,7.3,3.3,7.3,7.3s-3.3,7.3-7.3,7.3h-26.2
		c-6.8,0-12.3,5.5-12.3,12.3s5.5,12.3,12.3,12.3h35.5c3.6,0,6.5,2.9,6.5,6.5c0,3.6-2.9,6.5-6.5,6.5H273c-6.8,0-12.3,5.5-12.3,12.3
		s5.5,12.3,12.3,12.3h16.1c7.1,0,12.8,5.7,12.8,12.8v0c0,7.1-5.7,12.8-12.8,12.8h-20.6c-6,0-10.8,4.8-10.8,10.8v0
		c0,6,4.8,10.8,10.8,10.8h13.8c3.1,0,5.5,2.5,5.5,5.5s-2.5,5.5-5.5,5.5h-6.5c-4.2,0-7.5,3.4-7.5,7.5c0,4.2,3.4,7.5,7.5,7.5h20.1
		c7.5,0,13.6,6.1,13.6,13.6s-6.1,13.6-13.6,13.6h-24.4c-6.5,0-11.8,5.3-11.8,11.8v0c0,6.5,5.3,11.8,11.8,11.8h14.8
		c6.9,0,12.6,5.6,12.6,12.6s-5.6,12.6-12.6,12.6h-29.4c-4.9,0-8.8,3.9-8.8,8.8v0c0,4.9,3.9,8.8,8.8,8.8h22.9
		c6.9,0,12.6,5.6,12.6,12.6s-5.6,12.6-12.6,12.6h-17.1c-3.6,0-6.5,2.9-6.5,6.5c0,3.6,2.9,6.5,6.5,6.5h37.7c6.9,0,12.6,5.6,12.6,12.6
		s-5.6,12.6-12.6,12.6h-20.9c-6.5,0-11.8,5.3-11.8,11.8s5.3,11.8,11.8,11.8h9.1c4.6,0,8.3,3.7,8.3,8.3c0,4.6-3.7,8.3-8.3,8.3h-20.1
		c-5.1,0-9.3,4.2-9.3,9.3s4.2,9.3,9.3,9.3h5.8c7.5,0,13.6,6.1,13.6,13.6c0,0.2,0,0.4,0,0.6h40V0H287.8z"/>
	<path class="st0" d="M210.3,1065.8h11.6c5.8,0,10.6-4.7,10.6-10.6c0-5.8-4.7-10.6-10.6-10.6h-32h-8.3h-32
		c-5.8,0-10.6,4.7-10.6,10.6c0,5.8,4.7,10.6,10.6,10.6h11.6c7.5,0,13.6,6.1,13.6,13.6c0,0.2,0,0.4,0,0.6h22c0-0.2,0-0.4,0-0.6
		C196.7,1071.9,202.8,1065.8,210.3,1065.8z"/>
	<path class="st0" d="M161.2,13.2h-5.8c-5.1,0-9.3,4.2-9.3,9.3c0,5.1,4.2,9.3,9.3,9.3h20.1c4.6,0,8.3,3.7,8.3,8.3v0
		c0,4.6-3.7,8.3-8.3,8.3h-9.1c-6.5,0-11.8,5.3-11.8,11.8S160,72,166.5,72h17.6h3.2H205c6.5,0,11.8-5.3,11.8-11.8
		s-5.3-11.8-11.8-11.8H196c-4.6,0-8.3-3.7-8.3-8.3v0c0-4.6,3.7-8.3,8.3-8.3h20.1c5.1,0,9.3-4.2,9.3-9.3c0-5.1-4.2-9.3-9.3-9.3h-5.8
		C203,13.2,197,7.3,196.8,0h-22C174.6,7.3,168.6,13.2,161.2,13.2z"/>
	<path class="st0" d="M173.3,718.1h-14.8c-6.5,0-11.8,5.3-11.8,11.8s5.3,11.8,11.8,11.8h24.4c1,0,2,0.1,2.9,0.3
		c0.9-0.2,1.9-0.3,2.9-0.3h24.4c6.5,0,11.8-5.3,11.8-11.8s-5.3-11.8-11.8-11.8h-14.8c-6.4,0-11.7-4.8-12.5-11
		C185,713.3,179.7,718.1,173.3,718.1z"/>
	<path class="st0" d="M151.4,880.2c-6.8,0-12.3,5.5-12.3,12.3v0c0,6.8,5.5,12.3,12.3,12.3h26.2c4,0,7.3,3.3,7.3,7.3
		c0,4-3.3,7.3-7.3,7.3h-22.4c-5,0-9.1,4.1-9.1,9.1v0c0,5,4.1,9.1,9.1,9.1h5.5c6.1,0,11.1,5,11.1,11.1c0,6.1-5,11.1-11.1,11.1h-9.1
		c-6.4,0-11.6,5.2-11.6,11.6c0,6.4,5.2,11.6,11.6,11.6h21.6c6.4,0,11.6,5.2,11.6,11.6c0,6.4-5.2,11.6-11.6,11.6h-7.8
		c-7.1,0-12.8,5.7-12.8,12.8c0,7.1,5.7,12.8,12.8,12.8h16.1h8.3h16.1c7.1,0,12.8-5.7,12.8-12.8c0-7.1-5.7-12.8-12.8-12.8h-7.8
		c-6.4,0-11.6-5.2-11.6-11.6c0-6.4,5.2-11.6,11.6-11.6h21.6c6.4,0,11.6-5.2,11.6-11.6c0-6.4-5.2-11.6-11.6-11.6h-9.1
		c-6.1,0-11.1-5-11.1-11.1c0-6.1,5-11.1,11.1-11.1h5.5c5,0,9.1-4.1,9.1-9.1v0c0-5-4.1-9.1-9.1-9.1H194c-4,0-7.3-3.3-7.3-7.3
		c0-4,3.3-7.3,7.3-7.3h26.2c6.8,0,12.3-5.5,12.3-12.3v0c0-6.8-5.5-12.3-12.3-12.3h-33.2h-2.2H151.4z"/>
	<path class="st1" d="M161.2,1065.8h-11.6c-5.8,0-10.6-4.7-10.6-10.6c0-5.8,4.7-10.6,10.6-10.6h32c-3.6,0-6.5-2.9-6.5-6.5
		c0-3.6,2.9-6.5,6.5-6.5h-16.1c-7.1,0-12.8-5.7-12.8-12.8c0-7.1,5.7-12.8,12.8-12.8h7.8c6.4,0,11.6-5.2,11.6-11.6
		c0-6.4-5.2-11.6-11.6-11.6h-21.6c-6.4,0-11.6-5.2-11.6-11.6c0-6.4,5.2-11.6,11.6-11.6h9.1c6.1,0,11.1-5,11.1-11.1
		c0-6.1-5-11.1-11.1-11.1h-5.5c-5,0-9.1-4.1-9.1-9.1v0c0-5,4.1-9.1,9.1-9.1h22.4c4,0,7.3-3.3,7.3-7.3c0-4-3.3-7.3-7.3-7.3h-26.2
		c-6.8,0-12.3-5.5-12.3-12.3v0c0-6.8,5.5-12.3,12.3-12.3h33.2c-3.6,0-6.5-2.9-6.5-6.5c0-3.6,2.9-6.5,6.5-6.5H160
		c-6.8,0-12.3-5.5-12.3-12.3v0c0-6.8,5.5-12.3,12.3-12.3h16.1c3.9,0,7.4-1.7,9.7-4.5c-1.9-2.2-3.1-5.2-3.1-8.4s1.2-6.1,3.1-8.4
		c-2.4-2.7-5.8-4.5-9.7-4.5h-20.6c-6,0-10.8-4.8-10.8-10.8s4.8-10.8,10.8-10.8h13.8c3.1,0,5.5-2.5,5.5-5.5s-2.5-5.5-5.5-5.5h-6.5
		c-4.2,0-7.5-3.4-7.5-7.5c0-4.2,3.4-7.5,7.5-7.5h20.1c1,0,2-0.1,2.9-0.3c-6.1-1.3-10.7-6.8-10.7-13.3v0c0-6.5,4.6-11.9,10.7-13.3
		c-0.9-0.2-1.9-0.3-2.9-0.3h-24.4c-6.5,0-11.8-5.3-11.8-11.8s5.3-11.8,11.8-11.8h14.8c6.4,0,11.7-4.8,12.5-11
		c-0.1-0.5-0.1-1-0.1-1.6v0c0-0.5,0-1.1,0.1-1.6c-0.8-6.2-6.1-11-12.5-11h-29.4c-4.9,0-8.8-3.9-8.8-8.8c0-4.9,3.9-8.8,8.8-8.8h22.9
		c6.9,0,12.6-5.6,12.6-12.6v0c0-6.9-5.6-12.6-12.6-12.6h-17.1c-3.6,0-6.5-2.9-6.5-6.5c0-3.6,2.9-6.5,6.5-6.5h34.5
		c-6.9,0-12.6-5.6-12.6-12.6v0c0-6.9,5.6-12.6,12.6-12.6h-17.6c-6.5,0-11.8-5.3-11.8-11.8v0c0-6.5,5.3-11.8,11.8-11.8h9.1
		c4.6,0,8.3-3.7,8.3-8.3s-3.7-8.3-8.3-8.3h-20.1c-5.1,0-9.3-4.2-9.3-9.3v0c0-5.1,4.2-9.3,9.3-9.3h5.8c1.6,0,3.2-0.3,4.7-0.8
		c0.8-0.3,1.6-0.7,2.4-1.1c0.4-0.2,0.7-0.5,1.1-0.7c0.5-0.4,1-0.8,1.5-1.3c0.3-0.3,0.6-0.6,0.9-1c1.8-2.2,2.9-4.9,3.1-7.9
		c0-0.2,0-0.5,0-0.7v0c0-0.9-0.1-1.9-0.3-2.7c-0.3-1.5-0.9-3-1.7-4.3c-0.6-0.9-1.2-1.8-2-2.6c-2.5-2.5-5.9-4-9.6-4h-11.6
		c-5.8,0-10.6-4.7-10.6-10.6s4.7-10.6,10.6-10.6h32c-3.6,0-6.5-2.9-6.5-6.5c0-3.6,2.9-6.5,6.5-6.5h-16.1c-7.1,0-12.8-5.7-12.8-12.8
		v0c0-7.1,5.7-12.8,12.8-12.8h7.8c6.4,0,11.6-5.2,11.6-11.6v0c0-6.4-5.2-11.6-11.6-11.6h-21.6c-6.4,0-11.6-5.2-11.6-11.6v0
		c0-6.4,5.2-11.6,11.6-11.6h9.1c6.1,0,11.1-5,11.1-11.1v0c0-6.1-5-11.1-11.1-11.1h-5.5c-5,0-9.1-4.1-9.1-9.1s4.1-9.1,9.1-9.1h22.4
		c4,0,7.3-3.3,7.3-7.3s-3.3-7.3-7.3-7.3h-26.2c-6.8,0-12.3-5.5-12.3-12.3s5.5-12.3,12.3-12.3h33.2c-3.6,0-6.5-2.9-6.5-6.5
		c0-3.6,2.9-6.5,6.5-6.5H160c-6.8,0-12.3-5.5-12.3-12.3s5.5-12.3,12.3-12.3h16.1c3.9,0,7.4-1.7,9.7-4.5c-1.9-2.2-3.1-5.2-3.1-8.4v0
		c0-3.2,1.2-6.1,3.1-8.4c-2.4-2.7-5.8-4.5-9.7-4.5h-20.6c-6,0-10.8-4.8-10.8-10.8v0c0-6,4.8-10.8,10.8-10.8h13.8
		c3.1,0,5.5-2.5,5.5-5.5c0-3.1-2.5-5.5-5.5-5.5h-6.5c-4.2,0-7.5-3.4-7.5-7.5c0-4.2,3.4-7.5,7.5-7.5h20.1c1,0,2-0.1,2.9-0.3
		c-6.1-1.3-10.7-6.8-10.7-13.3s4.6-11.9,10.7-13.3c-0.9-0.2-1.9-0.3-2.9-0.3h-24.4c-6.5,0-11.8-5.3-11.8-11.8v0
		c0-6.5,5.3-11.8,11.8-11.8h14.8c6.4,0,11.7-4.8,12.5-11c-0.1-0.5-0.1-1-0.1-1.6s0-1.1,0.1-1.6c-0.8-6.2-6.1-11-12.5-11h-29.4
		c-4.9,0-8.8-3.9-8.8-8.8v0c0-4.9,3.9-8.8,8.8-8.8h22.9c6.9,0,12.6-5.6,12.6-12.6c0-6.9-5.6-12.6-12.6-12.6h-17.1
		c-3.6,0-6.5-2.9-6.5-6.5c0-3.6,2.9-6.5,6.5-6.5h34.5c-6.9,0-12.6-5.6-12.6-12.6c0-6.9,5.6-12.6,12.6-12.6h-17.6
		c-6.5,0-11.8-5.3-11.8-11.8s5.3-11.8,11.8-11.8h9.1c4.6,0,8.3-3.7,8.3-8.3v0c0-4.6-3.7-8.3-8.3-8.3h-20.1c-5.1,0-9.3-4.2-9.3-9.3
		c0-5.1,4.2-9.3,9.3-9.3h5.8c7.4,0,13.3-5.9,13.6-13.2h-91C84,7.3,90,13.2,97.3,13.2h11.6c5.8,0,10.6,4.7,10.6,10.6v0
		c0,5.8-4.7,10.6-10.6,10.6H68.7c-3.6,0-6.5,2.9-6.5,6.5c0,3.6,2.9,6.5,6.5,6.5h24.4c7.1,0,12.8,5.7,12.8,12.8
		c0,7.1-5.7,12.8-12.8,12.8h-7.8c-6.4,0-11.6,5.2-11.6,11.6c0,6.4,5.2,11.6,11.6,11.6h21.6c6.4,0,11.6,5.2,11.6,11.6
		c0,6.4-5.2,11.6-11.6,11.6h-9.1c-6.1,0-11.1,5-11.1,11.1c0,6.1,5,11.1,11.1,11.1h5.5c5,0,9.1,4.1,9.1,9.1v0c0,5-4.1,9.1-9.1,9.1H81
		c-4,0-7.3,3.3-7.3,7.3c0,4,3.3,7.3,7.3,7.3h26.2c6.8,0,12.3,5.5,12.3,12.3v0c0,6.8-5.5,12.3-12.3,12.3H71.7c-3.6,0-6.5,2.9-6.5,6.5
		c0,3.6,2.9,6.5,6.5,6.5h26.9c6.8,0,12.3,5.5,12.3,12.3v0c0,6.8-5.5,12.3-12.3,12.3H82.5c-7.1,0-12.8,5.7-12.8,12.8
		s5.7,12.8,12.8,12.8h20.6c6,0,10.8,4.8,10.8,10.8s-4.8,10.8-10.8,10.8H89.3c-3.1,0-5.5,2.5-5.5,5.5c0,3.1,2.5,5.5,5.5,5.5h6.5
		c4.2,0,7.5,3.4,7.5,7.5c0,4.2-3.4,7.5-7.5,7.5H75.7c-7.5,0-13.6,6.1-13.6,13.6v0c0,7.5,6.1,13.6,13.6,13.6h24.4
		c6.5,0,11.8,5.3,11.8,11.8s-5.3,11.8-11.8,11.8H85.3c-6.9,0-12.6,5.6-12.6,12.6v0c0,6.9,5.6,12.6,12.6,12.6h29.4
		c4.9,0,8.8,3.9,8.8,8.8s-3.9,8.8-8.8,8.8H91.8c-6.9,0-12.6,5.6-12.6,12.6v0c0,6.9,5.6,12.6,12.6,12.6h17.1c3.6,0,6.5,2.9,6.5,6.5
		c0,3.6-2.9,6.5-6.5,6.5H71.2c-6.9,0-12.6,5.6-12.6,12.6v0c0,6.9,5.6,12.6,12.6,12.6H92c6.5,0,11.8,5.3,11.8,11.8v0
		c0,6.5-5.3,11.8-11.8,11.8H83c-4.6,0-8.3,3.7-8.3,8.3s3.7,8.3,8.3,8.3h20.1c5.1,0,9.3,4.2,9.3,9.3c0,5.1-4.2,9.3-9.3,9.3h-5.8
		c-3.8,0-7.1,1.5-9.6,4c-0.8,0.8-1.4,1.6-2,2.6c-0.8,1.3-1.4,2.8-1.7,4.3c-0.2,0.9-0.3,1.8-0.3,2.7v0c0,0.2,0,0.5,0,0.7
		c0.2,3,1.3,5.8,3.1,7.9c0.3,0.3,0.6,0.7,0.9,1c0.5,0.5,1,0.9,1.5,1.3c0.3,0.3,0.7,0.5,1.1,0.7c0.7,0.5,1.5,0.8,2.4,1.1
		c1.5,0.5,3,0.8,4.7,0.8h11.6c5.8,0,10.6,4.7,10.6,10.6c0,5.8-4.7,10.6-10.6,10.6H68.7c-3.6,0-6.5,2.9-6.5,6.5
		c0,3.6,2.9,6.5,6.5,6.5h24.4c7.1,0,12.8,5.7,12.8,12.8v0c0,7.1-5.7,12.8-12.8,12.8h-7.8c-6.4,0-11.6,5.2-11.6,11.6v0
		c0,6.4,5.2,11.6,11.6,11.6h21.6c6.4,0,11.6,5.2,11.6,11.6v0c0,6.4-5.2,11.6-11.6,11.6h-9.1c-6.1,0-11.1,5-11.1,11.1v0
		c0,6.1,5,11.1,11.1,11.1h5.5c5,0,9.1,4.1,9.1,9.1s-4.1,9.1-9.1,9.1H81c-4,0-7.3,3.3-7.3,7.3s3.3,7.3,7.3,7.3h26.2
		c6.8,0,12.3,5.5,12.3,12.3s-5.5,12.3-12.3,12.3H71.7c-3.6,0-6.5,2.9-6.5,6.5c0,3.6,2.9,6.5,6.5,6.5h26.9c6.8,0,12.3,5.5,12.3,12.3
		s-5.5,12.3-12.3,12.3H82.5c-7.1,0-12.8,5.7-12.8,12.8v0c0,7.1,5.7,12.8,12.8,12.8h20.6c6,0,10.8,4.8,10.8,10.8v0
		c0,6-4.8,10.8-10.8,10.8H89.3c-3.1,0-5.5,2.5-5.5,5.5s2.5,5.5,5.5,5.5h6.5c4.2,0,7.5,3.4,7.5,7.5c0,4.2-3.4,7.5-7.5,7.5H75.7
		c-7.5,0-13.6,6.1-13.6,13.6s6.1,13.6,13.6,13.6h24.4c6.5,0,11.8,5.3,11.8,11.8v0c0,6.5-5.3,11.8-11.8,11.8H85.3
		c-6.9,0-12.6,5.6-12.6,12.6s5.6,12.6,12.6,12.6h29.4c4.9,0,8.8,3.9,8.8,8.8v0c0,4.9-3.9,8.8-8.8,8.8H91.8
		c-6.9,0-12.6,5.6-12.6,12.6s5.6,12.6,12.6,12.6h17.1c3.6,0,6.5,2.9,6.5,6.5c0,3.6-2.9,6.5-6.5,6.5H71.2c-6.9,0-12.6,5.6-12.6,12.6
		s5.6,12.6,12.6,12.6H92c6.5,0,11.8,5.3,11.8,11.8s-5.3,11.8-11.8,11.8H83c-4.6,0-8.3,3.7-8.3,8.3c0,4.6,3.7,8.3,8.3,8.3h20.1
		c5.1,0,9.3,4.2,9.3,9.3s-4.2,9.3-9.3,9.3h-5.8c-7.5,0-13.6,6.1-13.6,13.6c0,0.2,0,0.4,0,0.6h91c0-0.2,0-0.4,0-0.6
		C174.8,1071.9,168.7,1065.8,161.2,1065.8z"/>
	<path class="st1" d="M274.2,1065.8h-5.8c-5.1,0-9.3-4.2-9.3-9.3s4.2-9.3,9.3-9.3h20.1c4.6,0,8.3-3.7,8.3-8.3c0-4.6-3.7-8.3-8.3-8.3
		h-9.1c-6.5,0-11.8-5.3-11.8-11.8s5.3-11.8,11.8-11.8h20.9c6.9,0,12.6-5.6,12.6-12.6s-5.6-12.6-12.6-12.6h-37.7
		c-3.6,0-6.5-2.9-6.5-6.5c0-3.6,2.9-6.5,6.5-6.5h17.1c6.9,0,12.6-5.6,12.6-12.6s-5.6-12.6-12.6-12.6h-22.9c-4.9,0-8.8-3.9-8.8-8.8v0
		c0-4.9,3.9-8.8,8.8-8.8h29.4c6.9,0,12.6-5.6,12.6-12.6s-5.6-12.6-12.6-12.6h-14.8c-6.5,0-11.8-5.3-11.8-11.8v0
		c0-6.5,5.3-11.8,11.8-11.8h24.4c7.5,0,13.6-6.1,13.6-13.6s-6.1-13.6-13.6-13.6h-20.1c-4.2,0-7.5-3.4-7.5-7.5c0-4.2,3.4-7.5,7.5-7.5
		h6.5c3.1,0,5.5-2.5,5.5-5.5s-2.5-5.5-5.5-5.5h-13.8c-6,0-10.8-4.8-10.8-10.8v0c0-6,4.8-10.8,10.8-10.8h20.6
		c7.1,0,12.8-5.7,12.8-12.8v0c0-7.1-5.7-12.8-12.8-12.8H273c-6.8,0-12.3-5.5-12.3-12.3s5.5-12.3,12.3-12.3h26.9
		c3.6,0,6.5-2.9,6.5-6.5c0-3.6-2.9-6.5-6.5-6.5h-35.5c-6.8,0-12.3-5.5-12.3-12.3s5.5-12.3,12.3-12.3h26.2c4,0,7.3-3.3,7.3-7.3
		s-3.3-7.3-7.3-7.3h-22.4c-5,0-9.1-4.1-9.1-9.1s4.1-9.1,9.1-9.1h5.5c6.1,0,11.1-5,11.1-11.1v0c0-6.1-5-11.1-11.1-11.1h-9.1
		c-6.4,0-11.6-5.2-11.6-11.6v0c0-6.4,5.2-11.6,11.6-11.6h21.6c6.4,0,11.6-5.2,11.6-11.6v0c0-6.4-5.2-11.6-11.6-11.6h-7.8
		c-7.1,0-12.8-5.7-12.8-12.8v0c0-7.1,5.7-12.8,12.8-12.8h24.4c3.6,0,6.5-2.9,6.5-6.5c0-3.6-2.9-6.5-6.5-6.5h-40.3
		c-5.8,0-10.6-4.7-10.6-10.6c0-5.8,4.7-10.6,10.6-10.6h11.6c1.6,0,3.2-0.3,4.7-0.8c0.8-0.3,1.6-0.7,2.4-1.1c0.4-0.2,0.7-0.5,1.1-0.7
		c0.5-0.4,1-0.8,1.5-1.3c0.3-0.3,0.6-0.6,0.9-1c1.8-2.2,2.9-4.9,3.1-7.9c0-0.2,0-0.5,0-0.7v0c0-0.9-0.1-1.9-0.3-2.7
		c-0.3-1.5-0.9-3-1.7-4.3c-0.6-0.9-1.2-1.8-2-2.6c-2.5-2.5-5.9-4-9.6-4h-5.8c-5.1,0-9.3-4.2-9.3-9.3c0-5.1,4.2-9.3,9.3-9.3h20.1
		c4.6,0,8.3-3.7,8.3-8.3s-3.7-8.3-8.3-8.3h-9.1c-6.5,0-11.8-5.3-11.8-11.8v0c0-6.5,5.3-11.8,11.8-11.8h20.9
		c6.9,0,12.6-5.6,12.6-12.6v0c0-6.9-5.6-12.6-12.6-12.6h-37.7c-3.6,0-6.5-2.9-6.5-6.5c0-3.6,2.9-6.5,6.5-6.5h17.1
		c6.9,0,12.6-5.6,12.6-12.6v0c0-6.9-5.6-12.6-12.6-12.6h-22.9c-4.9,0-8.8-3.9-8.8-8.8s3.9-8.8,8.8-8.8h29.4
		c6.9,0,12.6-5.6,12.6-12.6v0c0-6.9-5.6-12.6-12.6-12.6h-14.8c-6.5,0-11.8-5.3-11.8-11.8s5.3-11.8,11.8-11.8h24.4
		c7.5,0,13.6-6.1,13.6-13.6v0c0-7.5-6.1-13.6-13.6-13.6h-20.1c-4.2,0-7.5-3.4-7.5-7.5c0-4.2,3.4-7.5,7.5-7.5h6.5
		c3.1,0,5.5-2.5,5.5-5.5c0-3.1-2.5-5.5-5.5-5.5h-13.8c-6,0-10.8-4.8-10.8-10.8s4.8-10.8,10.8-10.8h20.6c7.1,0,12.8-5.7,12.8-12.8
		s-5.7-12.8-12.8-12.8H273c-6.8,0-12.3-5.5-12.3-12.3v0c0-6.8,5.5-12.3,12.3-12.3h26.9c3.6,0,6.5-2.9,6.5-6.5c0-3.6-2.9-6.5-6.5-6.5
		h-35.5c-6.8,0-12.3-5.5-12.3-12.3v0c0-6.8,5.5-12.3,12.3-12.3h26.2c4,0,7.3-3.3,7.3-7.3c0-4-3.3-7.3-7.3-7.3h-22.4
		c-5,0-9.1-4.1-9.1-9.1v0c0-5,4.1-9.1,9.1-9.1h5.5c6.1,0,11.1-5,11.1-11.1c0-6.1-5-11.1-11.1-11.1h-9.1c-6.4,0-11.6-5.2-11.6-11.6
		c0-6.4,5.2-11.6,11.6-11.6h21.6c6.4,0,11.6-5.2,11.6-11.6c0-6.4-5.2-11.6-11.6-11.6h-7.8c-7.1,0-12.8-5.7-12.8-12.8
		c0-7.1,5.7-12.8,12.8-12.8h24.4c3.6,0,6.5-2.9,6.5-6.5c0-3.6-2.9-6.5-6.5-6.5h-40.3c-5.8,0-10.6-4.7-10.6-10.6v0
		c0-5.8,4.7-10.6,10.6-10.6h11.6c7.4,0,13.3-5.9,13.6-13.2h-91c0.2,7.3,6.2,13.2,13.6,13.2h5.8c5.1,0,9.3,4.2,9.3,9.3
		c0,5.1-4.2,9.3-9.3,9.3H196c-4.6,0-8.3,3.7-8.3,8.3v0c0,4.6,3.7,8.3,8.3,8.3h9.1c6.5,0,11.8,5.3,11.8,11.8S211.6,72,205,72h-17.6
		c6.9,0,12.6,5.6,12.6,12.6c0,6.9-5.6,12.6-12.6,12.6h34.5c3.6,0,6.5,2.9,6.5,6.5c0,3.6-2.9,6.5-6.5,6.5h-17.1
		c-6.9,0-12.6,5.6-12.6,12.6c0,6.9,5.6,12.6,12.6,12.6h22.9c4.9,0,8.8,3.9,8.8,8.8v0c0,4.9-3.9,8.8-8.8,8.8h-29.4
		c-6.4,0-11.7,4.8-12.5,11c0.1,0.5,0.1,1,0.1,1.6s0,1.1-0.1,1.6c0.8,6.2,6.1,11,12.5,11h14.8c6.5,0,11.8,5.3,11.8,11.8v0
		c0,6.5-5.3,11.8-11.8,11.8h-24.4c-1,0-2,0.1-2.9,0.3c6.1,1.3,10.7,6.8,10.7,13.3s-4.6,11.9-10.7,13.3c0.9,0.2,1.9,0.3,2.9,0.3h20.1
		c4.2,0,7.5,3.4,7.5,7.5c0,4.2-3.4,7.5-7.5,7.5h-6.5c-3.1,0-5.5,2.5-5.5,5.5c0,3.1,2.5,5.5,5.5,5.5h13.8c6,0,10.8,4.8,10.8,10.8v0
		c0,6-4.8,10.8-10.8,10.8h-20.6c-3.9,0-7.4,1.7-9.7,4.5c1.9,2.2,3.1,5.2,3.1,8.4v0c0,3.2-1.2,6.1-3.1,8.4c2.4,2.7,5.8,4.5,9.7,4.5
		h16.1c6.8,0,12.3,5.5,12.3,12.3s-5.5,12.3-12.3,12.3h-24.7c3.6,0,6.5,2.9,6.5,6.5c0,3.6-2.9,6.5-6.5,6.5h33.2
		c6.8,0,12.3,5.5,12.3,12.3s-5.5,12.3-12.3,12.3H194c-4,0-7.3,3.3-7.3,7.3s3.3,7.3,7.3,7.3h22.4c5,0,9.1,4.1,9.1,9.1
		s-4.1,9.1-9.1,9.1h-5.5c-6.1,0-11.1,5-11.1,11.1v0c0,6.1,5,11.1,11.1,11.1h9.1c6.4,0,11.6,5.2,11.6,11.6v0
		c0,6.4-5.2,11.6-11.6,11.6h-21.6c-6.4,0-11.6,5.2-11.6,11.6v0c0,6.4,5.2,11.6,11.6,11.6h7.8c7.1,0,12.8,5.7,12.8,12.8v0
		c0,7.1-5.7,12.8-12.8,12.8h-16.1c3.6,0,6.5,2.9,6.5,6.5c0,3.6-2.9,6.5-6.5,6.5h32c5.8,0,10.6,4.7,10.6,10.6s-4.7,10.6-10.6,10.6
		h-11.6c-3.8,0-7.1,1.5-9.6,4c-0.8,0.8-1.4,1.6-2,2.6c-0.8,1.3-1.4,2.8-1.7,4.3c-0.2,0.9-0.3,1.8-0.3,2.7v0c0,0.2,0,0.5,0,0.7
		c0.2,3,1.3,5.8,3.1,7.9c0.3,0.3,0.6,0.7,0.9,1c0.5,0.5,1,0.9,1.5,1.3c0.3,0.3,0.7,0.5,1.1,0.7c0.7,0.5,1.5,0.8,2.4,1.1
		c1.5,0.5,3,0.8,4.7,0.8h5.8c5.1,0,9.3,4.2,9.3,9.3v0c0,5.1-4.2,9.3-9.3,9.3H196c-4.6,0-8.3,3.7-8.3,8.3s3.7,8.3,8.3,8.3h9.1
		c6.5,0,11.8,5.3,11.8,11.8v0c0,6.5-5.3,11.8-11.8,11.8h-17.6c6.9,0,12.6,5.6,12.6,12.6v0c0,6.9-5.6,12.6-12.6,12.6h34.5
		c3.6,0,6.5,2.9,6.5,6.5c0,3.6-2.9,6.5-6.5,6.5h-17.1c-6.9,0-12.6,5.6-12.6,12.6v0c0,6.9,5.6,12.6,12.6,12.6h22.9
		c4.9,0,8.8,3.9,8.8,8.8c0,4.9-3.9,8.8-8.8,8.8h-29.4c-6.4,0-11.7,4.8-12.5,11c0.1,0.5,0.1,1,0.1,1.6v0c0,0.5,0,1.1-0.1,1.6
		c0.8,6.2,6.1,11,12.5,11h14.8c6.5,0,11.8,5.3,11.8,11.8s-5.3,11.8-11.8,11.8h-24.4c-1,0-2,0.1-2.9,0.3c6.1,1.3,10.7,6.8,10.7,13.3
		v0c0,6.5-4.6,11.9-10.7,13.3c0.9,0.2,1.9,0.3,2.9,0.3h20.1c4.2,0,7.5,3.4,7.5,7.5c0,4.2-3.4,7.5-7.5,7.5h-6.5
		c-3.1,0-5.5,2.5-5.5,5.5s2.5,5.5,5.5,5.5h13.8c6,0,10.8,4.8,10.8,10.8s-4.8,10.8-10.8,10.8h-20.6c-3.9,0-7.4,1.7-9.7,4.5
		c1.9,2.2,3.1,5.2,3.1,8.4s-1.2,6.1-3.1,8.4c2.4,2.7,5.8,4.5,9.7,4.5h16.1c6.8,0,12.3,5.5,12.3,12.3v0c0,6.8-5.5,12.3-12.3,12.3
		h-24.7c3.6,0,6.5,2.9,6.5,6.5c0,3.6-2.9,6.5-6.5,6.5h33.2c6.8,0,12.3,5.5,12.3,12.3v0c0,6.8-5.5,12.3-12.3,12.3H194
		c-4,0-7.3,3.3-7.3,7.3c0,4,3.3,7.3,7.3,7.3h22.4c5,0,9.1,4.1,9.1,9.1v0c0,5-4.1,9.1-9.1,9.1h-5.5c-6.1,0-11.1,5-11.1,11.1
		c0,6.1,5,11.1,11.1,11.1h9.1c6.4,0,11.6,5.2,11.6,11.6c0,6.4-5.2,11.6-11.6,11.6h-21.6c-6.4,0-11.6,5.2-11.6,11.6
		c0,6.4,5.2,11.6,11.6,11.6h7.8c7.1,0,12.8,5.7,12.8,12.8c0,7.1-5.7,12.8-12.8,12.8h-16.1c3.6,0,6.5,2.9,6.5,6.5
		c0,3.6-2.9,6.5-6.5,6.5h32c5.8,0,10.6,4.7,10.6,10.6c0,5.8-4.7,10.6-10.6,10.6h-11.6c-7.5,0-13.6,6.1-13.6,13.6c0,0.2,0,0.4,0,0.6
		h91c0-0.2,0-0.4,0-0.6C287.8,1071.9,281.7,1065.8,274.2,1065.8z"/>
	<path class="st2" d="M175.1,755.4L175.1,755.4c0,6.5,4.6,11.9,10.7,13.3c6.1-1.3,10.7-6.8,10.7-13.3v0c0-6.5-4.6-11.9-10.7-13.3
		C179.7,743.4,175.1,748.9,175.1,755.4z"/>
	<path class="st2" d="M175.1,1038.2c0,3.6,2.9,6.5,6.5,6.5h8.3c3.6,0,6.5-2.9,6.5-6.5c0-3.6-2.9-6.5-6.5-6.5h-8.3
		C178,1031.6,175.1,1034.5,175.1,1038.2z"/>
	<path class="st2" d="M185.8,838c1.9-2.2,3.1-5.2,3.1-8.4s-1.2-6.1-3.1-8.4c-1.9,2.2-3.1,5.2-3.1,8.4S183.8,835.7,185.8,838z"/>
	<path class="st2" d="M178.1,873.6c0,3.6,2.9,6.5,6.5,6.5h2.2c3.6,0,6.5-2.9,6.5-6.5c0-3.6-2.9-6.5-6.5-6.5h-2.2
		C181.1,867.1,178.1,870,178.1,873.6z"/>
	<path class="st2" d="M178.1,333.7c0,3.6,2.9,6.5,6.5,6.5h2.2c3.6,0,6.5-2.9,6.5-6.5c0-3.6-2.9-6.5-6.5-6.5h-2.2
		C181.1,327.2,178.1,330.1,178.1,333.7z"/>
	<path class="st2" d="M175.1,215.5c0,6.5,4.6,11.9,10.7,13.3c6.1-1.3,10.7-6.8,10.7-13.3s-4.6-11.9-10.7-13.3
		C179.7,203.5,175.1,208.9,175.1,215.5z"/>
	<path class="st1" d="M185.8,167.2c0.1-0.5,0.1-1,0.1-1.6s0-1.1-0.1-1.6c-0.1,0.5-0.1,1-0.1,1.6S185.7,166.7,185.8,167.2z"/>
	<path class="st1" d="M185.7,705.5c0,0.5,0,1.1,0.1,1.6c0.1-0.5,0.1-1,0.1-1.6v0c0-0.5,0-1.1-0.1-1.6
		C185.7,704.5,185.7,705,185.7,705.5L185.7,705.5z"/>
	<path class="st2" d="M171.6,84.6c0,6.9,5.6,12.6,12.6,12.6h3.2c6.9,0,12.6-5.6,12.6-12.6c0-6.9-5.6-12.6-12.6-12.6h-3.2
		C177.2,72,171.6,77.7,171.6,84.6z"/>
	<path class="st2" d="M171.6,624.5L171.6,624.5c0,6.9,5.6,12.6,12.6,12.6h3.2c6.9,0,12.6-5.6,12.6-12.6v0c0-6.9-5.6-12.6-12.6-12.6
		h-3.2C177.2,612,171.6,617.6,171.6,624.5z"/>
	<path class="st2" d="M182.7,289.7c0,3.2,1.2,6.1,3.1,8.4c1.9-2.2,3.1-5.2,3.1-8.4v0c0-3.2-1.2-6.1-3.1-8.4
		C183.8,283.5,182.7,286.5,182.7,289.7L182.7,289.7z"/>
	<path class="st2" d="M175.1,498.2c0,3.6,2.9,6.5,6.5,6.5h8.3c3.6,0,6.5-2.9,6.5-6.5c0-3.6-2.9-6.5-6.5-6.5h-8.3
		C178,491.7,175.1,494.6,175.1,498.2z"/>
</g>
<g>
	<path class="st3" d="M0.8,745v-34.4C-0.1,720.3-0.4,731.1,0.8,745z"/>
	<path class="st4" d="M6.8,198c-0.5-16-3.3-27.6-4-31c-0.7-3.4-1.4-7.3-2-11.9V248C3.6,237.8,7.5,220.2,6.8,198z"/>
	<path class="st4" d="M0.8,53C1.8,37.3,3.2,19.7,5,0H0.8V53z"/>
	<path class="st4" d="M10.8,626c1.1-53-8.9-58.2-6-112c2.4-45.8,9.6-42.4,12-81c3.2-52.6-8.5-85.5-16-114.5v392.1
		C3.2,686.3,10,668.5,10.8,626z"/>
	<path class="st4" d="M19.8,823c-4.5-12.5-15.7-39.2-19-78v335h4.7C37.8,944.8,35.3,866.3,19.8,823z"/>
</g>
<g>
	<path class="st3" d="M384.8,745v-34.4C385.7,720.3,386,731.1,384.8,745z"/>
	<path class="st4" d="M378.8,198c0.5-16,3.3-27.6,4-31c0.7-3.4,1.4-7.3,2-11.9V248C382,237.8,378.1,220.2,378.8,198z"/>
	<path class="st4" d="M384.8,53c-1-15.7-2.4-33.3-4.2-53l4.2,0V53z"/>
	<path class="st4" d="M374.8,626c-1.1-53,8.9-58.2,6-112c-2.4-45.8-9.6-42.4-12-81c-3.2-52.6,8.5-85.5,16-114.5v392.1
		C382.4,686.3,375.6,668.5,374.8,626z"/>
	<path class="st4" d="M365.8,823c4.5-12.5,15.7-39.2,19-78v335h-4.7C347.8,944.8,350.3,866.3,365.8,823z"/>
</g>
<g>
	<polygon class="st2" points="20.7,922 17.8,922 15.8,924.1 15.8,926.9 17.8,929 19.3,929 17.8,927.5 17.8,925.5 19.3,924 21.3,924 
		22.8,925.5 22.8,924.1 	"/>
	<polygon class="st5" points="21.3,929 22.8,927.5 22.8,926.9 20.7,929 	"/>
	<polygon class="st6" points="19.3,924 17.8,925.5 17.8,927.5 19.3,929 20.7,929 22.8,926.9 22.8,925.5 21.3,924 	"/>
</g>
<g>
	<polygon class="st2" points="11.5,856.5 10.1,855.5 8.5,855.7 7.4,857 7.6,858.7 8.3,859.2 8.1,858 8.9,857 10.1,856.9 11,857.6 
		11.1,858.8 11.7,858.2 	"/>
	<polygon class="st5" points="9.2,859.9 10.4,859.8 10.6,859.5 9,859.7 	"/>
	<polygon class="st6" points="10.1,856.9 8.9,857 8.1,858 8.3,859.2 9,859.7 10.6,859.5 11.1,858.8 11,857.6 	"/>
</g>
</svg>
