<?xml version="1.0" encoding="utf-8"?>
<!-- Generator: Adobe Illustrator 21.0.2, SVG Export Plug-In . SVG Version: 6.00 Build 0)  -->
<svg version="1.0" id="Layer_1" xmlns="http://www.w3.org/2000/svg" xmlns:xlink="http://www.w3.org/1999/xlink" x="0px" y="0px"
	 viewBox="0 0 384 1080" style="enable-background:new 0 0 384 1080;" xml:space="preserve">
<style type="text/css">
	.st0{fill:#7299A8;}
	.st1{fill:#C0E2E3;}
	.st2{fill:#F7FAF1;}
	.st3{fill:#B6A82D;}
	.st4{fill:#EF5A72;}
	.st5{fill:#64374C;}
</style>
<path class="st0" d="M153.5,1065.8h5.8c5.1,0,9.3-4.2,9.3-9.3s-4.2-9.3-9.3-9.3h-20.1c-4.6,0-8.3-3.7-8.3-8.3c0-4.6,3.7-8.3,8.3-8.3
	h9.1c6.5,0,11.8-5.3,11.8-11.8s-5.3-11.8-11.8-11.8h-20.9c-6.9,0-12.6-5.6-12.6-12.6s5.6-12.6,12.6-12.6h37.7c3.6,0,6.5-2.9,6.5-6.5
	c0-3.6-2.9-6.5-6.5-6.5H148c-6.9,0-12.6-5.6-12.6-12.6s5.6-12.6,12.6-12.6h22.9c4.9,0,8.8-3.9,8.8-8.8v0c0-4.9-3.9-8.8-8.8-8.8
	h-29.4c-6.9,0-12.6-5.6-12.6-12.6s5.6-12.6,12.6-12.6h14.8c6.5,0,11.8-5.3,11.8-11.8v0c0-6.5-5.3-11.8-11.8-11.8h-24.4
	c-7.5,0-13.6-6.1-13.6-13.6s6.1-13.6,13.6-13.6H152c4.2,0,7.5-3.4,7.5-7.5c0-4.2-3.4-7.5-7.5-7.5h-6.5c-3.1,0-5.5-2.5-5.5-5.5
	s2.5-5.5,5.5-5.5h13.8c6,0,10.8-4.8,10.8-10.8v0c0-6-4.8-10.8-10.8-10.8h-20.6c-7.1,0-12.8-5.7-12.8-12.8v0
	c0-7.1,5.7-12.8,12.8-12.8h16.1c6.8,0,12.3-5.5,12.3-12.3s-5.5-12.3-12.3-12.3h-26.9c-3.6,0-6.5-2.9-6.5-6.5c0-3.6,2.9-6.5,6.5-6.5
	h35.5c6.8,0,12.3-5.5,12.3-12.3s-5.5-12.3-12.3-12.3h-26.2c-4,0-7.3-3.3-7.3-7.3s3.3-7.3,7.3-7.3h22.4c5,0,9.1-4.1,9.1-9.1
	s-4.1-9.1-9.1-9.1H154c-6.1,0-11.1-5-11.1-11.1v0c0-6.1,5-11.1,11.1-11.1h9.1c6.4,0,11.6-5.2,11.6-11.6v0c0-6.4-5.2-11.6-11.6-11.6
	h-21.6c-6.4,0-11.6-5.2-11.6-11.6v0c0-6.4,5.2-11.6,11.6-11.6h7.8c7.1,0,12.8-5.7,12.8-12.8v0c0-7.1-5.7-12.8-12.8-12.8h-24.4
	c-3.6,0-6.5-2.9-6.5-6.5c0-3.6,2.9-6.5,6.5-6.5h40.3c5.8,0,10.6-4.7,10.6-10.6c0-5.8-4.7-10.6-10.6-10.6h-11.6
	c-1.6,0-3.2-0.3-4.7-0.8c-0.8-0.3-1.6-0.7-2.4-1.1c-0.4-0.2-0.7-0.5-1.1-0.7c-0.5-0.4-1-0.8-1.5-1.3c-0.3-0.3-0.6-0.6-0.9-1
	c-1.8-2.2-2.9-4.9-3.1-7.9c0-0.2,0-0.5,0-0.7v0c0-0.9,0.1-1.9,0.3-2.7c0.3-1.5,0.9-3,1.7-4.3c0.6-0.9,1.2-1.8,2-2.6
	c2.5-2.5,5.9-4,9.6-4h5.8c5.1,0,9.3-4.2,9.3-9.3c0-5.1-4.2-9.3-9.3-9.3h-20.1c-4.6,0-8.3-3.7-8.3-8.3s3.7-8.3,8.3-8.3h9.1
	c6.5,0,11.8-5.3,11.8-11.8v0c0-6.5-5.3-11.8-11.8-11.8h-20.9c-6.9,0-12.6-5.6-12.6-12.6v0c0-6.9,5.6-12.6,12.6-12.6h37.7
	c3.6,0,6.5-2.9,6.5-6.5c0-3.6-2.9-6.5-6.5-6.5H148c-6.9,0-12.6-5.6-12.6-12.6v0c0-6.9,5.6-12.6,12.6-12.6h22.9
	c4.9,0,8.8-3.9,8.8-8.8s-3.9-8.8-8.8-8.8h-29.4c-6.9,0-12.6-5.6-12.6-12.6v0c0-6.9,5.6-12.6,12.6-12.6h14.8
	c6.5,0,11.8-5.3,11.8-11.8s-5.3-11.8-11.8-11.8h-24.4c-7.5,0-13.6-6.1-13.6-13.6v0c0-7.5,6.1-13.6,13.6-13.6H152
	c4.2,0,7.5-3.4,7.5-7.5c0-4.2-3.4-7.5-7.5-7.5h-6.5c-3.1,0-5.5-2.5-5.5-5.5c0-3.1,2.5-5.5,5.5-5.5h13.8c6,0,10.8-4.8,10.8-10.8
	s-4.8-10.8-10.8-10.8h-20.6c-7.1,0-12.8-5.7-12.8-12.8s5.7-12.8,12.8-12.8h16.1c6.8,0,12.3-5.5,12.3-12.3v0
	c0-6.8-5.5-12.3-12.3-12.3h-26.9c-3.6,0-6.5-2.9-6.5-6.5c0-3.6,2.9-6.5,6.5-6.5h35.5c6.8,0,12.3-5.5,12.3-12.3v0
	c0-6.8-5.5-12.3-12.3-12.3h-26.2c-4,0-7.3-3.3-7.3-7.3c0-4,3.3-7.3,7.3-7.3h22.4c5,0,9.1-4.1,9.1-9.1v0c0-5-4.1-9.1-9.1-9.1H154
	c-6.1,0-11.1-5-11.1-11.1c0-6.1,5-11.1,11.1-11.1h9.1c6.4,0,11.6-5.2,11.6-11.6c0-6.4-5.2-11.6-11.6-11.6h-21.6
	c-6.4,0-11.6-5.2-11.6-11.6c0-6.4,5.2-11.6,11.6-11.6h7.8c7.1,0,12.8-5.7,12.8-12.8c0-7.1-5.7-12.8-12.8-12.8h-24.4
	c-3.6,0-6.5-2.9-6.5-6.5c0-3.6,2.9-6.5,6.5-6.5h40.3c5.8,0,10.6-4.7,10.6-10.6v0c0-5.8-4.7-10.6-10.6-10.6h-11.6
	c-7.4,0-13.3-5.9-13.6-13.2H0v1080h140c0-0.2,0-0.4,0-0.6C139.9,1071.9,146,1065.8,153.5,1065.8z"/>
<g>
	<path class="st0" d="M384,0H231c-0.2,7.3-6.2,13.2-13.6,13.2h-5.8c-5.1,0-9.3,4.2-9.3,9.3c0,5.1,4.2,9.3,9.3,9.3h20.1
		c4.6,0,8.3,3.7,8.3,8.3v0c0,4.6-3.7,8.3-8.3,8.3h-9.1c-6.5,0-11.8,5.3-11.8,11.8S216.2,72,222.7,72h20.9c6.9,0,12.6,5.6,12.6,12.6
		c0,6.9-5.6,12.6-12.6,12.6h-37.7c-3.6,0-6.5,2.9-6.5,6.5c0,3.6,2.9,6.5,6.5,6.5H223c6.9,0,12.6,5.6,12.6,12.6
		c0,6.9-5.6,12.6-12.6,12.6h-22.9c-4.9,0-8.8,3.9-8.8,8.8v0c0,4.9,3.9,8.8,8.8,8.8h29.4c6.9,0,12.6,5.6,12.6,12.6
		c0,6.9-5.6,12.6-12.6,12.6h-14.8c-6.5,0-11.8,5.3-11.8,11.8v0c0,6.5,5.3,11.8,11.8,11.8h24.4c7.5,0,13.6,6.1,13.6,13.6
		s-6.1,13.6-13.6,13.6h-20.1c-4.2,0-7.5,3.4-7.5,7.5c0,4.2,3.4,7.5,7.5,7.5h6.5c3.1,0,5.5,2.5,5.5,5.5c0,3.1-2.5,5.5-5.5,5.5h-13.8
		c-6,0-10.8,4.8-10.8,10.8v0c0,6,4.8,10.8,10.8,10.8h20.6c7.1,0,12.8,5.7,12.8,12.8v0c0,7.1-5.7,12.8-12.8,12.8h-16.1
		c-6.8,0-12.3,5.5-12.3,12.3s5.5,12.3,12.3,12.3h26.9c3.6,0,6.5,2.9,6.5,6.5c0,3.6-2.9,6.5-6.5,6.5h-35.5c-6.8,0-12.3,5.5-12.3,12.3
		s5.5,12.3,12.3,12.3h26.2c4,0,7.3,3.3,7.3,7.3s-3.3,7.3-7.3,7.3h-22.4c-5,0-9.1,4.1-9.1,9.1s4.1,9.1,9.1,9.1h5.5
		c6.1,0,11.1,5,11.1,11.1v0c0,6.1-5,11.1-11.1,11.1h-9.1c-6.4,0-11.6,5.2-11.6,11.6v0c0,6.4,5.2,11.6,11.6,11.6h21.6
		c6.4,0,11.6,5.2,11.6,11.6v0c0,6.4-5.2,11.6-11.6,11.6h-7.8c-7.1,0-12.8,5.7-12.8,12.8v0c0,7.1,5.7,12.8,12.8,12.8h24.4
		c3.6,0,6.5,2.9,6.5,6.5c0,3.6-2.9,6.5-6.5,6.5h-40.3c-5.8,0-10.6,4.7-10.6,10.6s4.7,10.6,10.6,10.6h11.6c3.8,0,7.1,1.5,9.6,4
		c0.8,0.8,1.4,1.6,2,2.6c0.8,1.3,1.4,2.8,1.7,4.3c0.2,0.9,0.3,1.8,0.3,2.7v0c0,0.2,0,0.5,0,0.7c-0.2,3-1.3,5.8-3.1,7.9
		c-0.3,0.3-0.6,0.7-0.9,1c-0.5,0.5-1,0.9-1.5,1.3c-0.3,0.3-0.7,0.5-1.1,0.7c-0.7,0.5-1.5,0.8-2.4,1.1c-1.5,0.5-3,0.8-4.7,0.8h-5.8
		c-5.1,0-9.3,4.2-9.3,9.3v0c0,5.1,4.2,9.3,9.3,9.3h20.1c4.6,0,8.3,3.7,8.3,8.3s-3.7,8.3-8.3,8.3h-9.1c-6.5,0-11.8,5.3-11.8,11.8v0
		c0,6.5,5.3,11.8,11.8,11.8h20.9c6.9,0,12.6,5.6,12.6,12.6v0c0,6.9-5.6,12.6-12.6,12.6h-37.7c-3.6,0-6.5,2.9-6.5,6.5
		c0,3.6,2.9,6.5,6.5,6.5H223c6.9,0,12.6,5.6,12.6,12.6v0c0,6.9-5.6,12.6-12.6,12.6h-22.9c-4.9,0-8.8,3.9-8.8,8.8
		c0,4.9,3.9,8.8,8.8,8.8h29.4c6.9,0,12.6,5.6,12.6,12.6v0c0,6.9-5.6,12.6-12.6,12.6h-14.8c-6.5,0-11.8,5.3-11.8,11.8
		s5.3,11.8,11.8,11.8h24.4c7.5,0,13.6,6.1,13.6,13.6v0c0,7.5-6.1,13.6-13.6,13.6h-20.1c-4.2,0-7.5,3.4-7.5,7.5
		c0,4.2,3.4,7.5,7.5,7.5h6.5c3.1,0,5.5,2.5,5.5,5.5s-2.5,5.5-5.5,5.5h-13.8c-6,0-10.8,4.8-10.8,10.8s4.8,10.8,10.8,10.8h20.6
		c7.1,0,12.8,5.7,12.8,12.8s-5.7,12.8-12.8,12.8h-16.1c-6.8,0-12.3,5.5-12.3,12.3v0c0,6.8,5.5,12.3,12.3,12.3h26.9
		c3.6,0,6.5,2.9,6.5,6.5c0,3.6-2.9,6.5-6.5,6.5h-35.5c-6.8,0-12.3,5.5-12.3,12.3v0c0,6.8,5.5,12.3,12.3,12.3h26.2
		c4,0,7.3,3.3,7.3,7.3c0,4-3.3,7.3-7.3,7.3h-22.4c-5,0-9.1,4.1-9.1,9.1v0c0,5,4.1,9.1,9.1,9.1h5.5c6.1,0,11.1,5,11.1,11.1
		c0,6.1-5,11.1-11.1,11.1h-9.1c-6.4,0-11.6,5.2-11.6,11.6c0,6.4,5.2,11.6,11.6,11.6h21.6c6.4,0,11.6,5.2,11.6,11.6
		c0,6.4-5.2,11.6-11.6,11.6h-7.8c-7.1,0-12.8,5.7-12.8,12.8c0,7.1,5.7,12.8,12.8,12.8h24.4c3.6,0,6.5,2.9,6.5,6.5
		c0,3.6-2.9,6.5-6.5,6.5h-40.3c-5.8,0-10.6,4.7-10.6,10.6c0,5.8,4.7,10.6,10.6,10.6h11.6c7.5,0,13.6,6.1,13.6,13.6
		c0,0.2,0,0.4,0,0.6h153V0z"/>
	<path class="st1" d="M217.4,1065.8h-11.6c-5.8,0-10.6-4.7-10.6-10.6c0-5.8,4.7-10.6,10.6-10.6h40.3c3.6,0,6.5-2.9,6.5-6.5
		c0-3.6-2.9-6.5-6.5-6.5h-24.4c-7.1,0-12.8-5.7-12.8-12.8c0-7.1,5.7-12.8,12.8-12.8h7.8c6.4,0,11.6-5.2,11.6-11.6
		c0-6.4-5.2-11.6-11.6-11.6h-21.6c-6.4,0-11.6-5.2-11.6-11.6c0-6.4,5.2-11.6,11.6-11.6h9.1c6.1,0,11.1-5,11.1-11.1
		c0-6.1-5-11.1-11.1-11.1h-5.5c-5,0-9.1-4.1-9.1-9.1v0c0-5,4.1-9.1,9.1-9.1h22.4c4,0,7.3-3.3,7.3-7.3c0-4-3.3-7.3-7.3-7.3h-26.2
		c-6.8,0-12.3-5.5-12.3-12.3v0c0-6.8,5.5-12.3,12.3-12.3h35.5c3.6,0,6.5-2.9,6.5-6.5c0-3.6-2.9-6.5-6.5-6.5h-26.9
		c-6.8,0-12.3-5.5-12.3-12.3v0c0-6.8,5.5-12.3,12.3-12.3h16.1c7.1,0,12.8-5.7,12.8-12.8s-5.7-12.8-12.8-12.8h-20.6
		c-6,0-10.8-4.8-10.8-10.8s4.8-10.8,10.8-10.8h13.8c3.1,0,5.5-2.5,5.5-5.5s-2.5-5.5-5.5-5.5h-6.5c-4.2,0-7.5-3.4-7.5-7.5
		c0-4.2,3.4-7.5,7.5-7.5h20.1c7.5,0,13.6-6.1,13.6-13.6v0c0-7.5-6.1-13.6-13.6-13.6h-24.4c-6.5,0-11.8-5.3-11.8-11.8
		s5.3-11.8,11.8-11.8h14.8c6.9,0,12.6-5.6,12.6-12.6v0c0-6.9-5.6-12.6-12.6-12.6h-29.4c-4.9,0-8.8-3.9-8.8-8.8
		c0-4.9,3.9-8.8,8.8-8.8H223c6.9,0,12.6-5.6,12.6-12.6v0c0-6.9-5.6-12.6-12.6-12.6h-17.1c-3.6,0-6.5-2.9-6.5-6.5
		c0-3.6,2.9-6.5,6.5-6.5h37.7c6.9,0,12.6-5.6,12.6-12.6v0c0-6.9-5.6-12.6-12.6-12.6h-20.9c-6.5,0-11.8-5.3-11.8-11.8v0
		c0-6.5,5.3-11.8,11.8-11.8h9.1c4.6,0,8.3-3.7,8.3-8.3s-3.7-8.3-8.3-8.3h-20.1c-5.1,0-9.3-4.2-9.3-9.3v0c0-5.1,4.2-9.3,9.3-9.3h5.8
		c1.6,0,3.2-0.3,4.7-0.8c0.8-0.3,1.6-0.7,2.4-1.1c0.4-0.2,0.7-0.5,1.1-0.7c0.5-0.4,1-0.8,1.5-1.3c0.3-0.3,0.6-0.6,0.9-1
		c1.8-2.2,2.9-4.9,3.1-7.9c0-0.2,0-0.5,0-0.7v0c0-0.9-0.1-1.9-0.3-2.7c-0.3-1.5-0.9-3-1.7-4.3c-0.6-0.9-1.2-1.8-2-2.6
		c-2.5-2.5-5.9-4-9.6-4h-11.6c-5.8,0-10.6-4.7-10.6-10.6s4.7-10.6,10.6-10.6h40.3c3.6,0,6.5-2.9,6.5-6.5c0-3.6-2.9-6.5-6.5-6.5
		h-24.4c-7.1,0-12.8-5.7-12.8-12.8v0c0-7.1,5.7-12.8,12.8-12.8h7.8c6.4,0,11.6-5.2,11.6-11.6v0c0-6.4-5.2-11.6-11.6-11.6h-21.6
		c-6.4,0-11.6-5.2-11.6-11.6v0c0-6.4,5.2-11.6,11.6-11.6h9.1c6.1,0,11.1-5,11.1-11.1v0c0-6.1-5-11.1-11.1-11.1h-5.5
		c-5,0-9.1-4.1-9.1-9.1s4.1-9.1,9.1-9.1h22.4c4,0,7.3-3.3,7.3-7.3s-3.3-7.3-7.3-7.3h-26.2c-6.8,0-12.3-5.5-12.3-12.3
		s5.5-12.3,12.3-12.3h35.5c3.6,0,6.5-2.9,6.5-6.5c0-3.6-2.9-6.5-6.5-6.5h-26.9c-6.8,0-12.3-5.5-12.3-12.3s5.5-12.3,12.3-12.3h16.1
		c7.1,0,12.8-5.7,12.8-12.8v0c0-7.1-5.7-12.8-12.8-12.8h-20.6c-6,0-10.8-4.8-10.8-10.8v0c0-6,4.8-10.8,10.8-10.8h13.8
		c3.1,0,5.5-2.5,5.5-5.5c0-3.1-2.5-5.5-5.5-5.5h-6.5c-4.2,0-7.5-3.4-7.5-7.5c0-4.2,3.4-7.5,7.5-7.5h20.1c7.5,0,13.6-6.1,13.6-13.6
		s-6.1-13.6-13.6-13.6h-24.4c-6.5,0-11.8-5.3-11.8-11.8v0c0-6.5,5.3-11.8,11.8-11.8h14.8c6.9,0,12.6-5.6,12.6-12.6
		c0-6.9-5.6-12.6-12.6-12.6h-29.4c-4.9,0-8.8-3.9-8.8-8.8v0c0-4.9,3.9-8.8,8.8-8.8H223c6.9,0,12.6-5.6,12.6-12.6
		c0-6.9-5.6-12.6-12.6-12.6h-17.1c-3.6,0-6.5-2.9-6.5-6.5c0-3.6,2.9-6.5,6.5-6.5h37.7c6.9,0,12.6-5.6,12.6-12.6
		c0-6.9-5.6-12.6-12.6-12.6h-20.9c-6.5,0-11.8-5.3-11.8-11.8s5.3-11.8,11.8-11.8h9.1c4.6,0,8.3-3.7,8.3-8.3v0c0-4.6-3.7-8.3-8.3-8.3
		h-20.1c-5.1,0-9.3-4.2-9.3-9.3c0-5.1,4.2-9.3,9.3-9.3h5.8c7.4,0,13.3-5.9,13.6-13.2h-91c0.2,7.3,6.2,13.2,13.6,13.2h11.6
		c5.8,0,10.6,4.7,10.6,10.6v0c0,5.8-4.7,10.6-10.6,10.6h-40.3c-3.6,0-6.5,2.9-6.5,6.5c0,3.6,2.9,6.5,6.5,6.5h24.4
		c7.1,0,12.8,5.7,12.8,12.8c0,7.1-5.7,12.8-12.8,12.8h-7.8c-6.4,0-11.6,5.2-11.6,11.6c0,6.4,5.2,11.6,11.6,11.6h21.6
		c6.4,0,11.6,5.2,11.6,11.6c0,6.4-5.2,11.6-11.6,11.6H154c-6.1,0-11.1,5-11.1,11.1c0,6.1,5,11.1,11.1,11.1h5.5c5,0,9.1,4.1,9.1,9.1
		v0c0,5-4.1,9.1-9.1,9.1h-22.4c-4,0-7.3,3.3-7.3,7.3c0,4,3.3,7.3,7.3,7.3h26.2c6.8,0,12.3,5.5,12.3,12.3v0c0,6.8-5.5,12.3-12.3,12.3
		h-35.5c-3.6,0-6.5,2.9-6.5,6.5c0,3.6,2.9,6.5,6.5,6.5h26.9c6.8,0,12.3,5.5,12.3,12.3v0c0,6.8-5.5,12.3-12.3,12.3h-16.1
		c-7.1,0-12.8,5.7-12.8,12.8s5.7,12.8,12.8,12.8h20.6c6,0,10.8,4.8,10.8,10.8s-4.8,10.8-10.8,10.8h-13.8c-3.1,0-5.5,2.5-5.5,5.5
		c0,3.1,2.5,5.5,5.5,5.5h6.5c4.2,0,7.5,3.4,7.5,7.5c0,4.2-3.4,7.5-7.5,7.5h-20.1c-7.5,0-13.6,6.1-13.6,13.6v0
		c0,7.5,6.1,13.6,13.6,13.6h24.4c6.5,0,11.8,5.3,11.8,11.8s-5.3,11.8-11.8,11.8h-14.8c-6.9,0-12.6,5.6-12.6,12.6v0
		c0,6.9,5.6,12.6,12.6,12.6h29.4c4.9,0,8.8,3.9,8.8,8.8s-3.9,8.8-8.8,8.8H148c-6.9,0-12.6,5.6-12.6,12.6v0c0,6.9,5.6,12.6,12.6,12.6
		h17.1c3.6,0,6.5,2.9,6.5,6.5c0,3.6-2.9,6.5-6.5,6.5h-37.7c-6.9,0-12.6,5.6-12.6,12.6v0c0,6.9,5.6,12.6,12.6,12.6h20.9
		c6.5,0,11.8,5.3,11.8,11.8v0c0,6.5-5.3,11.8-11.8,11.8h-9.1c-4.6,0-8.3,3.7-8.3,8.3s3.7,8.3,8.3,8.3h20.1c5.1,0,9.3,4.2,9.3,9.3
		c0,5.1-4.2,9.3-9.3,9.3h-5.8c-3.8,0-7.1,1.5-9.6,4c-0.8,0.8-1.4,1.6-2,2.6c-0.8,1.3-1.4,2.8-1.7,4.3c-0.2,0.9-0.3,1.8-0.3,2.7v0
		c0,0.2,0,0.5,0,0.7c0.2,3,1.3,5.8,3.1,7.9c0.3,0.3,0.6,0.7,0.9,1c0.5,0.5,1,0.9,1.5,1.3c0.3,0.3,0.7,0.5,1.1,0.7
		c0.7,0.5,1.5,0.8,2.4,1.1c1.5,0.5,3,0.8,4.7,0.8h11.6c5.8,0,10.6,4.7,10.6,10.6c0,5.8-4.7,10.6-10.6,10.6h-40.3
		c-3.6,0-6.5,2.9-6.5,6.5c0,3.6,2.9,6.5,6.5,6.5h24.4c7.1,0,12.8,5.7,12.8,12.8v0c0,7.1-5.7,12.8-12.8,12.8h-7.8
		c-6.4,0-11.6,5.2-11.6,11.6v0c0,6.4,5.2,11.6,11.6,11.6h21.6c6.4,0,11.6,5.2,11.6,11.6v0c0,6.4-5.2,11.6-11.6,11.6H154
		c-6.1,0-11.1,5-11.1,11.1v0c0,6.1,5,11.1,11.1,11.1h5.5c5,0,9.1,4.1,9.1,9.1s-4.1,9.1-9.1,9.1h-22.4c-4,0-7.3,3.3-7.3,7.3
		s3.3,7.3,7.3,7.3h26.2c6.8,0,12.3,5.5,12.3,12.3s-5.5,12.3-12.3,12.3h-35.5c-3.6,0-6.5,2.9-6.5,6.5c0,3.6,2.9,6.5,6.5,6.5h26.9
		c6.8,0,12.3,5.5,12.3,12.3s-5.5,12.3-12.3,12.3h-16.1c-7.1,0-12.8,5.7-12.8,12.8v0c0,7.1,5.7,12.8,12.8,12.8h20.6
		c6,0,10.8,4.8,10.8,10.8v0c0,6-4.8,10.8-10.8,10.8h-13.8c-3.1,0-5.5,2.5-5.5,5.5s2.5,5.5,5.5,5.5h6.5c4.2,0,7.5,3.4,7.5,7.5
		c0,4.2-3.4,7.5-7.5,7.5h-20.1c-7.5,0-13.6,6.1-13.6,13.6s6.1,13.6,13.6,13.6h24.4c6.5,0,11.8,5.3,11.8,11.8v0
		c0,6.5-5.3,11.8-11.8,11.8h-14.8c-6.9,0-12.6,5.6-12.6,12.6s5.6,12.6,12.6,12.6h29.4c4.9,0,8.8,3.9,8.8,8.8v0
		c0,4.9-3.9,8.8-8.8,8.8H148c-6.9,0-12.6,5.6-12.6,12.6s5.6,12.6,12.6,12.6h17.1c3.6,0,6.5,2.9,6.5,6.5c0,3.6-2.9,6.5-6.5,6.5h-37.7
		c-6.9,0-12.6,5.6-12.6,12.6s5.6,12.6,12.6,12.6h20.9c6.5,0,11.8,5.3,11.8,11.8s-5.3,11.8-11.8,11.8h-9.1c-4.6,0-8.3,3.7-8.3,8.3
		l0,0c0,4.6,3.7,8.3,8.3,8.3h20.1c5.1,0,9.3,4.2,9.3,9.3s-4.2,9.3-9.3,9.3h-5.8c-7.5,0-13.6,6.1-13.6,13.6c0,0.2,0,0.4,0,0.6h91
		c0-0.2,0-0.4,0-0.6C231,1071.9,224.9,1065.8,217.4,1065.8z"/>
</g>
<g>
	<path class="st0" d="M175.3,302.5h-16.1c-6.8,0-12.3,5.5-12.3,12.3s5.5,12.3,12.3,12.3h24.7h2.2h24.7c6.8,0,12.3-5.5,12.3-12.3
		s-5.5-12.3-12.3-12.3h-16.1c-3.9,0-7.4-1.7-9.7-4.5C182.6,300.8,179.2,302.5,175.3,302.5z"/>
	<path class="st0" d="M175.3,842.4h-16.1c-6.8,0-12.3,5.5-12.3,12.3v0c0,6.8,5.5,12.3,12.3,12.3h24.7h2.2h24.7
		c6.8,0,12.3-5.5,12.3-12.3v0c0-6.8-5.5-12.3-12.3-12.3h-16.1c-3.9,0-7.4-1.7-9.7-4.5C182.6,840.7,179.2,842.4,175.3,842.4z"/>
	<path class="st0" d="M161.9,229c-4.2,0-7.5,3.4-7.5,7.5c0,4.2,3.4,7.5,7.5,7.5h6.5c3.1,0,5.5,2.5,5.5,5.5c0,3.1-2.5,5.5-5.5,5.5
		h-13.8c-6,0-10.8,4.8-10.8,10.8v0c0,6,4.8,10.8,10.8,10.8h20.6c3.9,0,7.4,1.7,9.7,4.5c2.4-2.7,5.8-4.5,9.7-4.5h20.6
		c6,0,10.8-4.8,10.8-10.8v0c0-6-4.8-10.8-10.8-10.8h-13.8c-3.1,0-5.5-2.5-5.5-5.5c0-3.1,2.5-5.5,5.5-5.5h6.5c4.2,0,7.5-3.4,7.5-7.5
		c0-4.2-3.4-7.5-7.5-7.5h-20.1c-1,0-2-0.1-2.9-0.3c-0.9,0.2-1.9,0.3-2.9,0.3H161.9z"/>
	<path class="st0" d="M172.5,178.2h-14.8c-6.5,0-11.8,5.3-11.8,11.8v0c0,6.5,5.3,11.8,11.8,11.8h24.4c1,0,2,0.1,2.9,0.3
		c0.9-0.2,1.9-0.3,2.9-0.3h24.4c6.5,0,11.8-5.3,11.8-11.8v0c0-6.5-5.3-11.8-11.8-11.8h-14.8c-6.4,0-11.7-4.8-12.5-11
		C184.2,173.4,178.9,178.2,172.5,178.2z"/>
	<path class="st0" d="M148.9,637.1c-3.6,0-6.5,2.9-6.5,6.5c0,3.6,2.9,6.5,6.5,6.5H166c6.9,0,12.6,5.6,12.6,12.6v0
		c0,6.9-5.6,12.6-12.6,12.6h-22.9c-4.9,0-8.8,3.9-8.8,8.8c0,4.9,3.9,8.8,8.8,8.8h29.4c6.4,0,11.7,4.8,12.5,11
		c0.8-6.2,6.1-11,12.5-11h29.4c4.9,0,8.8-3.9,8.8-8.8c0-4.9-3.9-8.8-8.8-8.8H204c-6.9,0-12.6-5.6-12.6-12.6v0
		c0-6.9,5.6-12.6,12.6-12.6h17.1c3.6,0,6.5-2.9,6.5-6.5c0-3.6-2.9-6.5-6.5-6.5h-34.5h-3.2H148.9z"/>
	<path class="st0" d="M161.9,769c-4.2,0-7.5,3.4-7.5,7.5c0,4.2,3.4,7.5,7.5,7.5h6.5c3.1,0,5.5,2.5,5.5,5.5s-2.5,5.5-5.5,5.5h-13.8
		c-6,0-10.8,4.8-10.8,10.8s4.8,10.8,10.8,10.8h20.6c3.9,0,7.4,1.7,9.7,4.5c2.4-2.7,5.8-4.5,9.7-4.5h20.6c6,0,10.8-4.8,10.8-10.8
		s-4.8-10.8-10.8-10.8h-13.8c-3.1,0-5.5-2.5-5.5-5.5s2.5-5.5,5.5-5.5h6.5c4.2,0,7.5-3.4,7.5-7.5c0-4.2-3.4-7.5-7.5-7.5h-20.1
		c-1,0-2-0.1-2.9-0.3c-0.9,0.2-1.9,0.3-2.9,0.3H161.9z"/>
	<path class="st0" d="M150.6,340.2c-6.8,0-12.3,5.5-12.3,12.3s5.5,12.3,12.3,12.3h26.2c4,0,7.3,3.3,7.3,7.3s-3.3,7.3-7.3,7.3h-22.4
		c-5,0-9.1,4.1-9.1,9.1s4.1,9.1,9.1,9.1h5.5c6.1,0,11.1,5,11.1,11.1v0c0,6.1-5,11.1-11.1,11.1h-9.1c-6.4,0-11.6,5.2-11.6,11.6v0
		c0,6.4,5.2,11.6,11.6,11.6h21.6c6.4,0,11.6,5.2,11.6,11.6v0c0,6.4-5.2,11.6-11.6,11.6h-7.8c-7.1,0-12.8,5.7-12.8,12.8v0
		c0,7.1,5.7,12.8,12.8,12.8h16.1h8.3h16.1c7.1,0,12.8-5.7,12.8-12.8v0c0-7.1-5.7-12.8-12.8-12.8h-7.8c-6.4,0-11.6-5.2-11.6-11.6v0
		c0-6.4,5.2-11.6,11.6-11.6h21.6c6.4,0,11.6-5.2,11.6-11.6v0c0-6.4-5.2-11.6-11.6-11.6H210c-6.1,0-11.1-5-11.1-11.1v0
		c0-6.1,5-11.1,11.1-11.1h5.5c5,0,9.1-4.1,9.1-9.1s-4.1-9.1-9.1-9.1h-22.4c-4,0-7.3-3.3-7.3-7.3s3.3-7.3,7.3-7.3h26.2
		c6.8,0,12.3-5.5,12.3-12.3s-5.5-12.3-12.3-12.3h-33.2h-2.2H150.6z"/>
	<path class="st0" d="M148.9,504.8c-5.8,0-10.6,4.7-10.6,10.6s4.7,10.6,10.6,10.6h11.6c3.8,0,7.1,1.5,9.6,4c0.8,0.8,1.4,1.6,2,2.6
		c0.8,1.3,1.4,2.8,1.7,4.3c0.2,0.9,0.3,1.8,0.3,2.7v0c0,0.2,0,0.5,0,0.7c-0.2,3-1.3,5.8-3.1,7.9c-0.3,0.3-0.6,0.7-0.9,1
		c-0.5,0.5-1,0.9-1.5,1.3c-0.3,0.3-0.7,0.5-1.1,0.7c-0.7,0.5-1.5,0.8-2.4,1.1c-1.5,0.5-3,0.8-4.7,0.8h-5.8c-5.1,0-9.3,4.2-9.3,9.3v0
		c0,5.1,4.2,9.3,9.3,9.3h20.1c4.6,0,8.3,3.7,8.3,8.3s-3.7,8.3-8.3,8.3h-9.1c-6.5,0-11.8,5.3-11.8,11.8v0c0,6.5,5.3,11.8,11.8,11.8
		h17.6h3.2h17.6c6.5,0,11.8-5.3,11.8-11.8v0c0-6.5-5.3-11.8-11.8-11.8h-9.1c-4.6,0-8.3-3.7-8.3-8.3s3.7-8.3,8.3-8.3h20.1
		c5.1,0,9.3-4.2,9.3-9.3v0c0-5.1-4.2-9.3-9.3-9.3h-5.8c-1.6,0-3.2-0.3-4.7-0.8c-0.8-0.3-1.6-0.7-2.4-1.1c-0.4-0.2-0.7-0.5-1.1-0.7
		c-0.5-0.4-1-0.8-1.5-1.3c-0.3-0.3-0.6-0.6-0.9-1c-1.8-2.2-2.9-4.9-3.1-7.9c0-0.2,0-0.5,0-0.7v0c0-0.9,0.1-1.9,0.3-2.7
		c0.3-1.5,0.9-3,1.7-4.3c0.6-0.9,1.2-1.8,2-2.6c2.5-2.5,5.9-4,9.6-4h11.6c5.8,0,10.6-4.7,10.6-10.6s-4.7-10.6-10.6-10.6h-32h-8.3
		H148.9z"/>
	<path class="st0" d="M148.9,97.2c-3.6,0-6.5,2.9-6.5,6.5c0,3.6,2.9,6.5,6.5,6.5H166c6.9,0,12.6,5.6,12.6,12.6
		c0,6.9-5.6,12.6-12.6,12.6h-22.9c-4.9,0-8.8,3.9-8.8,8.8v0c0,4.9,3.9,8.8,8.8,8.8h29.4c6.4,0,11.7,4.8,12.5,11
		c0.8-6.2,6.1-11,12.5-11h29.4c4.9,0,8.8-3.9,8.8-8.8v0c0-4.9-3.9-8.8-8.8-8.8H204c-6.9,0-12.6-5.6-12.6-12.6
		c0-6.9,5.6-12.6,12.6-12.6h17.1c3.6,0,6.5-2.9,6.5-6.5c0-3.6-2.9-6.5-6.5-6.5h-34.5h-3.2H148.9z"/>
	<path class="st0" d="M287,0c-0.2,7.3-6.2,13.2-13.6,13.2h-11.6c-5.8,0-10.6,4.7-10.6,10.6v0c0,5.8,4.7,10.6,10.6,10.6h40.3
		c3.6,0,6.5,2.9,6.5,6.5c0,3.6-2.9,6.5-6.5,6.5h-24.4c-7.1,0-12.8,5.7-12.8,12.8c0,7.1,5.7,12.8,12.8,12.8h7.8
		c6.4,0,11.6,5.2,11.6,11.6c0,6.4-5.2,11.6-11.6,11.6h-21.6c-6.4,0-11.6,5.2-11.6,11.6c0,6.4,5.2,11.6,11.6,11.6h9.1
		c6.1,0,11.1,5,11.1,11.1c0,6.1-5,11.1-11.1,11.1h-5.5c-5,0-9.1,4.1-9.1,9.1v0c0,5,4.1,9.1,9.1,9.1h22.4c4,0,7.3,3.3,7.3,7.3
		c0,4-3.3,7.3-7.3,7.3h-26.2c-6.8,0-12.3,5.5-12.3,12.3v0c0,6.8,5.5,12.3,12.3,12.3h35.5c3.6,0,6.5,2.9,6.5,6.5
		c0,3.6-2.9,6.5-6.5,6.5h-26.9c-6.8,0-12.3,5.5-12.3,12.3v0c0,6.8,5.5,12.3,12.3,12.3h16.1c7.1,0,12.8,5.7,12.8,12.8
		s-5.7,12.8-12.8,12.8h-20.6c-6,0-10.8,4.8-10.8,10.8s4.8,10.8,10.8,10.8h13.8c3.1,0,5.5,2.5,5.5,5.5c0,3.1-2.5,5.5-5.5,5.5h-6.5
		c-4.2,0-7.5,3.4-7.5,7.5c0,4.2,3.4,7.5,7.5,7.5h20.1c7.5,0,13.6,6.1,13.6,13.6v0c0,7.5-6.1,13.6-13.6,13.6h-24.4
		c-6.5,0-11.8,5.3-11.8,11.8s5.3,11.8,11.8,11.8h14.8c6.9,0,12.6,5.6,12.6,12.6v0c0,6.9-5.6,12.6-12.6,12.6h-29.4
		c-4.9,0-8.8,3.9-8.8,8.8s3.9,8.8,8.8,8.8H279c6.9,0,12.6,5.6,12.6,12.6v0c0,6.9-5.6,12.6-12.6,12.6h-17.1c-3.6,0-6.5,2.9-6.5,6.5
		c0,3.6,2.9,6.5,6.5,6.5h37.7c6.9,0,12.6,5.6,12.6,12.6v0c0,6.9-5.6,12.6-12.6,12.6h-20.9c-6.5,0-11.8,5.3-11.8,11.8v0
		c0,6.5,5.3,11.8,11.8,11.8h9.1c4.6,0,8.3,3.7,8.3,8.3s-3.7,8.3-8.3,8.3h-20.1c-5.1,0-9.3,4.2-9.3,9.3c0,5.1,4.2,9.3,9.3,9.3h5.8
		c3.8,0,7.1,1.5,9.6,4c0.8,0.8,1.4,1.6,2,2.6c0.8,1.3,1.4,2.8,1.7,4.3c0.2,0.9,0.3,1.8,0.3,2.7v0c0,0.2,0,0.5,0,0.7
		c-0.2,3-1.3,5.8-3.1,7.9c-0.3,0.3-0.6,0.7-0.9,1c-0.5,0.5-1,0.9-1.5,1.3c-0.3,0.3-0.7,0.5-1.1,0.7c-0.7,0.5-1.5,0.8-2.4,1.1
		c-1.5,0.5-3,0.8-4.7,0.8h-11.6c-5.8,0-10.6,4.7-10.6,10.6c0,5.8,4.7,10.6,10.6,10.6h40.3c3.6,0,6.5,2.9,6.5,6.5
		c0,3.6-2.9,6.5-6.5,6.5h-24.4c-7.1,0-12.8,5.7-12.8,12.8v0c0,7.1,5.7,12.8,12.8,12.8h7.8c6.4,0,11.6,5.2,11.6,11.6v0
		c0,6.4-5.2,11.6-11.6,11.6h-21.6c-6.4,0-11.6,5.2-11.6,11.6v0c0,6.4,5.2,11.6,11.6,11.6h9.1c6.1,0,11.1,5,11.1,11.1v0
		c0,6.1-5,11.1-11.1,11.1h-5.5c-5,0-9.1,4.1-9.1,9.1s4.1,9.1,9.1,9.1h22.4c4,0,7.3,3.3,7.3,7.3s-3.3,7.3-7.3,7.3h-26.2
		c-6.8,0-12.3,5.5-12.3,12.3s5.5,12.3,12.3,12.3h35.5c3.6,0,6.5,2.9,6.5,6.5c0,3.6-2.9,6.5-6.5,6.5h-26.9c-6.8,0-12.3,5.5-12.3,12.3
		s5.5,12.3,12.3,12.3h16.1c7.1,0,12.8,5.7,12.8,12.8v0c0,7.1-5.7,12.8-12.8,12.8h-20.6c-6,0-10.8,4.8-10.8,10.8v0
		c0,6,4.8,10.8,10.8,10.8h13.8c3.1,0,5.5,2.5,5.5,5.5s-2.5,5.5-5.5,5.5h-6.5c-4.2,0-7.5,3.4-7.5,7.5c0,4.2,3.4,7.5,7.5,7.5h20.1
		c7.5,0,13.6,6.1,13.6,13.6s-6.1,13.6-13.6,13.6h-24.4c-6.5,0-11.8,5.3-11.8,11.8v0c0,6.5,5.3,11.8,11.8,11.8h14.8
		c6.9,0,12.6,5.6,12.6,12.6s-5.6,12.6-12.6,12.6h-29.4c-4.9,0-8.8,3.9-8.8,8.8v0c0,4.9,3.9,8.8,8.8,8.8H279
		c6.9,0,12.6,5.6,12.6,12.6s-5.6,12.6-12.6,12.6h-17.1c-3.6,0-6.5,2.9-6.5,6.5c0,3.6,2.9,6.5,6.5,6.5h37.7c6.9,0,12.6,5.6,12.6,12.6
		s-5.6,12.6-12.6,12.6h-20.9c-6.5,0-11.8,5.3-11.8,11.8s5.3,11.8,11.8,11.8h9.1c4.6,0,8.3,3.7,8.3,8.3c0,4.6-3.7,8.3-8.3,8.3h-20.1
		c-5.1,0-9.3,4.2-9.3,9.3s4.2,9.3,9.3,9.3h5.8c7.5,0,13.6,6.1,13.6,13.6c0,0.2,0,0.4,0,0.6h40V0H287z"/>
	<path class="st0" d="M209.5,1065.8h11.6c5.8,0,10.6-4.7,10.6-10.6c0-5.8-4.7-10.6-10.6-10.6h-32h-8.3h-32
		c-5.8,0-10.6,4.7-10.6,10.6c0,5.8,4.7,10.6,10.6,10.6h11.6c7.5,0,13.6,6.1,13.6,13.6c0,0.2,0,0.4,0,0.6h22c0-0.2,0-0.4,0-0.6
		C195.9,1071.9,202,1065.8,209.5,1065.8z"/>
	<path class="st0" d="M160.4,13.2h-5.8c-5.1,0-9.3,4.2-9.3,9.3c0,5.1,4.2,9.3,9.3,9.3h20.1c4.6,0,8.3,3.7,8.3,8.3v0
		c0,4.6-3.7,8.3-8.3,8.3h-9.1c-6.5,0-11.8,5.3-11.8,11.8S159.2,72,165.7,72h17.6h3.2h17.6c6.5,0,11.8-5.3,11.8-11.8
		s-5.3-11.8-11.8-11.8h-9.1c-4.6,0-8.3-3.7-8.3-8.3v0c0-4.6,3.7-8.3,8.3-8.3h20.1c5.1,0,9.3-4.2,9.3-9.3c0-5.1-4.2-9.3-9.3-9.3h-5.8
		c-7.4,0-13.3-5.9-13.6-13.2h-22C173.8,7.3,167.8,13.2,160.4,13.2z"/>
	<path class="st0" d="M172.5,718.1h-14.8c-6.5,0-11.8,5.3-11.8,11.8s5.3,11.8,11.8,11.8h24.4c1,0,2,0.1,2.9,0.3
		c0.9-0.2,1.9-0.3,2.9-0.3h24.4c6.5,0,11.8-5.3,11.8-11.8s-5.3-11.8-11.8-11.8h-14.8c-6.4,0-11.7-4.8-12.5-11
		C184.2,713.3,178.9,718.1,172.5,718.1z"/>
	<path class="st0" d="M150.6,880.2c-6.8,0-12.3,5.5-12.3,12.3v0c0,6.8,5.5,12.3,12.3,12.3h26.2c4,0,7.3,3.3,7.3,7.3
		c0,4-3.3,7.3-7.3,7.3h-22.4c-5,0-9.1,4.1-9.1,9.1v0c0,5,4.1,9.1,9.1,9.1h5.5c6.1,0,11.1,5,11.1,11.1c0,6.1-5,11.1-11.1,11.1h-9.1
		c-6.4,0-11.6,5.2-11.6,11.6c0,6.4,5.2,11.6,11.6,11.6h21.6c6.4,0,11.6,5.2,11.6,11.6c0,6.4-5.2,11.6-11.6,11.6h-7.8
		c-7.1,0-12.8,5.7-12.8,12.8c0,7.1,5.7,12.8,12.8,12.8h16.1h8.3h16.1c7.1,0,12.8-5.7,12.8-12.8c0-7.1-5.7-12.8-12.8-12.8h-7.8
		c-6.4,0-11.6-5.2-11.6-11.6c0-6.4,5.2-11.6,11.6-11.6h21.6c6.4,0,11.6-5.2,11.6-11.6c0-6.4-5.2-11.6-11.6-11.6H210
		c-6.1,0-11.1-5-11.1-11.1c0-6.1,5-11.1,11.1-11.1h5.5c5,0,9.1-4.1,9.1-9.1v0c0-5-4.1-9.1-9.1-9.1h-22.4c-4,0-7.3-3.3-7.3-7.3
		c0-4,3.3-7.3,7.3-7.3h26.2c6.8,0,12.3-5.5,12.3-12.3v0c0-6.8-5.5-12.3-12.3-12.3h-33.2h-2.2H150.6z"/>
	<path class="st1" d="M160.4,1065.8h-11.6c-5.8,0-10.6-4.7-10.6-10.6c0-5.8,4.7-10.6,10.6-10.6h32c-3.6,0-6.5-2.9-6.5-6.5
		c0-3.6,2.9-6.5,6.5-6.5h-16.1c-7.1,0-12.8-5.7-12.8-12.8c0-7.1,5.7-12.8,12.8-12.8h7.8c6.4,0,11.6-5.2,11.6-11.6
		c0-6.4-5.2-11.6-11.6-11.6h-21.6c-6.4,0-11.6-5.2-11.6-11.6c0-6.4,5.2-11.6,11.6-11.6h9.1c6.1,0,11.1-5,11.1-11.1
		c0-6.1-5-11.1-11.1-11.1h-5.5c-5,0-9.1-4.1-9.1-9.1v0c0-5,4.1-9.1,9.1-9.1h22.4c4,0,7.3-3.3,7.3-7.3c0-4-3.3-7.3-7.3-7.3h-26.2
		c-6.8,0-12.3-5.5-12.3-12.3v0c0-6.8,5.5-12.3,12.3-12.3h33.2c-3.6,0-6.5-2.9-6.5-6.5c0-3.6,2.9-6.5,6.5-6.5h-24.7
		c-6.8,0-12.3-5.5-12.3-12.3v0c0-6.8,5.5-12.3,12.3-12.3h16.1c3.9,0,7.4-1.7,9.7-4.5c-1.9-2.2-3.1-5.2-3.1-8.4s1.2-6.1,3.1-8.4
		c-2.4-2.7-5.8-4.5-9.7-4.5h-20.6c-6,0-10.8-4.8-10.8-10.8s4.8-10.8,10.8-10.8h13.8c3.1,0,5.5-2.5,5.5-5.5s-2.5-5.5-5.5-5.5h-6.5
		c-4.2,0-7.5-3.4-7.5-7.5c0-4.2,3.4-7.5,7.5-7.5h20.1c1,0,2-0.1,2.9-0.3c-6.1-1.3-10.7-6.8-10.7-13.3v0c0-6.5,4.6-11.9,10.7-13.3
		c-0.9-0.2-1.9-0.3-2.9-0.3h-24.4c-6.5,0-11.8-5.3-11.8-11.8s5.3-11.8,11.8-11.8h14.8c6.4,0,11.7-4.8,12.5-11
		c-0.1-0.5-0.1-1-0.1-1.6v0c0-0.5,0-1.1,0.1-1.6c-0.8-6.2-6.1-11-12.5-11h-29.4c-4.9,0-8.8-3.9-8.8-8.8c0-4.9,3.9-8.8,8.8-8.8H166
		c6.9,0,12.6-5.6,12.6-12.6v0c0-6.9-5.6-12.6-12.6-12.6h-17.1c-3.6,0-6.5-2.9-6.5-6.5c0-3.6,2.9-6.5,6.5-6.5h34.5
		c-6.9,0-12.6-5.6-12.6-12.6v0c0-6.9,5.6-12.6,12.6-12.6h-17.6c-6.5,0-11.8-5.3-11.8-11.8v0c0-6.5,5.3-11.8,11.8-11.8h9.1
		c4.6,0,8.3-3.7,8.3-8.3s-3.7-8.3-8.3-8.3h-20.1c-5.1,0-9.3-4.2-9.3-9.3v0c0-5.1,4.2-9.3,9.3-9.3h5.8c1.6,0,3.2-0.3,4.7-0.8
		c0.8-0.3,1.6-0.7,2.4-1.1c0.4-0.2,0.7-0.5,1.1-0.7c0.5-0.4,1-0.8,1.5-1.3c0.3-0.3,0.6-0.6,0.9-1c1.8-2.2,2.9-4.9,3.1-7.9
		c0-0.2,0-0.5,0-0.7v0c0-0.9-0.1-1.9-0.3-2.7c-0.3-1.5-0.9-3-1.7-4.3c-0.6-0.9-1.2-1.8-2-2.6c-2.5-2.5-5.9-4-9.6-4h-11.6
		c-5.8,0-10.6-4.7-10.6-10.6s4.7-10.6,10.6-10.6h32c-3.6,0-6.5-2.9-6.5-6.5c0-3.6,2.9-6.5,6.5-6.5h-16.1c-7.1,0-12.8-5.7-12.8-12.8
		v0c0-7.1,5.7-12.8,12.8-12.8h7.8c6.4,0,11.6-5.2,11.6-11.6v0c0-6.4-5.2-11.6-11.6-11.6h-21.6c-6.4,0-11.6-5.2-11.6-11.6v0
		c0-6.4,5.2-11.6,11.6-11.6h9.1c6.1,0,11.1-5,11.1-11.1v0c0-6.1-5-11.1-11.1-11.1h-5.5c-5,0-9.1-4.1-9.1-9.1s4.1-9.1,9.1-9.1h22.4
		c4,0,7.3-3.3,7.3-7.3s-3.3-7.3-7.3-7.3h-26.2c-6.8,0-12.3-5.5-12.3-12.3s5.5-12.3,12.3-12.3h33.2c-3.6,0-6.5-2.9-6.5-6.5
		c0-3.6,2.9-6.5,6.5-6.5h-24.7c-6.8,0-12.3-5.5-12.3-12.3s5.5-12.3,12.3-12.3h16.1c3.9,0,7.4-1.7,9.7-4.5c-1.9-2.2-3.1-5.2-3.1-8.4
		v0c0-3.2,1.2-6.1,3.1-8.4c-2.4-2.7-5.8-4.5-9.7-4.5h-20.6c-6,0-10.8-4.8-10.8-10.8v0c0-6,4.8-10.8,10.8-10.8h13.8
		c3.1,0,5.5-2.5,5.5-5.5c0-3.1-2.5-5.5-5.5-5.5h-6.5c-4.2,0-7.5-3.4-7.5-7.5c0-4.2,3.4-7.5,7.5-7.5h20.1c1,0,2-0.1,2.9-0.3
		c-6.1-1.3-10.7-6.8-10.7-13.3s4.6-11.9,10.7-13.3c-0.9-0.2-1.9-0.3-2.9-0.3h-24.4c-6.5,0-11.8-5.3-11.8-11.8v0
		c0-6.5,5.3-11.8,11.8-11.8h14.8c6.4,0,11.7-4.8,12.5-11c-0.1-0.5-0.1-1-0.1-1.6s0-1.1,0.1-1.6c-0.8-6.2-6.1-11-12.5-11h-29.4
		c-4.9,0-8.8-3.9-8.8-8.8v0c0-4.9,3.9-8.8,8.8-8.8H166c6.9,0,12.6-5.6,12.6-12.6c0-6.9-5.6-12.6-12.6-12.6h-17.1
		c-3.6,0-6.5-2.9-6.5-6.5c0-3.6,2.9-6.5,6.5-6.5h34.5c-6.9,0-12.6-5.6-12.6-12.6c0-6.9,5.6-12.6,12.6-12.6h-17.6
		c-6.5,0-11.8-5.3-11.8-11.8s5.3-11.8,11.8-11.8h9.1c4.6,0,8.3-3.7,8.3-8.3v0c0-4.6-3.7-8.3-8.3-8.3h-20.1c-5.1,0-9.3-4.2-9.3-9.3
		c0-5.1,4.2-9.3,9.3-9.3h5.8c7.4,0,13.3-5.9,13.6-13.2H83c0.2,7.3,6.2,13.2,13.6,13.2h11.6c5.8,0,10.6,4.7,10.6,10.6v0
		c0,5.8-4.7,10.6-10.6,10.6H67.9c-3.6,0-6.5,2.9-6.5,6.5c0,3.6,2.9,6.5,6.5,6.5h24.4c7.1,0,12.8,5.7,12.8,12.8
		c0,7.1-5.7,12.8-12.8,12.8h-7.8c-6.4,0-11.6,5.2-11.6,11.6c0,6.4,5.2,11.6,11.6,11.6h21.6c6.4,0,11.6,5.2,11.6,11.6
		c0,6.4-5.2,11.6-11.6,11.6H97c-6.1,0-11.1,5-11.1,11.1c0,6.1,5,11.1,11.1,11.1h5.5c5,0,9.1,4.1,9.1,9.1v0c0,5-4.1,9.1-9.1,9.1H80.2
		c-4,0-7.3,3.3-7.3,7.3c0,4,3.3,7.3,7.3,7.3h26.2c6.8,0,12.3,5.5,12.3,12.3v0c0,6.8-5.5,12.3-12.3,12.3H70.9c-3.6,0-6.5,2.9-6.5,6.5
		c0,3.6,2.9,6.5,6.5,6.5h26.9c6.8,0,12.3,5.5,12.3,12.3v0c0,6.8-5.5,12.3-12.3,12.3H81.7c-7.1,0-12.8,5.7-12.8,12.8
		s5.7,12.8,12.8,12.8h20.6c6,0,10.8,4.8,10.8,10.8s-4.8,10.8-10.8,10.8H88.5c-3.1,0-5.5,2.5-5.5,5.5c0,3.1,2.5,5.5,5.5,5.5H95
		c4.2,0,7.5,3.4,7.5,7.5c0,4.2-3.4,7.5-7.5,7.5H74.9c-7.5,0-13.6,6.1-13.6,13.6v0c0,7.5,6.1,13.6,13.6,13.6h24.4
		c6.5,0,11.8,5.3,11.8,11.8s-5.3,11.8-11.8,11.8H84.5c-6.9,0-12.6,5.6-12.6,12.6v0c0,6.9,5.6,12.6,12.6,12.6h29.4
		c4.9,0,8.8,3.9,8.8,8.8s-3.9,8.8-8.8,8.8H91c-6.9,0-12.6,5.6-12.6,12.6v0c0,6.9,5.6,12.6,12.6,12.6h17.1c3.6,0,6.5,2.9,6.5,6.5
		c0,3.6-2.9,6.5-6.5,6.5H70.4c-6.9,0-12.6,5.6-12.6,12.6v0c0,6.9,5.6,12.6,12.6,12.6h20.9c6.5,0,11.8,5.3,11.8,11.8v0
		c0,6.5-5.3,11.8-11.8,11.8h-9.1c-4.6,0-8.3,3.7-8.3,8.3s3.7,8.3,8.3,8.3h20.1c5.1,0,9.3,4.2,9.3,9.3c0,5.1-4.2,9.3-9.3,9.3h-5.8
		c-3.8,0-7.1,1.5-9.6,4c-0.8,0.8-1.4,1.6-2,2.6c-0.8,1.3-1.4,2.8-1.7,4.3c-0.2,0.9-0.3,1.8-0.3,2.7v0c0,0.2,0,0.5,0,0.7
		c0.2,3,1.3,5.8,3.1,7.9c0.3,0.3,0.6,0.7,0.9,1c0.5,0.5,1,0.9,1.5,1.3c0.3,0.3,0.7,0.5,1.1,0.7c0.7,0.5,1.5,0.8,2.4,1.1
		c1.5,0.5,3,0.8,4.7,0.8h11.6c5.8,0,10.6,4.7,10.6,10.6c0,5.8-4.7,10.6-10.6,10.6H67.9c-3.6,0-6.5,2.9-6.5,6.5
		c0,3.6,2.9,6.5,6.5,6.5h24.4c7.1,0,12.8,5.7,12.8,12.8v0c0,7.1-5.7,12.8-12.8,12.8h-7.8c-6.4,0-11.6,5.2-11.6,11.6v0
		c0,6.4,5.2,11.6,11.6,11.6h21.6c6.4,0,11.6,5.2,11.6,11.6v0c0,6.4-5.2,11.6-11.6,11.6H97c-6.1,0-11.1,5-11.1,11.1v0
		c0,6.1,5,11.1,11.1,11.1h5.5c5,0,9.1,4.1,9.1,9.1s-4.1,9.1-9.1,9.1H80.2c-4,0-7.3,3.3-7.3,7.3s3.3,7.3,7.3,7.3h26.2
		c6.8,0,12.3,5.5,12.3,12.3s-5.5,12.3-12.3,12.3H70.9c-3.6,0-6.5,2.9-6.5,6.5c0,3.6,2.9,6.5,6.5,6.5h26.9c6.8,0,12.3,5.5,12.3,12.3
		s-5.5,12.3-12.3,12.3H81.7c-7.1,0-12.8,5.7-12.8,12.8v0c0,7.1,5.7,12.8,12.8,12.8h20.6c6,0,10.8,4.8,10.8,10.8v0
		c0,6-4.8,10.8-10.8,10.8H88.5c-3.1,0-5.5,2.5-5.5,5.5s2.5,5.5,5.5,5.5H95c4.2,0,7.5,3.4,7.5,7.5c0,4.2-3.4,7.5-7.5,7.5H74.9
		c-7.5,0-13.6,6.1-13.6,13.6s6.1,13.6,13.6,13.6h24.4c6.5,0,11.8,5.3,11.8,11.8v0c0,6.5-5.3,11.8-11.8,11.8H84.5
		c-6.9,0-12.6,5.6-12.6,12.6s5.6,12.6,12.6,12.6h29.4c4.9,0,8.8,3.9,8.8,8.8v0c0,4.9-3.9,8.8-8.8,8.8H91c-6.9,0-12.6,5.6-12.6,12.6
		s5.6,12.6,12.6,12.6h17.1c3.6,0,6.5,2.9,6.5,6.5c0,3.6-2.9,6.5-6.5,6.5H70.4c-6.9,0-12.6,5.6-12.6,12.6s5.6,12.6,12.6,12.6h20.9
		c6.5,0,11.8,5.3,11.8,11.8s-5.3,11.8-11.8,11.8h-9.1c-4.6,0-8.3,3.7-8.3,8.3c0,4.6,3.7,8.3,8.3,8.3h20.1c5.1,0,9.3,4.2,9.3,9.3
		s-4.2,9.3-9.3,9.3h-5.8c-7.5,0-13.6,6.1-13.6,13.6c0,0.2,0,0.4,0,0.6h91c0-0.2,0-0.4,0-0.6C174,1071.9,167.9,1065.8,160.4,1065.8z"
		/>
	<path class="st1" d="M273.4,1065.8h-5.8c-5.1,0-9.3-4.2-9.3-9.3s4.2-9.3,9.3-9.3h20.1c4.6,0,8.3-3.7,8.3-8.3c0-4.6-3.7-8.3-8.3-8.3
		h-9.1c-6.5,0-11.8-5.3-11.8-11.8s5.3-11.8,11.8-11.8h20.9c6.9,0,12.6-5.6,12.6-12.6s-5.6-12.6-12.6-12.6h-37.7
		c-3.6,0-6.5-2.9-6.5-6.5c0-3.6,2.9-6.5,6.5-6.5H279c6.9,0,12.6-5.6,12.6-12.6s-5.6-12.6-12.6-12.6h-22.9c-4.9,0-8.8-3.9-8.8-8.8v0
		c0-4.9,3.9-8.8,8.8-8.8h29.4c6.9,0,12.6-5.6,12.6-12.6s-5.6-12.6-12.6-12.6h-14.8c-6.5,0-11.8-5.3-11.8-11.8v0
		c0-6.5,5.3-11.8,11.8-11.8h24.4c7.5,0,13.6-6.1,13.6-13.6s-6.1-13.6-13.6-13.6h-20.1c-4.2,0-7.5-3.4-7.5-7.5c0-4.2,3.4-7.5,7.5-7.5
		h6.5c3.1,0,5.5-2.5,5.5-5.5s-2.5-5.5-5.5-5.5h-13.8c-6,0-10.8-4.8-10.8-10.8v0c0-6,4.8-10.8,10.8-10.8h20.6
		c7.1,0,12.8-5.7,12.8-12.8v0c0-7.1-5.7-12.8-12.8-12.8h-16.1c-6.8,0-12.3-5.5-12.3-12.3s5.5-12.3,12.3-12.3h26.9
		c3.6,0,6.5-2.9,6.5-6.5c0-3.6-2.9-6.5-6.5-6.5h-35.5c-6.8,0-12.3-5.5-12.3-12.3s5.5-12.3,12.3-12.3h26.2c4,0,7.3-3.3,7.3-7.3
		s-3.3-7.3-7.3-7.3h-22.4c-5,0-9.1-4.1-9.1-9.1s4.1-9.1,9.1-9.1h5.5c6.1,0,11.1-5,11.1-11.1v0c0-6.1-5-11.1-11.1-11.1h-9.1
		c-6.4,0-11.6-5.2-11.6-11.6v0c0-6.4,5.2-11.6,11.6-11.6h21.6c6.4,0,11.6-5.2,11.6-11.6v0c0-6.4-5.2-11.6-11.6-11.6h-7.8
		c-7.1,0-12.8-5.7-12.8-12.8v0c0-7.1,5.7-12.8,12.8-12.8h24.4c3.6,0,6.5-2.9,6.5-6.5c0-3.6-2.9-6.5-6.5-6.5h-40.3
		c-5.8,0-10.6-4.7-10.6-10.6c0-5.8,4.7-10.6,10.6-10.6h11.6c1.6,0,3.2-0.3,4.7-0.8c0.8-0.3,1.6-0.7,2.4-1.1c0.4-0.2,0.7-0.5,1.1-0.7
		c0.5-0.4,1-0.8,1.5-1.3c0.3-0.3,0.6-0.6,0.9-1c1.8-2.2,2.9-4.9,3.1-7.9c0-0.2,0-0.5,0-0.7v0c0-0.9-0.1-1.9-0.3-2.7
		c-0.3-1.5-0.9-3-1.7-4.3c-0.6-0.9-1.2-1.8-2-2.6c-2.5-2.5-5.9-4-9.6-4h-5.8c-5.1,0-9.3-4.2-9.3-9.3c0-5.1,4.2-9.3,9.3-9.3h20.1
		c4.6,0,8.3-3.7,8.3-8.3s-3.7-8.3-8.3-8.3h-9.1c-6.5,0-11.8-5.3-11.8-11.8v0c0-6.5,5.3-11.8,11.8-11.8h20.9
		c6.9,0,12.6-5.6,12.6-12.6v0c0-6.9-5.6-12.6-12.6-12.6h-37.7c-3.6,0-6.5-2.9-6.5-6.5c0-3.6,2.9-6.5,6.5-6.5H279
		c6.9,0,12.6-5.6,12.6-12.6v0c0-6.9-5.6-12.6-12.6-12.6h-22.9c-4.9,0-8.8-3.9-8.8-8.8s3.9-8.8,8.8-8.8h29.4
		c6.9,0,12.6-5.6,12.6-12.6v0c0-6.9-5.6-12.6-12.6-12.6h-14.8c-6.5,0-11.8-5.3-11.8-11.8s5.3-11.8,11.8-11.8h24.4
		c7.5,0,13.6-6.1,13.6-13.6v0c0-7.5-6.1-13.6-13.6-13.6h-20.1c-4.2,0-7.5-3.4-7.5-7.5c0-4.2,3.4-7.5,7.5-7.5h6.5
		c3.1,0,5.5-2.5,5.5-5.5c0-3.1-2.5-5.5-5.5-5.5h-13.8c-6,0-10.8-4.8-10.8-10.8s4.8-10.8,10.8-10.8h20.6c7.1,0,12.8-5.7,12.8-12.8
		s-5.7-12.8-12.8-12.8h-16.1c-6.8,0-12.3-5.5-12.3-12.3v0c0-6.8,5.5-12.3,12.3-12.3h26.9c3.6,0,6.5-2.9,6.5-6.5
		c0-3.6-2.9-6.5-6.5-6.5h-35.5c-6.8,0-12.3-5.5-12.3-12.3v0c0-6.8,5.5-12.3,12.3-12.3h26.2c4,0,7.3-3.3,7.3-7.3c0-4-3.3-7.3-7.3-7.3
		h-22.4c-5,0-9.1-4.1-9.1-9.1v0c0-5,4.1-9.1,9.1-9.1h5.5c6.1,0,11.1-5,11.1-11.1c0-6.1-5-11.1-11.1-11.1h-9.1
		c-6.4,0-11.6-5.2-11.6-11.6c0-6.4,5.2-11.6,11.6-11.6h21.6c6.4,0,11.6-5.2,11.6-11.6c0-6.4-5.2-11.6-11.6-11.6h-7.8
		c-7.1,0-12.8-5.7-12.8-12.8c0-7.1,5.7-12.8,12.8-12.8h24.4c3.6,0,6.5-2.9,6.5-6.5c0-3.6-2.9-6.5-6.5-6.5h-40.3
		c-5.8,0-10.6-4.7-10.6-10.6v0c0-5.8,4.7-10.6,10.6-10.6h11.6c7.4,0,13.3-5.9,13.6-13.2h-91c0.2,7.3,6.2,13.2,13.6,13.2h5.8
		c5.1,0,9.3,4.2,9.3,9.3c0,5.1-4.2,9.3-9.3,9.3h-20.1c-4.6,0-8.3,3.7-8.3,8.3v0c0,4.6,3.7,8.3,8.3,8.3h9.1c6.5,0,11.8,5.3,11.8,11.8
		S210.8,72,204.2,72h-17.6c6.9,0,12.6,5.6,12.6,12.6c0,6.9-5.6,12.6-12.6,12.6h34.5c3.6,0,6.5,2.9,6.5,6.5c0,3.6-2.9,6.5-6.5,6.5
		H204c-6.9,0-12.6,5.6-12.6,12.6c0,6.9,5.6,12.6,12.6,12.6h22.9c4.9,0,8.8,3.9,8.8,8.8v0c0,4.9-3.9,8.8-8.8,8.8h-29.4
		c-6.4,0-11.7,4.8-12.5,11c0.1,0.5,0.1,1,0.1,1.6s0,1.1-0.1,1.6c0.8,6.2,6.1,11,12.5,11h14.8c6.5,0,11.8,5.3,11.8,11.8v0
		c0,6.5-5.3,11.8-11.8,11.8h-24.4c-1,0-2,0.1-2.9,0.3c6.1,1.3,10.7,6.8,10.7,13.3s-4.6,11.9-10.7,13.3c0.9,0.2,1.9,0.3,2.9,0.3H208
		c4.2,0,7.5,3.4,7.5,7.5c0,4.2-3.4,7.5-7.5,7.5h-6.5c-3.1,0-5.5,2.5-5.5,5.5c0,3.1,2.5,5.5,5.5,5.5h13.8c6,0,10.8,4.8,10.8,10.8v0
		c0,6-4.8,10.8-10.8,10.8h-20.6c-3.9,0-7.4,1.7-9.7,4.5c1.9,2.2,3.1,5.2,3.1,8.4v0c0,3.2-1.2,6.1-3.1,8.4c2.4,2.7,5.8,4.5,9.7,4.5
		h16.1c6.8,0,12.3,5.5,12.3,12.3s-5.5,12.3-12.3,12.3h-24.7c3.6,0,6.5,2.9,6.5,6.5c0,3.6-2.9,6.5-6.5,6.5h33.2
		c6.8,0,12.3,5.5,12.3,12.3s-5.5,12.3-12.3,12.3h-26.2c-4,0-7.3,3.3-7.3,7.3s3.3,7.3,7.3,7.3h22.4c5,0,9.1,4.1,9.1,9.1
		s-4.1,9.1-9.1,9.1H210c-6.1,0-11.1,5-11.1,11.1v0c0,6.1,5,11.1,11.1,11.1h9.1c6.4,0,11.6,5.2,11.6,11.6v0c0,6.4-5.2,11.6-11.6,11.6
		h-21.6c-6.4,0-11.6,5.2-11.6,11.6v0c0,6.4,5.2,11.6,11.6,11.6h7.8c7.1,0,12.8,5.7,12.8,12.8v0c0,7.1-5.7,12.8-12.8,12.8h-16.1
		c3.6,0,6.5,2.9,6.5,6.5c0,3.6-2.9,6.5-6.5,6.5h32c5.8,0,10.6,4.7,10.6,10.6s-4.7,10.6-10.6,10.6h-11.6c-3.8,0-7.1,1.5-9.6,4
		c-0.8,0.8-1.4,1.6-2,2.6c-0.8,1.3-1.4,2.8-1.7,4.3c-0.2,0.9-0.3,1.8-0.3,2.7v0c0,0.2,0,0.5,0,0.7c0.2,3,1.3,5.8,3.1,7.9
		c0.3,0.3,0.6,0.7,0.9,1c0.5,0.5,1,0.9,1.5,1.3c0.3,0.3,0.7,0.5,1.1,0.7c0.7,0.5,1.5,0.8,2.4,1.1c1.5,0.5,3,0.8,4.7,0.8h5.8
		c5.1,0,9.3,4.2,9.3,9.3v0c0,5.1-4.2,9.3-9.3,9.3h-20.1c-4.6,0-8.3,3.7-8.3,8.3s3.7,8.3,8.3,8.3h9.1c6.5,0,11.8,5.3,11.8,11.8v0
		c0,6.5-5.3,11.8-11.8,11.8h-17.6c6.9,0,12.6,5.6,12.6,12.6v0c0,6.9-5.6,12.6-12.6,12.6h34.5c3.6,0,6.5,2.9,6.5,6.5
		c0,3.6-2.9,6.5-6.5,6.5H204c-6.9,0-12.6,5.6-12.6,12.6v0c0,6.9,5.6,12.6,12.6,12.6h22.9c4.9,0,8.8,3.9,8.8,8.8
		c0,4.9-3.9,8.8-8.8,8.8h-29.4c-6.4,0-11.7,4.8-12.5,11c0.1,0.5,0.1,1,0.1,1.6v0c0,0.5,0,1.1-0.1,1.6c0.8,6.2,6.1,11,12.5,11h14.8
		c6.5,0,11.8,5.3,11.8,11.8s-5.3,11.8-11.8,11.8h-24.4c-1,0-2,0.1-2.9,0.3c6.1,1.3,10.7,6.8,10.7,13.3v0c0,6.5-4.6,11.9-10.7,13.3
		c0.9,0.2,1.9,0.3,2.9,0.3H208c4.2,0,7.5,3.4,7.5,7.5c0,4.2-3.4,7.5-7.5,7.5h-6.5c-3.1,0-5.5,2.5-5.5,5.5s2.5,5.5,5.5,5.5h13.8
		c6,0,10.8,4.8,10.8,10.8s-4.8,10.8-10.8,10.8h-20.6c-3.9,0-7.4,1.7-9.7,4.5c1.9,2.2,3.1,5.2,3.1,8.4s-1.2,6.1-3.1,8.4
		c2.4,2.7,5.8,4.5,9.7,4.5h16.1c6.8,0,12.3,5.5,12.3,12.3v0c0,6.8-5.5,12.3-12.3,12.3h-24.7c3.6,0,6.5,2.9,6.5,6.5
		c0,3.6-2.9,6.5-6.5,6.5h33.2c6.8,0,12.3,5.5,12.3,12.3v0c0,6.8-5.5,12.3-12.3,12.3h-26.2c-4,0-7.3,3.3-7.3,7.3c0,4,3.3,7.3,7.3,7.3
		h22.4c5,0,9.1,4.1,9.1,9.1v0c0,5-4.1,9.1-9.1,9.1H210c-6.1,0-11.1,5-11.1,11.1c0,6.1,5,11.1,11.1,11.1h9.1
		c6.4,0,11.6,5.2,11.6,11.6c0,6.4-5.2,11.6-11.6,11.6h-21.6c-6.4,0-11.6,5.2-11.6,11.6c0,6.4,5.2,11.6,11.6,11.6h7.8
		c7.1,0,12.8,5.7,12.8,12.8c0,7.1-5.7,12.8-12.8,12.8h-16.1c3.6,0,6.5,2.9,6.5,6.5c0,3.6-2.9,6.5-6.5,6.5h32
		c5.8,0,10.6,4.7,10.6,10.6c0,5.8-4.7,10.6-10.6,10.6h-11.6c-7.5,0-13.6,6.1-13.6,13.6c0,0.2,0,0.4,0,0.6h91c0-0.2,0-0.4,0-0.6
		C287,1071.9,280.9,1065.8,273.4,1065.8z"/>
	<path class="st2" d="M174.3,755.4L174.3,755.4c0,6.5,4.6,11.9,10.7,13.3c6.1-1.3,10.7-6.8,10.7-13.3v0c0-6.5-4.6-11.9-10.7-13.3
		C178.9,743.4,174.3,748.9,174.3,755.4z"/>
	<path class="st2" d="M174.3,1038.2c0,3.6,2.9,6.5,6.5,6.5h8.3c3.6,0,6.5-2.9,6.5-6.5c0-3.6-2.9-6.5-6.5-6.5h-8.3
		C177.2,1031.6,174.3,1034.5,174.3,1038.2z"/>
	<path class="st2" d="M185,838c1.9-2.2,3.1-5.2,3.1-8.4s-1.2-6.1-3.1-8.4c-1.9,2.2-3.1,5.2-3.1,8.4S183,835.7,185,838z"/>
	<path class="st2" d="M177.3,873.6c0,3.6,2.9,6.5,6.5,6.5h2.2c3.6,0,6.5-2.9,6.5-6.5c0-3.6-2.9-6.5-6.5-6.5h-2.2
		C180.3,867.1,177.3,870,177.3,873.6z"/>
	<path class="st2" d="M177.3,333.7c0,3.6,2.9,6.5,6.5,6.5h2.2c3.6,0,6.5-2.9,6.5-6.5c0-3.6-2.9-6.5-6.5-6.5h-2.2
		C180.3,327.2,177.3,330.1,177.3,333.7z"/>
	<path class="st2" d="M174.3,215.5c0,6.5,4.6,11.9,10.7,13.3c6.1-1.3,10.7-6.8,10.7-13.3s-4.6-11.9-10.7-13.3
		C178.9,203.5,174.3,208.9,174.3,215.5z"/>
	<path class="st1" d="M185,167.2c0.1-0.5,0.1-1,0.1-1.6s0-1.1-0.1-1.6c-0.1,0.5-0.1,1-0.1,1.6S184.9,166.7,185,167.2z"/>
	<path class="st1" d="M184.9,705.5c0,0.5,0,1.1,0.1,1.6c0.1-0.5,0.1-1,0.1-1.6v0c0-0.5,0-1.1-0.1-1.6
		C184.9,704.5,184.9,705,184.9,705.5L184.9,705.5z"/>
	<path class="st2" d="M170.8,84.6c0,6.9,5.6,12.6,12.6,12.6h3.2c6.9,0,12.6-5.6,12.6-12.6c0-6.9-5.6-12.6-12.6-12.6h-3.2
		C176.4,72,170.8,77.7,170.8,84.6z"/>
	<path class="st2" d="M170.8,624.5L170.8,624.5c0,6.9,5.6,12.6,12.6,12.6h3.2c6.9,0,12.6-5.6,12.6-12.6v0c0-6.9-5.6-12.6-12.6-12.6
		h-3.2C176.4,612,170.8,617.6,170.8,624.5z"/>
	<path class="st2" d="M181.9,289.7c0,3.2,1.2,6.1,3.1,8.4c1.9-2.2,3.1-5.2,3.1-8.4v0c0-3.2-1.2-6.1-3.1-8.4
		C183,283.5,181.9,286.5,181.9,289.7L181.9,289.7z"/>
	<path class="st2" d="M174.3,498.2c0,3.6,2.9,6.5,6.5,6.5h8.3c3.6,0,6.5-2.9,6.5-6.5c0-3.6-2.9-6.5-6.5-6.5h-8.3
		C177.2,491.7,174.3,494.6,174.3,498.2z"/>
</g>
<g>
	<path class="st3" d="M6,198c-0.5-16-3.3-27.6-4-31c-0.7-3.4-1.4-7.3-2-11.9V248C2.8,237.8,6.7,220.2,6,198z"/>
	<path class="st3" d="M0,53C1,37.3,2.4,19.7,4.2,0H0V53z"/>
	<path class="st3" d="M10,626c1.1-53-8.9-58.2-6-112c2.4-45.8,9.6-42.4,12-81c3.2-52.6-8.5-85.5-16-114.5v392.1
		C2.4,686.3,9.2,668.5,10,626z"/>
	<path class="st3" d="M19,823c-4.5-12.5-15.7-39.2-19-78v335h4.7C37,944.8,34.5,866.3,19,823z"/>
</g>
<g>
	<path class="st3" d="M378,198c0.5-16,3.3-27.6,4-31c0.7-3.4,1.4-7.3,2-11.9V248C381.2,237.8,377.3,220.2,378,198z"/>
	<path class="st3" d="M384,53c-1-15.7-2.4-33.3-4.2-53l4.2,0V53z"/>
	<path class="st3" d="M374,626c-1.1-53,8.9-58.2,6-112c-2.4-45.8-9.6-42.4-12-81c-3.2-52.6,8.5-85.5,16-114.5v392.1
		C381.6,686.3,374.8,668.5,374,626z"/>
	<path class="st3" d="M365,823c4.5-12.5,15.7-39.2,19-78v335h-4.7C347,944.8,349.5,866.3,365,823z"/>
</g>
<g>
	<polygon class="st2" points="19.9,922 17.1,922 15,924.1 15,926.9 17.1,929 18.5,929 17,927.5 17,925.5 18.5,924 20.5,924 
		22,925.5 22,924.1 	"/>
	<polygon class="st4" points="20.5,929 22,927.5 22,926.9 19.9,929 	"/>
	<polygon class="st5" points="18.5,924 17,925.5 17,927.5 18.5,929 19.9,929 22,926.9 22,925.5 20.5,924 	"/>
</g>
<g>
	<polygon class="st2" points="10.7,856.5 9.3,855.5 7.7,855.7 6.6,857 6.8,858.7 7.5,859.2 7.3,858 8.1,857 9.3,856.9 10.2,857.6 
		10.3,858.8 10.9,858.2 	"/>
	<polygon class="st4" points="8.4,859.9 9.6,859.8 9.8,859.5 8.2,859.7 	"/>
	<polygon class="st5" points="9.3,856.9 8.1,857 7.3,858 7.5,859.2 8.2,859.7 9.8,859.5 10.3,858.8 10.2,857.6 	"/>
</g>
</svg>
