<?xml version="1.0" encoding="utf-8"?>
<!-- Generator: Adobe Illustrator 21.1.0, SVG Export Plug-In . SVG Version: 6.00 Build 0)  -->
<svg version="1.1" xmlns="http://www.w3.org/2000/svg" xmlns:xlink="http://www.w3.org/1999/xlink" x="0px" y="0px"
	 viewBox="0 0 2304 1080.7" style="enable-background:new 0 0 2304 1080.7;" xml:space="preserve">
<style type="text/css">
	.st0{fill:#669AA9;}
	.st1{fill:#7299A8;}
	.st2{fill:#C0E2E3;}
	.st3{fill:#F7FAF1;}
	.st4{fill:#B6A82D;}
	.st5{fill:#EF5A72;}
	.st6{fill:#64374C;}
	.st7{fill:#B6E3E3;}
	.st8{fill:#FFFFFF;}
	.st9{fill:none;}
	.st10{fill:#4C4C4C;}
	.st11{clip-path:url(#XMLID_12_);fill:#939393;}
	.st12{clip-path:url(#XMLID_13_);fill:#939393;}
	.st13{fill:#939393;}
	.st14{clip-path:url(#XMLID_14_);fill:#939393;}
	.st15{clip-path:url(#XMLID_15_);fill:#939393;}
	.st16{clip-path:url(#XMLID_16_);fill:#939393;}
	.st17{clip-path:url(#XMLID_17_);fill:#939393;}
	.st18{clip-path:url(#XMLID_18_);fill:#939393;}
	.st19{clip-path:url(#XMLID_19_);fill:#939393;}
	.st20{clip-path:url(#XMLID_20_);fill:#939393;}
	.st21{clip-path:url(#XMLID_21_);fill:#939393;}
</style>
<g id="Layer_1">
	<rect class="st0" width="2304" height="1080.7"/>
	<g>
		<path class="st7" d="M711.9,913.9H456c-17.1,0-31-13.9-31-31v0c0-17.1,13.9-31,31-31h40c28.2,0,51-22.8,51-51v0c0-16-13-29-29-29
			h-4c-16,0-29-13-29-29v0c0-16-13-29-29-29h-83.8c-16,0-29-13-29-29v0c0-16,13-29,29-29h225.4c9.9,0,18-8.1,18-18v0
			c0-9.9-8.1-18-18-18h-278c-20.1,0-36.4-16.3-36.4-36.4v0c0-20.1,16.3-36.4,36.4-36.4h129.6c13.6,0,24.6-11,24.6-24.6v0
			c0-13.6-11-24.6-24.6-24.6H335c-18.8,0-34-15.2-34-34v0c0-18.8,15.2-34,34-34h50.9c15.6,0,28.2-12.6,28.2-28.2v0
			c0-15.6-12.6-28.2-28.2-28.2h-35.6c-21.1,0-38.1-17.1-38.1-38.1v0c0-21.1,17.1-38.1,38.1-38.1h68.4c15.7,0,28.5-12.8,28.5-28.5v0
			c0-15.7-12.8-28.5-28.5-28.5h-16.1c-19.9,0-36-16.1-36-36v0c0-19.9,16.1-36,36-36h5c21.3,0,38.6-17.3,38.6-38.6v0
			c0-21.3,17.3-38.6,38.6-38.6h51.8c15.5,0,27.9-12.7,27.5-28.3c-0.4-15-13.1-26.7-28.1-26.7H432.4c-19.9,0-36-16.1-36-36H273
			c0,24.2-19.7,43.9-43.9,43.9H91c-13.3,0-24,10.7-24,24v0c0,13.3,10.7,24,24,24h168c24.3,0,44,19.7,44,44v0c0,24.3-19.7,44-44,44
			h-75c-14.9,0-27,12.1-27,27v0c0,14.9,12.1,27,27,27h140c16.6,0,30,13.4,30,30v0c0,16.6-13.4,30-30,30H129.3c-12.2,0-22,9.8-22,22
			v0c0,12.2,9.8,22,22,22h103.3c21.5,0,39,17.5,39,39v0c0,21.5-17.5,39-39,39h-58.9c-16.6,0-30,13.4-30,30v0c0,16.6,13.4,30,30,30
			h79.5c10.9,0,19.7,8.8,19.7,19.7v0c0,10.9-8.8,19.7-19.7,19.7h-134c-12.3,0-22.3,10-22.3,22.3v0c0,12.3,10,22.3,22.3,22.3H167
			c9.9,0,18,8.1,18,18v0c0,9.9-8.1,18-18,18h-41c-16,0-29,13-29,29v0c0,16,13,29,29,29h58c19.3,0,35,15.7,35,35v0
			c0,19.3-15.7,35-35,35h-68.2c-14.4,0-26,11.6-26,26v0c0,14.4,11.6,26,26,26h110.7c12.2,0,22,9.8,22,22v0c0,12.2-9.8,22-22,22
			h-46.7c-18.2,0-33,14.8-33,33v0c0,18.2,14.8,33,33,33H207c10.5,0,19,8.5,19,19v0c0,10.5-8.5,19-19,19h-41.2c-12.2,0-22,9.9-22,22
			v0c0,12.2,9.9,22,22,22h212.7c5.9,0,11.3,2.3,15.3,6h25.5c5.3,0,9.7,4.3,9.7,9.7v0c0,5.3-4.3,9.7-9.7,9.7h-5
			c-4.2,0-7.7,3.4-7.7,7.7v2.6c0,4.2,3.4,7.7,7.7,7.7h16.5c6.1,0,11,4.9,11,11v0c0,6.1-4.9,11-11,11h-1.9c-6.2,0-11.2,5-11.2,11.2
			c0,1.3-0.2,2.6-0.7,3.8c4.7-2.2,9.9-3.5,15.4-3.5h0c12.5,0,22.6-10.1,22.6-22.6v0c0-31.1,25.2-56.2,56.2-56.2h200.7
			c14.4,0,26-11.6,26-26v0C737.9,925.5,726.3,913.9,711.9,913.9z"/>
		<path class="st7" d="M375.3,1055.6c-6.1,0-11-4.9-11-11v-0.4c0-6.1-4.9-11-11-11h0c-6.1,0-11-4.9-11-11v0c0-4,2.1-7.4,5.2-9.3
			h-6.7c-37.5,0-67.9,30.4-67.9,67.9v0h123.4l0,0c0-9.8,3.9-18.7,10.3-25.2c-0.1,0-0.1,0-0.2,0H375.3z"/>
		<path class="st8" d="M401,990.4L401,990.4c0-6.5-2.8-12.4-7.2-16.5H352c-5.3,0-9.7,4.3-9.7,9.7v0c0,5.3,4.3,9.7,9.7,9.7h3.4
			c4.9,0,9,4,9,9s-4,9-9,9h-2c-2.1,0-4.1,0.6-5.8,1.7h31C390.9,1012.8,401,1002.8,401,990.4z"/>
		<path class="st0" d="M428.9,1033.2h1.9c6.1,0,11-4.9,11-11v0c0-6.1-4.9-11-11-11h-16.5c-4.2,0-7.7-3.4-7.7-7.7v-2.6
			c0-4.2,3.4-7.7,7.7-7.7h5c5.3,0,9.7-4.3,9.7-9.7v0c0-5.3-4.3-9.7-9.7-9.7h-25.5c4.4,4.1,7.2,10,7.2,16.5v0
			c0,12.4-10.1,22.5-22.5,22.5h-31c-3.1,1.9-5.2,5.4-5.2,9.3v0c0,6.1,4.9,11,11,11h0c6.1,0,11,4.9,11,11v0.4c0,6.1,4.9,11,11,11
			h31.2c0.1,0,0.1,0,0.2,0c3-3,6.4-5.5,10.3-7.4c0.4-1.2,0.7-2.5,0.7-3.8C417.7,1038.2,422.7,1033.2,428.9,1033.2z"/>
	</g>
	<path class="st4" d="M-39.9-36.1c75,120.1,91.6,386.7,69,477.4s-37.9,202.3-11,281.4S54,887,39,953.4s-108.9,161.2-123.9,237.1"/>
	<path class="st4" d="M2338.7,1126.3c-75-120.1-91.6-386.7-69-477.4c22.6-90.6,37.9-202.3,11-281.4c-26.9-79-35.9-164.4-20.9-230.8
		s108.9-161.2,123.9-237.1"/>
	<g>
		<path class="st7" d="M1762,1080.7h151.3l0,0c0-19.9-16.1-36-36-36h-125.6C1758.2,1055.1,1762,1067.5,1762,1080.7L1762,1080.7z"/>
		<path class="st7" d="M1780.8,36h96.5c19.9,0,36-16.1,36-36H1762C1762,14.9,1769.4,28.1,1780.8,36z"/>
		<path class="st7" d="M1874,180c-6.6-7.2-16.1-11.8-26.6-11.8h-109.2c7.9,7.3,18.4,11.8,30,11.8H1874z"/>
		<path class="st7" d="M1681.9,263.9L1681.9,263.9c0,16.6,13.4,30,30,30h74.8c-9-4.8-15.2-14.3-15.2-25.2v0
			c0-15.7,12.8-28.5,28.5-28.5h47.2c7.6,0,14.6-2.3,20.4-6.3h-155.8C1695.3,233.9,1681.9,247.3,1681.9,263.9z"/>
	</g>
	<g>
		<path class="st9" d="M437.9,113c-6.8,0-12.2,5.5-12.2,12.2s5.5,12.2,12.2,12.2h2.1c1.8,0,3.5,0.4,5,1.1c0.7-2.9,1-5.8,1-8.9v0
			c0-6.6,1.6-12.8,4.5-18.2c-1.8,1-3.8,1.6-6,1.6H437.9z"/>
		<path class="st7" d="M425.7,174.1c0-6.8,5.5-12.2,12.2-12.2h2.1c6.8,0,12.2-5.5,12.2-12.2c0-5-3-9.2-7.2-11.1
			c-4,17-19.3,29.7-37.5,29.7h-5c-13.4,0-25.1,7.3-31.3,18.1h42.2C420.2,186.3,425.7,180.9,425.7,174.1z"/>
		<path class="st7" d="M456.6,103.1c-2.4,2.5-4.4,5.3-6,8.3C453.7,109.7,455.9,106.7,456.6,103.1z"/>
	</g>
	<path class="st0" d="M444.6,88.6h-17.3c-5.5,0-10-4.5-10-10v0c0-5.5-4.5-10-10-10h-34.4c-5.5,0-10,4.5-10,10v0c0,5.5-4.5,10-10,10
		h-14.5c-6.8,0-12.2,5.5-12.2,12.2v0c0,6.8,5.5,12.2,12.2,12.2h2.1c6.8,0,12.2,5.5,12.2,12.2v0c0,6.8-5.5,12.2-12.2,12.2h-1.7
		c-6.7,0-12.5,5.3-12.6,12c-0.1,6.9,5.4,12.5,12.2,12.5h2.1c6.7,0,12.4,5.3,12.3,12c-0.1,6.8,5.4,12.4,12.2,12.4h6.3
		c6.2-10.8,17.9-18.1,31.3-18.1h5c18.2,0,33.5-12.7,37.5-29.7c-1.5-0.7-3.2-1.1-5-1.1h-1.7c-6.7,0-12.5-5.3-12.6-12
		c-0.1-6.9,5.4-12.5,12.2-12.5h6.7c2.2,0,4.2-0.6,6-1.6c1.6-3,3.7-5.8,6-8.3c0.1-0.8,0.2-1.5,0.2-2.3v0
		C456.8,94,451.4,88.6,444.6,88.6z"/>
	<g>
		<path class="st9" d="M454.4,506.1c0,5.9-4.8,10.8-10.8,10.8h-1.7c-8,0-14.4,6.5-14.4,14.4v1.4c0,8,6.5,14.4,14.4,14.4h0h7.3
			c13.6,0,24.6-11,24.6-24.6v0c0-13.2-10.3-23.9-23.3-24.6C452.9,499.9,454.4,502.8,454.4,506.1z"/>
		<path class="st0" d="M441.9,547.2c-8,0-14.4-6.5-14.4-14.4v-1.4c0-8,6.5-14.4,14.4-14.4h1.7c5.9,0,10.8-4.8,10.8-10.8
			c0-3.3-1.5-6.2-3.8-8.2c-0.4,0-0.9,0-1.3,0H335c-4.6,0-8.9-0.9-12.9-2.5c-0.3,0-0.6,0-0.8,0h-7.9c-5.9,0-10.8,4.8-10.8,10.8
			s4.8,10.8,10.8,10.8h3.5c8.4,0,15.1,6.8,15.1,15.1s-6.8,15.1-15.1,15.1h-12.3c-4.2,0-7.6,3.4-7.6,7.6v0c0,0.1,0,0.2,0,0.3
			c6.2-4.9,14-7.9,22.6-7.9H441.9z"/>
		<path class="st7" d="M304.6,562.3h36.9c4.2,0,7.6,3.4,7.6,7.6v0c0,4.2,3.4,7.6,7.6,7.6h48.7c4.2,0,7.6-3.4,7.6-7.6v0
			c0-4.2,3.4-7.6,7.6-7.6h21.5c4.2,0,7.6-3.4,7.6-7.6v0c0-4.2-3.4-7.6-7.6-7.6h0H319.6c-8.5,0-16.4,3-22.6,7.9
			C297.2,559.1,300.5,562.3,304.6,562.3z"/>
		<path class="st7" d="M449.2,497.9c0.5,0,0.9,0,1.3,0c-1.9-1.6-4.3-2.5-6.9-2.5h-7.9c-5.9,0-10.8-4.8-10.8-10.8
			s-4.8-10.8-10.8-10.8h-71.5c-5.9,0-10.8,4.8-10.8,10.8c0,5.7-4.4,10.3-9.9,10.7c4,1.6,8.3,2.5,12.9,2.5H449.2z"/>
	</g>
	<g>
		<path class="st8" d="M371.3,222.2c0.7,1.3,1.5,2.5,2.4,3.6c0,0,0,0,0,0C373.7,224.2,372.7,222.8,371.3,222.2z"/>
		<path class="st0" d="M377,229.6c-1.2-1.2-2.3-2.5-3.3-3.8C373.7,227.8,375.2,229.3,377,229.6z"/>
		<path class="st0" d="M366.5,204.2c0-2.2,0.2-4.4,0.6-6.5c-1.1,0.8-1.8,2.1-1.8,3.5c0,2.3-1.9,4.1-4.1,4.1h-0.2
			c-2.3,0-4.1,1.9-4.1,4.1v0c0,2.3,1.9,4.1,4.2,4.1c1.9,0,3.5,1.6,3.5,3.6v0.6c0,2.3,1.9,4.1,4.1,4.1h1.1c0.5,0,1,0.1,1.5,0.3
			C368.2,216.9,366.5,210.8,366.5,204.2L366.5,204.2z"/>
		<path class="st7" d="M384,229.7c2.2,0,3.9-1.7,3.9-3.9s1.7-3.9,3.9-3.9h0.6c2.3,0,4.1-1.9,4.1-4.1s1.9-4.1,4.1-4.1
			c1.7,0,3-1.3,3-3v-1.1c0-2.3-1.9-4.1-4.1-4.1h-1.4c-2.3,0-4.1-1.9-4.1-4.1s-1.9-4.1-4.1-4.1h-20.5c-0.9,0-1.6,0.3-2.3,0.7
			c-0.4,2.1-0.6,4.3-0.6,6.5v0c0,6.6,1.8,12.7,4.8,18c1.4,0.6,2.4,2,2.4,3.6c0,0,0,0,0,0c1,1.3,2.1,2.6,3.3,3.8
			c0.2,0,0.4,0.1,0.6,0.1H384z"/>
	</g>
	<g>
		<path class="st9" d="M447.5,640.9h4.5c7.5,0,13.5,6,13.5,13.5v1.2c0,0.1,0,0.2,0,0.2h132.1c9.9,0,18-8.1,18-18v0
			c0-9.9-8.1-18-18-18h-166c2.1,2.2,3.4,5.2,3.4,8.5C435,635.3,440.6,640.9,447.5,640.9z"/>
		<path class="st0" d="M390.4,294.1h-34.2c-2.2,0-4.2,1.2-5.2,3.1h44.6C394.5,295.4,392.6,294.1,390.4,294.1z"/>
		<path class="st7" d="M344.4,305.9h-6.1c-3.6,0-6.5,2.9-6.5,6.5s2.9,6.5,6.5,6.5c2.9,0,5.2,2.4,5.2,5.2v1.1c0,3,2.4,5.4,5.4,5.4
			s5.4,2.4,5.4,5.4s2.4,5.4,5.4,5.4h22.5c3,0,5.4-2.4,5.4-5.4s2.4-5.4,5.4-5.4h1c3.2,0,5.9-2.6,5.9-5.9s2.6-5.9,5.9-5.9
			c3.4,0,6.1-2.7,6.1-6.1V312c0-3.4-2.7-6.1-6.1-6.1h-3.5c-3.2,0-5.9-2.6-5.9-5.9c0-1-0.3-2-0.7-2.8H351c-0.5,0.8-0.7,1.8-0.7,2.8
			C350.2,303.3,347.6,305.9,344.4,305.9z"/>
		<path class="st7" d="M1441.1,1046.4h-200c-5.5,0-9.9-4.8-9.9-10.7c0-5.9,4.4-10.7,9.9-10.7h30.3c11.5,0,20.8-10.1,20.8-22.5
			s-9.3-22.5-20.8-22.5h-28.1c-6.7,0-12.2-5.9-12.2-13.1v-6.7c0-7.3,5.4-13.1,12.2-13.1c6.7,0,12.2-5.9,12.2-13.1v-4.2
			c0-20.3,15.2-36.7,34-36.7l0.7,0c18.4,0,33.3-16.1,33.3-36v-1.1c0-9.2,6.7-16.4,14.9-16.4l1.6,0c12.4,0,22.4-10.8,22.4-24.2v-0.9
			c0-27.9,20.8-50.4,46.5-50.4c8.4,0,15.3-7.4,15.3-16.5v-3.7c0-11.2-8.4-20.2-18.7-20.2h-23.3c-10.9,0-19.8-9.6-19.8-21.4v-52.8
			c0-11.8,8.9-21.4,19.8-21.4s19.8-9.6,19.8-21.4v-33.2c0-11.3,8.5-20.4,18.9-20.4h33.1c10.4,0,18.9-9.1,18.9-20.4v0
			c0-11.3,8.5-20.4,18.9-20.4h29.6c17.7,0,32-15.5,32-34.6v0c0-19.1,14.3-34.6,32-34.6h18.3c25.9,0,46.9-22.7,46.9-50.7v0
			c0-28-21-50.7-46.9-50.7h-150c-10.3,0-18.7-9.1-18.7-20.2s8.4-20.2,18.7-20.2h2.4c17,0,30.8-14.9,30.8-33.3v0
			c0-18.4,13.8-33.3,30.8-33.3h0c15.8,0,28.6-13.9,28.6-30.9v-5.9c0-20.4-15.3-36.9-34.1-36.9h-79.9c-13.7,0-24.8-12-24.8-26.8v0
			c0-14.8,11.1-26.8,24.8-26.8h87c18.9,0,34.1-16.5,34.1-36.9v0c0-20.4-15.3-36.9-34.1-36.9h-15.3c-17.1,0-31-15-31-33.5H709.1
			c0,18.5-13.9,33.5-31,33.5h-70.3c-18.9,0-34.1,16.5-34.1,36.9v0c0,20.4,15.3,36.9,34.1,36.9h87.3c13.5,0,24.5,11.8,24.5,26.4v0
			c0,14.6-11,26.4-24.5,26.4h-93.3c-18.9,0-34.1,16.5-34.1,36.9v0c0,20.4,15.3,36.9,34.1,36.9h21.4c10.5,0,19,9.2,19,20.6v25.4
			c0,11.4,8.5,20.6,19,20.6h14.8c10.5,0,19,9.2,19,20.6s-8.5,20.6-19,20.6h-89.5c-25.9,0-46.9,22.7-46.9,50.7v0
			c0,28,21,50.7,46.9,50.7h16.9c17.7,0,32,15.5,32,34.6v0c0,19.1,14.3,34.6,32,34.6h8.8c10.4,0,18.9,9.1,18.9,20.4v0
			c0,11.3,8.5,20.4,18.9,20.4h15.8c16.1,0,29.2,14.1,29.2,31.5v12c0,17.4,13.1,31.5,29.2,31.5h0c16.1,0,29.2,14.1,29.2,31.5V692
			c0,17.4-13.1,31.5-29.2,31.5H707c-10.4,0-18.7,9.1-18.7,20.2v0c0,11.2,8.4,20.2,18.7,20.2c7,0,12.6,6.1,12.6,13.6v48
			c0,7.6,5.7,13.8,12.8,13.8s12.8,6.2,12.8,13.8v0c0,21.9,16.5,39.7,36.8,39.7h4.7c7.7,0,14,6.8,14,15.1l0,24.2
			c0,8.1,6.1,14.6,13.6,14.6h0.8c8.3,0,15,7.2,15,16l0,0.5c0,9.1-6.8,16.5-15.3,16.5h-9.7c-11.5,0-20.8,10.1-20.8,22.5
			s9.3,22.5,20.8,22.5H820c5.5,0,9.9,4.8,9.9,10.7c0,5.9-4.4,10.7-9.9,10.7h-79.1c-17.5,0-31.7,15.3-31.7,34.3l0,0h266.6h222.1h275
			l0,0C1472.8,1061.8,1458.6,1046.4,1441.1,1046.4z"/>
		<path class="st0" d="M372.2,655.9h93.2c0-0.1,0-0.2,0-0.2v-1.2c0-7.5-6-13.5-13.5-13.5h-4.5c-6.9,0-12.5-5.6-12.5-12.5
			c0-3.3-1.3-6.3-3.4-8.5h-57.5c-2.1,2.2-3.4,5.2-3.4,8.5c0,6.9-5.6,12.5-12.5,12.5c-5.4,0-9.8,4.4-9.8,9.8v7.5c0,2.6,1,5,2.7,6.8
			C356.5,659.4,364,655.9,372.2,655.9z"/>
		<path class="st7" d="M358.3,667.9h4.2c7.3,0,13.2,5.9,13.2,13.2s5.9,13.2,13.2,13.2h37.8c7.3,0,13.2-5.9,13.2-13.2
			s5.9-13.2,13.2-13.2c6.7,0,12.1-5.4,12.2-12h-93.2c-8.3,0-15.7,3.5-21,9C353,666.7,355.5,667.9,358.3,667.9z"/>
		<path class="st7" d="M422.5,615.9h-39.2c-3.6,0-6.9,1.5-9.1,4h57.5C429.4,617.4,426.1,615.9,422.5,615.9z"/>
	</g>
	<path class="st0" d="M423.7,801.8L423.7,801.8c0-7.7-6.3-14-14-14h-70c-7.7,0-14,6.3-14,14l0,0c0,7.7-6.3,14-14,14h-10.3
		c-7.2,0-13,5.8-13,13l0,0c0,7.2,5.8,13,13,13h2.3c7.7,0,14,6.3,14,14l0,0c0,7.7,6.3,14,14,14h78c7.7,0,14-6.3,14-14l0,0
		c0-7.7,6.3-14,14-14H450c7.2,0,13-5.8,13-13l0,0c0-7.2-5.8-13-13-13h-12.4C429.9,815.8,423.7,809.6,423.7,801.8z"/>
	<path class="st7" d="M406.7,1055.5c4.8-0.1,8.8-3.1,10.3-7.4C413.1,1050,409.6,1052.5,406.7,1055.5z"/>
	<path class="st0" d="M835.7,88.6h-17.3c-5.6,0-9.9-4.6-10-10.2c-0.1-5.4-4.5-9.8-10-9.8H764c-5.6,0-9.9,4.6-10,10.2
		c-0.1,5.4-4.5,9.8-10,9.8h-14.5c-6.8,0-12.2,5.5-12.2,12.2v0c0,6.8,5.5,12.2,12.2,12.2h2.1c6.8,0,12.2,5.5,12.2,12.2v0
		c0,6.8-5.5,12.2-12.2,12.2h-1.8c-6,0-11.5,4.2-12.4,10.2c-1.2,7.6,4.7,14.2,12.1,14.2h2.1c6.7,0,12.4,5.3,12.3,12
		c-0.1,6.8,5.4,12.4,12.2,12.4h6.3h42.2c6.7,0,12.4-5.3,12.3-12c-0.1-6.8,5.4-12.4,12.2-12.4h1.8c6.1,0,11.5-4.4,12.4-10.4
		c0.8-5.7-2.3-10.8-7.1-12.9c-1.5-0.7-3.2-1.1-5-1.1h-1.8c-6,0-11.5-4.2-12.4-10.2c-1.2-7.6,4.7-14.2,12.1-14.2h6.7
		c2.2,0,4.2-0.6,6-1.6c1.6-3,3.7-5.8,6-8.3c0.1-0.8,0.2-1.5,0.2-2.3v0C847.9,94,842.4,88.6,835.7,88.6z"/>
	<g>
		<path class="st0" d="M833,516.9h1.4c5.6,0,10.5-4.2,11-9.8c0.3-3.7-1.2-7-3.8-9.2c-1.9-1.6-4.3-2.5-6.9-2.5l-7.8,0
			c-5.9,0-10.9-4.7-10.8-10.6c0.1-6-4.8-10.9-10.7-10.9h-71.5c-6,0-10.7,4.9-10.8,10.8c0,5.6-4.4,10.2-9.9,10.6c-0.3,0-0.6,0-0.8,0
			h-7.6c-5.3,0-10.1,3.7-10.9,9c-1.1,6.7,4.1,12.5,10.6,12.5h3.1c7.8,0,14.6,5.7,15.5,13.4c1,9.1-6.1,16.9-15.1,16.9H701
			c3.4,3.5,8,5.7,13.1,5.7h15.8c13.9,0,25.5,10.5,28.4,24.6h38c4.2,0,7.6-3.4,7.6-7.6v0c0-4.2,3.4-7.6,7.6-7.6H833
			c4.2,0,7.6-3.4,7.6-7.6v0c0-4.2-3.4-7.6-7.6-7.6h0c-8,0-14.4-6.5-14.4-14.4v-1.4C818.6,523.3,825,516.9,833,516.9z"/>
		<path class="st7" d="M729.9,552.9h-15.8c-5.1,0-9.7-2.2-13.1-5.7h-5.4c-4.2,0-7.6,3.4-7.6,7.6v0c0,0.1,0,0.2,0,0.3
			c0.2,4,3.5,7.3,7.6,7.3h36.9c4.2,0,7.6,3.4,7.6,7.6v0c0,4.2,3.4,7.6,7.6,7.6h10.7C755.5,563.4,743.8,552.9,729.9,552.9z"/>
	</g>
	<path class="st0" d="M768.1,229.6c-1.2-1.2-2.3-2.5-3.3-3.8C764.8,227.8,766.2,229.3,768.1,229.6z"/>
	<path class="st0" d="M790.6,205.3h-1.5c-2.3,0-4-1.9-4.1-4.2c0-2.3-1.9-4.1-4.1-4.1h-20.5c-0.9,0-1.6,0.3-2.3,0.7
		c-1.1,0.8-1.8,2.1-1.8,3.5c0,2.3-1.9,4.1-4.1,4.1H752c-2.3,0-4.1,1.9-4.1,4.1v0c0,2.3,1.9,4.1,4.2,4.1c1.9,0,3.5,1.6,3.5,3.6v0.6
		c0,2.3,1.9,4.1,4.1,4.1h1.1c0.5,0,1,0.1,1.5,0.3c1.4,0.6,2.4,2,2.4,3.6c0,0,0,0,0,0c1,1.3,2.1,2.6,3.3,3.8c0.2,0,0.4,0.1,0.6,0.1
		h6.4c2.1,0,3.9-1.7,3.9-3.8c0-2.2,1.7-4,3.9-4h0.5c2.3,0,4.3-1.8,4.3-4.1c0-2.3,1.8-4.2,4.1-4.2c1.7,0,3.1-1.3,3.1-2.9v-1.2
		C794.8,207.2,792.9,205.3,790.6,205.3z"/>
	<path class="st0" d="M796.7,305.9h-3.3c-3.3,0-6.1-2.6-6.1-5.8c0-1-0.3-2-0.7-2.9c-1-1.8-2.9-3.1-5.2-3.1h-34.2
		c-2.2,0-4.2,1.2-5.2,3.1c-0.5,0.8-0.7,1.8-0.7,2.9c0,3.3-2.8,5.8-6.1,5.8h-5.7c-3.3,0-6.3,2.4-6.7,5.7c-0.5,4,2.7,7.3,6.6,7.3
		c2.8-0.1,5.1,2.4,5.1,5.3v1.1c0,3,2.4,5.3,5.4,5.4c2.9,0,5.3,2.4,5.3,5.3c0,3,2.4,5.4,5.4,5.4h22.6c3,0,5.2-2.5,5.3-5.5
		c0.1-2.9,2.4-5.3,5.4-5.3l1,0c3.3,0,5.8-2.7,5.9-5.9c0-3.2,2.6-5.8,5.8-5.8c3.4,0,6.1-2.5,6.1-5.9v-1
		C802.8,308.6,800.1,305.9,796.7,305.9z"/>
	<g>
		<path class="st0" d="M843.1,640.9h-4.3c-6.9,0-12.8-5.5-12.7-12.4c0-3.3-1.2-6.4-3.4-8.6c-2.3-2.5-5.5-4-9.1-4h-39.2
			c-2.7,0-5.1,0.8-7.2,2.3c5.3,6,12.8,9.7,21.1,9.7h0c16.1,0,29.2,14.1,29.2,31.5V692c0,0.8,0,1.6-0.1,2.4h0.5
			c7.4,0,13.2-6,13.3-13.4c0.1-7.2,6-13.1,13.2-13.1c6.7,0,12.1-5.4,12.2-12c0-0.1,0-0.2,0-0.2v-1.2
			C856.6,646.9,850.5,640.9,843.1,640.9z"/>
		<path class="st7" d="M817.4,659.4c0-17.4-13.1-31.5-29.2-31.5h0c-8.3,0-15.8-3.7-21.1-9.7c-0.7,0.5-1.4,1.1-2,1.7
			c-2.1,2.2-3.4,5.2-3.4,8.5c0,6.9-5.6,12.5-12.5,12.5c-5.4,0-9.8,4.4-9.8,9.8v7.5c0,2.6,1,5,2.7,6.8c1.8,1.8,4.3,3,7,3h4.2
			c7.3,0,13.2,5.9,13.2,13.2s5.9,13.2,13.2,13.2h37.3c0.1-0.8,0.1-1.6,0.1-2.4V659.4z"/>
	</g>
	<g>
		<path class="st0" d="M841.1,815.8h-12.4c-7.8,0-13.9-6.4-14-14.2c-0.1-7.7-6.3-13.8-14-13.8h-70c-4.5,0-8.5,2.2-11.1,5.5v32.3
			c0,7.6,5.7,13.8,12.8,13.8s12.8,6.2,12.8,13.8v0c0,5.9,1.2,11.5,3.4,16.6h52.2c7.8,0,13.9-6.4,14-14.2c0.1-7.7,6.3-13.8,14-13.8
			h12c6.7,0,12.5-4.9,13.3-11.5C854.9,822.5,848.8,815.8,841.1,815.8z"/>
		<path class="st7" d="M745.2,853.3c0-7.6-5.7-13.8-12.8-13.8s-12.8-6.2-12.8-13.8v-32.3c-1.8,2.4-2.9,5.3-2.9,8.5
			c0,7.7-6.3,14-14,14h-10.3c-7.2,0-13,5.8-13,13s5.8,13,13,13h2.3c7.7,0,14,6.3,14,14s6.3,14,14,14h25.8
			C746.4,864.8,745.2,859.2,745.2,853.3L745.2,853.3z"/>
	</g>
	<g>
		<path class="st8" d="M755.4,1044.2c0-6.1-4.9-11-11-11h0c-6.1,0-11-4.9-11-11v0c0-4,2.1-7.4,5.2-9.3c1.7-1.1,3.7-1.7,5.8-1.7h2
			c4.9,0,9-4,9-9s-4-9-9-9h-3.4c-5.3,0-9.7-4.3-9.7-9.7v0c0-5.3,4.3-9.7,9.7-9.7h41.8h25.5c3.8,0,7.1,2.2,8.6,5.4
			c6.3-2.1,10.8-8.3,10.8-15.8l0-0.5c0-8.8-6.6-16-15-16h-0.8c-7.5,0-13.6-6.6-13.6-14.6l0-24.2c0-8.3-6.3-15.1-14-15.1h-4.7
			c-14.8,0-27.6-9.5-33.4-23.1h-25.8c-7.7,0-14-6.3-14-14s-6.3-14-14-14h-2.3c-7.2,0-13-5.8-13-13s5.8-13,13-13h10.3
			c7.7,0,14-6.3,14-14c0-3.2,1.1-6.1,2.9-8.5v-15.7c0-7.5-5.7-13.6-12.6-13.6c-10.4,0-18.7-9.1-18.7-20.2v0
			c0-11.2,8.4-20.2,18.7-20.2h81.2c15.3,0,27.9-12.8,29.1-29.1H780c-7.3,0-13.2-5.9-13.2-13.2s-5.9-13.2-13.2-13.2h-4.2
			c-2.8,0-5.2-1.1-7-3c-1.7-1.8-2.7-4.1-2.7-6.8v-7.5c0-5.4,4.4-9.8,9.8-9.8c6.9,0,12.5-5.6,12.5-12.5c0-3.3,1.3-6.3,3.4-8.5
			c0.6-0.6,1.3-1.2,2-1.7c-5-5.7-8.1-13.3-8.1-21.8v-12c0-2.4-0.3-4.7-0.7-6.9h-10.7c-4.2,0-7.6-3.4-7.6-7.6v0
			c0-4.2-3.4-7.6-7.6-7.6h-36.9c-4.1,0-7.4-3.2-7.6-7.3c0-0.1,0-0.2,0-0.3v0c0-4.2,3.4-7.6,7.6-7.6h5.4c-3.6-3.7-5.8-8.9-5.8-14.7v0
			c0-11.3-8.5-20.4-18.9-20.4h-8.8c-17.7,0-32-15.5-32-34.6v0c0-19.1-14.3-34.6-32-34.6h-16.9c-25.9,0-46.9-22.7-46.9-50.7v0
			c0-28,21-50.7,46.9-50.7h89.5c10.5,0,19-9.2,19-20.6s-8.5-20.6-19-20.6h-14.8c-10.5,0-19-9.2-19-20.6v-25.4
			c0-11.4-8.5-20.6-19-20.6h-21.4c-18.9,0-34.1-16.5-34.1-36.9v0c0-20.4,15.3-36.9,34.1-36.9h93.3c13.5,0,24.5-11.8,24.5-26.4v0
			c0-14.6-11-26.4-24.5-26.4h-87.3c-18.9,0-34.1-16.5-34.1-36.9v0c0-20.4,15.3-36.9,34.1-36.9h70.3c17.1,0,31-15,31-33.5H396.4
			c0,19.9,16.1,36,36,36h103.4c15,0,27.7,11.8,28.1,26.7c0.4,15.5-12.1,28.3-27.5,28.3h-51.8c-11,0-21,4.6-28,12.1
			c-0.7,3.6-2.9,6.6-6,8.3c-2.9,5.4-4.5,11.6-4.5,18.2v0c0,3.1-0.4,6-1,8.9c4.3,1.9,7.2,6.2,7.2,11.1c0,6.8-5.5,12.2-12.2,12.2h-2.1
			c-6.8,0-12.2,5.5-12.2,12.2s-5.5,12.2-12.2,12.2h-42.2c-2,3.5-3.4,7.3-4.1,11.4c0.6-0.5,1.4-0.7,2.3-0.7h20.5
			c2.3,0,4.1,1.9,4.1,4.1s1.9,4.1,4.1,4.1h1.4c2.3,0,4.1,1.9,4.1,4.1v1.1c0,1.7-1.3,3-3,3c-2.3,0-4.1,1.9-4.1,4.1s-1.9,4.1-4.1,4.1
			h-0.6c-2.2,0-3.9,1.7-3.9,3.9s-1.7,3.9-3.9,3.9h-6.4c-0.2,0-0.4,0-0.6-0.1c6.5,6.5,15.5,10.6,25.5,10.6h16.1
			c15.7,0,28.5,12.8,28.5,28.5v0c0,15.7-12.8,28.5-28.5,28.5h-23.1c0.5,0.8,0.7,1.8,0.7,2.8c0,3.2,2.6,5.9,5.9,5.9h3.5
			c3.4,0,6.1,2.7,6.1,6.1v0.8c0,3.4-2.7,6.1-6.1,6.1c-3.2,0-5.9,2.6-5.9,5.9s-2.6,5.9-5.9,5.9h-1c-3,0-5.4,2.4-5.4,5.4
			s-2.4,5.4-5.4,5.4h-22.5c-3,0-5.4-2.4-5.4-5.4s-2.4-5.4-5.4-5.4s-5.4-2.4-5.4-5.4v-1.1c0-2.9-2.4-5.2-5.2-5.2
			c-3.6,0-6.5-2.9-6.5-6.5s2.9-6.5,6.5-6.5h6.1c3.2,0,5.9-2.6,5.9-5.9c0-1,0.3-2,0.7-2.8h-0.7c-21.1,0-38.1,17.1-38.1,38.1v0
			c0,21.1,17.1,38.1,38.1,38.1h35.6c15.6,0,28.2,12.6,28.2,28.2v0c0,15.6-12.6,28.2-28.2,28.2H335c-18.8,0-34,15.2-34,34v0
			c0,14.2,8.7,26.4,21.1,31.5c5.5-0.4,9.9-5.1,9.9-10.7c0-5.9,4.8-10.8,10.8-10.8h71.5c5.9,0,10.8,4.8,10.8,10.8s4.8,10.8,10.8,10.8
			h7.9c2.6,0,5.1,1,6.9,2.5c13,0.7,23.3,11.4,23.3,24.6v0c0,13.6-11,24.6-24.6,24.6h-7.3c4.2,0,7.6,3.4,7.6,7.6v0
			c0,4.2-3.4,7.6-7.6,7.6h-21.5c-4.2,0-7.6,3.4-7.6,7.6v0c0,4.2-3.4,7.6-7.6,7.6h-48.7c-4.2,0-7.6-3.4-7.6-7.6v0
			c0-4.2-3.4-7.6-7.6-7.6h-36.9c-4.1,0-7.4-3.2-7.6-7.3c-8.4,6.7-13.8,16.9-13.8,28.5v0c0,20.1,16.3,36.4,36.4,36.4h54.5
			c2.3-2.5,5.5-4,9.1-4h39.2c3.6,0,6.9,1.5,9.1,4h166c9.9,0,18,8.1,18,18v0c0,9.9-8.1,18-18,18H465.5c-0.1,6.6-5.6,12-12.2,12
			c-7.3,0-13.2,5.9-13.2,13.2s-5.9,13.2-13.2,13.2h-37.8c-7.3,0-13.2-5.9-13.2-13.2s-5.9-13.2-13.2-13.2h-4.2c-2.8,0-5.2-1.1-7-3
			c-5,5.2-8,12.2-8,20v0c0,16,13,29,29,29H456c16,0,29,13,29,29v0c0,16,13,29,29,29h4c16,0,29,13,29,29v0c0,28.2-22.8,51-51,51h-40
			c-17.1,0-31,13.9-31,31v0c0,17.1,13.9,31,31,31h255.9c14.4,0,26,11.6,26,26v0c0,14.4-11.6,26-26,26H511.2
			c-31.1,0-56.2,25.2-56.2,56.2v0c0,12.5-10.1,22.6-22.6,22.6h0c-19.9,0-36,16.1-36,36l0,0h312.7l0,0c0-18.9,14.2-34.3,31.7-34.3
			h14.7c-0.1-0.6-0.2-1.2-0.2-1.9V1044.2z"/>
		<path class="st8" d="M819.9,1033.2c-6.2,0-11.2,5-11.2,11.2c0,0.7-0.1,1.4-0.2,2.1H820c5.5,0,9.9-4.8,9.9-10.7
			c0-1.8-0.4-3.5-1.1-4.9c-1.9,1.5-4.3,2.4-6.9,2.4H819.9z"/>
		<path class="st0" d="M766.4,1055.6h31.2c0.1,0,0.1,0,0.2,0c4.8-0.1,8.8-3.1,10.3-7.4c0.2-0.6,0.4-1.1,0.5-1.7h-53
			C756.5,1051.6,761,1055.6,766.4,1055.6z"/>
		<path class="st0" d="M832.9,1022.2L832.9,1022.2c0-6.1-4.9-11-11-11h-16.5c-4.2,0-7.7-3.4-7.7-7.7v-2.6c0-4.2,3.4-7.7,7.7-7.7h5
			c5.3,0,9.7-4.3,9.7-9.7v0c0-1.6-0.4-3-1-4.3c-1.4,0.5-2.9,0.7-4.4,0.7h-9.7c-11.5,0-20.8,10.1-20.8,22.5s9.3,22.5,20.8,22.5H820
			c3.8,0,7.2,2.3,8.8,5.8C831.3,1028.7,832.9,1025.6,832.9,1022.2z"/>
		<path class="st7" d="M820,1025h-15.1c-11.5,0-20.8-10.1-20.8-22.5s9.3-22.5,20.8-22.5h9.7c1.5,0,3-0.3,4.4-0.7
			c-1.6-3.2-4.9-5.4-8.6-5.4h-25.5h-41.8c-5.3,0-9.7,4.3-9.7,9.7v0c0,5.3,4.3,9.7,9.7,9.7h3.4c4.9,0,9,4,9,9s-4,9-9,9h-2
			c-2.1,0-4.1,0.6-5.8,1.7c-3.1,1.9-5.2,5.4-5.2,9.3v0c0,6.1,4.9,11,11,11h0c6.1,0,11,4.9,11,11v0.4c0,0.6,0.1,1.2,0.2,1.9h53
			c0.1-0.7,0.2-1.4,0.2-2.1c0-6.2,5-11.2,11.2-11.2h1.9c2.6,0,5-0.9,6.9-2.4C827.1,1027.3,823.8,1025,820,1025z"/>
	</g>
	<path class="st0" d="M1219.7,88.6h-17.3c-5.5,0-10-4.5-10-10s-4.5-10-10-10H1148c-5.5,0-10,4.5-10,10s-4.5,10-10,10h-14.5
		c-6.8,0-12.2,5.5-12.2,12.2v0c0,6.8,5.5,12.2,12.2,12.2h2.1c6.8,0,12.2,5.5,12.2,12.2v0c0,6.8-5.5,12.2-12.2,12.2h-1.7
		c-6.7,0-12.5,5.3-12.6,12c-0.1,6.9,5.4,12.5,12.2,12.5h2.1c6.7,0,12.4,5.3,12.3,12c-0.1,6.8,5.4,12.4,12.2,12.4h6.3h42.2
		c6.8,0,12.2-5.5,12.2-12.2s5.5-12.2,12.2-12.2h2.1c6.8,0,12.2-5.5,12.2-12.2c0-5-3-9.2-7.2-11.1c-1.5-0.7-3.2-1.1-5-1.1h-1.7
		c-6.7,0-12.5-5.3-12.6-12c-0.1-6.9,5.4-12.5,12.2-12.5h6.7c2.2,0,4.2-0.6,6-1.6c1.6-3,3.7-5.8,6-8.3c0.1-0.8,0.2-1.5,0.2-2.3v0
		C1231.9,94,1226.4,88.6,1219.7,88.6z"/>
	<path class="st0" d="M1217,516.9h1.7c5.9,0,10.8-4.8,10.8-10.8c0-3.3-1.5-6.2-3.8-8.2c-1.9-1.6-4.3-2.5-6.9-2.5h-7.9
		c-5.9,0-10.8-4.8-10.8-10.8s-4.8-10.8-10.8-10.8h-71.5c-5.9,0-10.8,4.8-10.8,10.8c0,5.7-4.4,10.3-9.9,10.7c-0.3,0-0.6,0-0.8,0h-7.9
		c-5.9,0-10.8,4.8-10.8,10.8s4.8,10.8,10.8,10.8h3.5c8.4,0,15.1,6.8,15.1,15.1s-6.8,15.1-15.1,15.1h-12.3c-4.2,0-7.6,3.4-7.6,7.6v0
		c0,0.1,0,0.2,0,0.3c0.2,4,3.5,7.3,7.6,7.3h36.9c4.2,0,7.6,3.4,7.6,7.6v0c0,4.2,3.4,7.6,7.6,7.6h48.7c4.2,0,7.6-3.4,7.6-7.6v0
		c0-4.2,3.4-7.6,7.6-7.6h21.5c4.2,0,7.6-3.4,7.6-7.6v0c0-4.2-3.4-7.6-7.6-7.6h0c-8,0-14.4-6.5-14.4-14.4v-1.4
		C1202.6,523.3,1209,516.9,1217,516.9z"/>
	<path class="st0" d="M1174.6,205.3h-1.4c-2.3,0-4.1-1.9-4.1-4.1s-1.9-4.1-4.1-4.1h-20.5c-0.9,0-1.6,0.3-2.3,0.7
		c-1.1,0.8-1.8,2.1-1.8,3.5c0,2.3-1.9,4.1-4.1,4.1h-0.2c-2.3,0-4.1,1.9-4.1,4.1v0c0,2.3,1.9,4.1,4.2,4.1c1.9,0,3.5,1.6,3.5,3.6v0.6
		c0,2.3,1.9,4.1,4.1,4.1h1.1c0.5,0,1,0.1,1.5,0.3c1.4,0.6,2.4,2,2.4,3.6c0,0,0,0,0,0c1,1.3,2.1,2.6,3.3,3.8c0.2,0,0.4,0.1,0.6,0.1
		h6.4c2.2,0,3.9-1.7,3.9-3.9s1.7-3.9,3.9-3.9h0.6c2.3,0,4.1-1.9,4.1-4.1s1.9-4.1,4.1-4.1c1.7,0,3-1.3,3-3v-1.1
		C1178.8,207.2,1176.9,205.3,1174.6,205.3z"/>
	<path class="st0" d="M1180.7,305.9h-3.5c-3.2,0-5.9-2.6-5.9-5.9c0-1-0.3-2-0.7-2.8c-1-1.8-2.9-3.1-5.2-3.1h-34.2
		c-2.2,0-4.2,1.2-5.2,3.1c-0.5,0.8-0.7,1.8-0.7,2.8c0,3.2-2.6,5.9-5.9,5.9h-6.1c-3.6,0-6.5,2.9-6.5,6.5s2.9,6.5,6.5,6.5
		c2.9,0,5.2,2.4,5.2,5.2v1.1c0,3,2.4,5.4,5.4,5.4s5.4,2.4,5.4,5.4s2.4,5.4,5.4,5.4h22.5c3,0,5.4-2.4,5.4-5.4s2.4-5.4,5.4-5.4h1
		c3.2,0,5.9-2.6,5.9-5.9s2.6-5.9,5.9-5.9c3.4,0,6.1-2.7,6.1-6.1V312C1186.8,308.6,1184.1,305.9,1180.7,305.9z"/>
	<path class="st0" d="M1227.1,640.9h-4.5c-6.9,0-12.5-5.6-12.5-12.5c0-3.3-1.3-6.3-3.4-8.5c-2.3-2.5-5.5-4-9.1-4h-39.2
		c-3.6,0-6.9,1.5-9.1,4c-2.1,2.2-3.4,5.2-3.4,8.5c0,6.9-5.6,12.5-12.5,12.5c-5.4,0-9.8,4.4-9.8,9.8v7.5c0,2.6,1,5,2.7,6.8
		c1.8,1.8,4.3,3,7,3h4.2c7.3,0,13.2,5.9,13.2,13.2s5.9,13.2,13.2,13.2h37.8c7.3,0,13.2-5.9,13.2-13.2s5.9-13.2,13.2-13.2
		c6.7,0,12.1-5.4,12.2-12c0-0.1,0-0.2,0-0.2v-1.2C1240.6,646.9,1234.5,640.9,1227.1,640.9z"/>
	<path class="st0" d="M1198.8,801.8L1198.8,801.8c0-7.7-6.3-14-14-14h-70c-7.7,0-14,6.3-14,14l0,0c0,7.7-6.3,14-14,14h-10.3
		c-7.2,0-13,5.8-13,13l0,0c0,7.2,5.8,13,13,13h2.3c7.7,0,14,6.3,14,14l0,0c0,7.7,6.3,14,14,14h78c7.7,0,14-6.3,14-14l0,0
		c0-7.7,6.3-14,14-14h12.4c7.2,0,13-5.8,13-13l0,0c0-7.2-5.8-13-13-13h-12.4C1205,815.8,1198.8,809.6,1198.8,801.8z"/>
	<path class="st0" d="M1205.9,1011.1h-16.5c-4.2,0-7.7-3.4-7.7-7.7v-2.6c0-4.2,3.4-7.7,7.7-7.7h5c5.3,0,9.7-4.3,9.7-9.7v0
		c0-5.3-4.3-9.7-9.7-9.7h-25.5h-41.8c-5.3,0-9.7,4.3-9.7,9.7v0c0,5.3,4.3,9.7,9.7,9.7h3.4c4.9,0,9,4,9,9s-4,9-9,9h-2
		c-2.1,0-4.1,0.6-5.8,1.7c-3.1,1.9-5.2,5.4-5.2,9.3v0c0,6.1,4.9,11,11,11h0c6.1,0,11,4.9,11,11v0.4c0,6.1,4.9,11,11,11h31.2
		c0.1,0,0.1,0,0.2,0c4.8-0.1,8.8-3.1,10.3-7.4c0.4-1.2,0.7-2.5,0.7-3.8c0-6.2,5-11.2,11.2-11.2h1.9c6.1,0,11-4.9,11-11v0
		C1216.9,1016.1,1212,1011.1,1205.9,1011.1z"/>
	<g>
		<path class="st8" d="M1485.3,149.4c0.1-6.7,5.9-12,12.6-12h1.7c6.8,0,12.2-5.5,12.2-12.2v0c0-6.8-5.5-12.2-12.2-12.2h-2.1
			c-4.4,0-8.2-2.3-10.3-5.7h-55c-13.7,0-24.8,12-24.8,26.8v0c0,14.8,11.1,26.8,24.8,26.8h60.4
			C1488.2,158.9,1485.2,154.5,1485.3,149.4z"/>
		<path class="st8" d="M1512,160.9h-19.5c1.5,0.7,3.2,1,4.9,1h2.1c6.7,0,12.4,5.3,12.3,12c-0.1,6.8,5.4,12.4,12.2,12.4h6.3h14.2
			C1540,171.5,1527.2,160.9,1512,160.9z"/>
		<path class="st8" d="M1553.3,70.4L1553.3,70.4c0-0.6,0-1.2,0-1.8H1532c-5.5,0-10,4.5-10,10s-4.5,10-10,10h-14.5
			c-6.8,0-12.2,5.5-12.2,12.2v0c0,2.4,0.7,4.6,1.9,6.5h32C1538,107.3,1553.3,90.8,1553.3,70.4z"/>
		<path class="st0" d="M1584.8,174.1c0-6.8,5.5-12.2,12.2-12.2h2.1c6.8,0,12.2-5.5,12.2-12.2c0-5-3-9.2-7.2-11.1
			c-1.5-0.7-3.2-1.1-5-1.1h-1.7c-6.7,0-12.5-5.3-12.6-12c-0.1-6.9,5.4-12.5,12.2-12.5h6.7c2.2,0,4.2-0.6,6-1.6c1.6-3,3.7-5.8,6-8.3
			c0.1-0.8,0.2-1.5,0.2-2.3v0c0-6.8-5.5-12.2-12.2-12.2h-17.3c-5.5,0-10-4.5-10-10s-4.5-10-10-10h-13.2c0,0.6,0,1.2,0,1.8v0
			c0,20.4-15.3,36.9-34.1,36.9h-32c2.2,3.4,6,5.7,10.3,5.7h2.1c6.8,0,12.2,5.5,12.2,12.2v0c0,6.8-5.5,12.2-12.2,12.2h-1.7
			c-6.7,0-12.5,5.3-12.6,12c-0.1,5.1,2.9,9.5,7.3,11.4h19.5c15.2,0,28,10.7,32.5,25.5h28C1579.3,186.3,1584.8,180.9,1584.8,174.1z"
			/>
	</g>
	<g>
		<g>
			<path class="st8" d="M1521.3,512.1c17.7,0,32-15.5,32-34.6v0c0-1.2,0.1-2.5,0.2-3.7h-51.7c-5.9,0-10.8,4.8-10.8,10.8
				c0,5.7-4.4,10.3-9.9,10.7c-0.3,0-0.6,0-0.8,0h-7.9c-5.9,0-10.8,4.8-10.8,10.8s4.8,10.8,10.8,10.8h3.5c1.1,0,2.2,0.1,3.3,0.4
				c3.3-3.2,7.7-5.1,12.5-5.1H1521.3z"/>
			<path class="st0" d="M1463.7,547.2c-3.5,0-6.4,2.3-7.3,5.5c4.1-0.6,7.8-2.6,10.7-5.5H1463.7z"/>
			<path class="st8" d="M1491.1,532c0-7.2-5.1-13.3-11.9-14.8c-3.9,3.7-6.4,9.2-6.4,15.2v0c0,5.8-2.2,11-5.8,14.7h8.9
				C1484.3,547.2,1491.1,540.4,1491.1,532z"/>
			<path class="st8" d="M1812.7,373.5h91.5c21.1,0,38.1-17.1,38.1-38.1v0c0-21.1-17.1-38.1-38.1-38.1h-104.2
				c-4.8,0-9.4-1.2-13.3-3.3h-74.8c-16.6,0-30-13.4-30-30v0c0-16.6,13.4-30,30-30h155.8c9.4-6.5,15.6-17.4,15.6-29.7v0
				c0-9.3-3.5-17.8-9.4-24.2h-105.8c-11.6,0-22.1-4.5-30-11.8h-9.1c-21.3,0-38.6-17.3-38.6-38.6v0c0-21.3-17.3-38.6-38.6-38.6h-30
				c-15,0-27.7-11.8-28.1-26.7c-0.4-15.5,12.1-28.3,27.5-28.3h159.5c-11.4-7.9-18.8-21.1-18.8-36h-289.2c0,18.5,13.9,33.5,31,33.5
				h15.3c18.3,0,33.2,15.5,34.1,35.1h13.2c5.5,0,10,4.5,10,10s4.5,10,10,10h17.3c6.8,0,12.2,5.5,12.2,12.2v0c0,0.8-0.1,1.6-0.2,2.3
				c-2.4,2.5-4.4,5.3-6,8.3c-1.8,1-3.8,1.6-6,1.6h-6.7c-6.8,0-12.3,5.6-12.2,12.5c0.1,6.7,5.9,12,12.6,12h1.7c1.8,0,3.5,0.4,5,1.1
				c4.3,1.9,7.2,6.2,7.2,11.1c0,6.8-5.5,12.2-12.2,12.2h-2.1c-6.8,0-12.2,5.5-12.2,12.2s-5.5,12.2-12.2,12.2h-28
				c1,3.4,1.6,7,1.6,10.7h2.8c2.3,0,4.1,1.9,4.1,4.1s1.9,4.1,4.1,4.1h1.4c2.3,0,4.1,1.9,4.1,4.1v1.1c0,1.7-1.3,3-3,3
				c-2.3,0-4.1,1.9-4.1,4.1s-1.9,4.1-4.1,4.1h-0.6c-2.2,0-3.9,1.7-3.9,3.9s-1.7,3.9-3.9,3.9h-6.4c-0.2,0-0.4,0-0.6-0.1
				c-0.4-0.4-0.8-0.9-1.2-1.3c-4.8,4-10.8,6.3-17.3,6.3h0c-17,0-30.8,14.9-30.8,33.3v0c0,18.4-13.8,33.3-30.8,33.3h-2.4
				c-10.3,0-18.7,9.1-18.7,20.2s8.4,20.2,18.7,20.2h150c25.9,0,46.9,22.7,46.9,50.7v0c0,28-21,50.7-46.9,50.7h-18.3
				c-16.5,0-30.1,13.5-31.8,30.9h19.8c5.9,0,10.8,4.8,10.8,10.8s4.8,10.8,10.8,10.8h7.9c2.6,0,5.1,1,6.9,2.5c2.3,2,3.8,4.9,3.8,8.2
				c0,5.9-4.8,10.8-10.8,10.8h-1.7c-8,0-14.4,6.5-14.4,14.4v1.4c0,8,6.5,14.4,14.4,14.4h0c4.2,0,7.6,3.4,7.6,7.6v0
				c0,4.2-3.4,7.6-7.6,7.6h-21.5c-4.2,0-7.6,3.4-7.6,7.6v0c0,4.2-3.4,7.6-7.6,7.6h-48.7c-4.2,0-7.6-3.4-7.6-7.6v0
				c0-4.2-3.4-7.6-7.6-7.6h-36.9c-4.1,0-7.4-3.2-7.6-7.3c0-0.1,0-0.2,0-0.3v0c0-0.7,0.1-1.4,0.3-2.1c-0.8,0.1-1.6,0.2-2.4,0.2h-33.1
				c-10.4,0-18.9,9.1-18.9,20.4v33.2c0,11.8-8.9,21.4-19.8,21.4s-19.8,9.6-19.8,21.4v52.8c0,11.8,8.9,21.4,19.8,21.4h23.3
				c10.4,0,18.7,9.1,18.7,20.2v3.7c0,9.1-6.8,16.5-15.3,16.5c-25.7,0-46.5,22.5-46.5,50.4v0.9c0,13.4-10,24.2-22.4,24.2l-1.6,0
				c-8.3,0-14.9,7.2-14.9,16.4v1.1c0,19.9-14.9,36-33.3,36l-0.7,0c-18.8,0-34,16.4-34,36.7v4.2c0,7.3-5.4,13.1-12.2,13.1
				c-6.7,0-12.2,5.9-12.2,13.1v6.7c0,7.3,5.4,13.1,12.2,13.1h28.1c11.5,0,20.8,10.1,20.8,22.5s-9.3,22.5-20.8,22.5h-30.3
				c-5.5,0-9.9,4.8-9.9,10.7c0,5.9,4.4,10.7,9.9,10.7h200c17.5,0,31.7,15.3,31.7,34.3l0,0H1762v0c0-13.2-3.8-25.6-10.3-36h-118.5
				c-21.8,0-39.4-17.6-39.4-39.4v0c0-21.8-17.6-39.4-39.4-39.4H1331c-14.4,0-26-11.6-26-26v0c0-14.4,11.6-26,26-26h359.5
				c17.1,0,31-13.9,31-31v0c0-17.1-13.9-31-31-31h-210.9c-22.1,0-40-17.9-40-40v0c0-22.1,17.9-40,40-40H1584c16,0,29-13,29-29v0
				c0-16,13-29,29-29h86c16,0,29-13,29-29v0c0-16-13-29-29-29h-219c-9.9,0-18-8.1-18-18v0c0-9.9,8.1-18,18-18h389.6
				c15.7,0,29.1-10,34.2-24h-66.7c-9.9,0-18-8.1-18-18v0c0-9.9,8.1-18,18-18h60.1c-6.7-7.8-16.6-12.7-27.6-12.7h-248.2
				c-13.6,0-24.6-11-24.6-24.6v0c0-13.6,11-24.6,24.6-24.6H1847c18.8,0,34-15.2,34-34v0c0-18.8-15.2-34-34-34h-34.3
				c-15.6,0-28.2-12.6-28.2-28.2v0C1784.6,386.1,1797.2,373.5,1812.7,373.5z"/>
			<path class="st0" d="M1456.1,554.8c0,0.1,0,0.2,0,0.3c0.2,4,3.5,7.3,7.6,7.3h36.9c4.2,0,7.6,3.4,7.6,7.6v0c0,4.2,3.4,7.6,7.6,7.6
				h48.7c4.2,0,7.6-3.4,7.6-7.6v0c0-4.2,3.4-7.6,7.6-7.6h21.5c4.2,0,7.6-3.4,7.6-7.6v0c0-4.2-3.4-7.6-7.6-7.6h0
				c-8,0-14.4-6.5-14.4-14.4v-1.4c0-8,6.5-14.4,14.4-14.4h1.7c5.9,0,10.8-4.8,10.8-10.8c0-3.3-1.5-6.2-3.8-8.2
				c-1.9-1.6-4.3-2.5-6.9-2.5h-7.9c-5.9,0-10.8-4.8-10.8-10.8s-4.8-10.8-10.8-10.8h-19.8c-0.1,1.2-0.2,2.4-0.2,3.7v0
				c0,19.1-14.3,34.6-32,34.6h-29.6c-4.8,0-9.2,2-12.5,5.1c6.8,1.5,11.9,7.5,11.9,14.8c0,8.4-6.8,15.1-15.1,15.1h-8.9
				c-2.8,3-6.5,4.9-10.7,5.5C1456.2,553.4,1456.1,554,1456.1,554.8L1456.1,554.8z"/>
		</g>
		<path class="st8" d="M1546.2,203.7v-5.9c0-0.2,0-0.5,0-0.7h-17.7c-0.9,0-1.6,0.3-2.3,0.7c-1.1,0.8-1.8,2.1-1.8,3.5
			c0,2.3-1.9,4.1-4.1,4.1h-0.2c-2.3,0-4.1,1.9-4.1,4.1v0c0,2.3,1.9,4.1,4.2,4.1c1.9,0,3.5,1.6,3.5,3.6v0.6c0,2.3,1.9,4.1,4.1,4.1
			h1.1c0.5,0,1,0.1,1.5,0.3c1.4,0.6,2.4,2,2.4,3.6c0,0,0,0,0,0c0.6,0.9,1.3,1.7,2.1,2.5C1541.7,222.6,1546.2,213.7,1546.2,203.7z"/>
		<path class="st0" d="M1536.7,229.7h6.4c2.2,0,3.9-1.7,3.9-3.9s1.7-3.9,3.9-3.9h0.6c2.3,0,4.1-1.9,4.1-4.1s1.9-4.1,4.1-4.1
			c1.7,0,3-1.3,3-3v-1.1c0-2.3-1.9-4.1-4.1-4.1h-1.4c-2.3,0-4.1-1.9-4.1-4.1s-1.9-4.1-4.1-4.1h-2.8c0,0.2,0,0.5,0,0.7v5.9
			c0,10-4.4,19-11.3,24.6c0.4,0.4,0.8,0.9,1.2,1.3C1536.3,229.7,1536.5,229.7,1536.7,229.7z"/>
	</g>
	<path class="st0" d="M1564.7,305.9h-3.5c-3.2,0-5.9-2.6-5.9-5.9c0-1-0.3-2-0.7-2.8c-1-1.8-2.9-3.1-5.2-3.1h-34.2
		c-2.2,0-4.2,1.2-5.2,3.1c-0.5,0.8-0.7,1.8-0.7,2.8c0,3.2-2.6,5.9-5.9,5.9h-6.1c-3.6,0-6.5,2.9-6.5,6.5s2.9,6.5,6.5,6.5
		c2.9,0,5.2,2.4,5.2,5.2v1.1c0,3,2.4,5.4,5.4,5.4s5.4,2.4,5.4,5.4s2.4,5.4,5.4,5.4h22.5c3,0,5.4-2.4,5.4-5.4s2.4-5.4,5.4-5.4h1
		c3.2,0,5.9-2.6,5.9-5.9s2.6-5.9,5.9-5.9c3.4,0,6.1-2.7,6.1-6.1V312C1570.8,308.6,1568.1,305.9,1564.7,305.9z"/>
	<g>
		<path class="st7" d="M1517.3,640.9c6.9,0,12.5-5.6,12.5-12.5c0-3.3,1.3-6.3,3.4-8.5H1509c-9.9,0-18,8.1-18,18v0
			c0,9.5,7.3,17.2,16.6,17.9v-5.2C1507.6,645.3,1512,640.9,1517.3,640.9z"/>
		<path class="st0" d="M1581.6,615.9h-39.2c-3.6,0-6.9,1.5-9.1,4h57.5C1588.4,617.4,1585.2,615.9,1581.6,615.9z"/>
		<path class="st0" d="M1507.6,655.8v2.3c0,2.6,1,5,2.7,6.8c1.8,1.8,4.3,3,7,3h4.2c7.3,0,13.2,5.9,13.2,13.2s5.9,13.2,13.2,13.2
			h37.8c7.3,0,13.2-5.9,13.2-13.2s5.9-13.2,13.2-13.2c6.7,0,12.1-5.4,12.2-12H1509C1508.5,655.9,1508.1,655.9,1507.6,655.8z"/>
		<path class="st8" d="M1624.6,654.4c0-7.5-6-13.5-13.5-13.5h-4.5c-6.9,0-12.5-5.6-12.5-12.5c0-3.3-1.3-6.3-3.4-8.5h-57.5
			c-2.1,2.2-3.4,5.2-3.4,8.5c0,6.9-5.6,12.5-12.5,12.5c-5.4,0-9.8,4.4-9.8,9.8v5.2c0.5,0,0.9,0.1,1.4,0.1h115.6c0-0.1,0-0.2,0-0.2
			V654.4z"/>
	</g>
	<g>
		<path class="st0" d="M1476.1,851.7c0.4,1.3,0.6,2.7,0.6,4.1c0,7.7,6.3,14,14,14h78c7.7,0,14-6.3,14-14c0-1.4,0.2-2.7,0.6-4h-103.7
			C1478.5,851.9,1477.3,851.8,1476.1,851.7z"/>
		<path class="st8" d="M1596.8,841.8h12.4c7.2,0,13-5.8,13-13s-5.8-13-13-13h-12.4c-7.7,0-14-6.3-14-14s-6.3-14-14-14h-70
			c-7.7,0-14,6.3-14,14s-6.3,14-14,14h-10.3c-7.2,0-13,5.8-13,13s5.8,13,13,13h2.3c6.3,0,11.6,4.2,13.4,9.9c1.2,0.1,2.3,0.2,3.5,0.2
			h103.7C1585,846.1,1590.4,841.8,1596.8,841.8z"/>
	</g>
	<g>
		<path class="st9" d="M1578.4,993.2h-5c-4.2,0-7.7,3.4-7.7,7.7v2.6c0,4.2,3.4,7.7,7.7,7.7h16.5c1.6,0,3.1,0.4,4.5,1
			c-0.4-2.2-0.6-4.5-0.6-6.8v0c0-7.5-2.1-14.6-5.8-20.6C1587.4,989.5,1583.4,993.2,1578.4,993.2z"/>
		<path class="st0" d="M1589.9,1011.1h-16.5c-4.2,0-7.7-3.4-7.7-7.7v-2.6c0-4.2,3.4-7.7,7.7-7.7h5c4.9,0,9-3.7,9.6-8.5
			c-2.6-4.2-5.9-7.9-9.8-10.8h-25.3h-41.8c-5.3,0-9.7,4.3-9.7,9.7v0c0,5.3,4.3,9.7,9.7,9.7h3.4c4.9,0,9,4,9,9s-4,9-9,9h-2
			c-2.1,0-4.1,0.6-5.8,1.7c-3.1,1.9-5.2,5.4-5.2,9.3v0c0,6.1,4.9,11,11,11h0c6.1,0,11,4.9,11,11v0.4c0,6.1,4.9,11,11,11h31.2
			c0.1,0,0.1,0,0.2,0c4.8-0.1,8.8-3.1,10.3-7.4c0.4-1.2,0.7-2.5,0.7-3.8c0-6.2,5-11.2,11.2-11.2h1.9c4.5,0,8.4-2.8,10.1-6.7
			c-2.7-4.3-4.7-9.2-5.6-14.4C1593,1011.5,1591.5,1011.1,1589.9,1011.1z"/>
		<path class="st0" d="M1588,984.7c0-0.4,0.1-0.8,0.1-1.2v0c0-5.3-4.3-9.7-9.7-9.7h-0.2C1582.1,976.9,1585.4,980.5,1588,984.7z"/>
		<path class="st8" d="M1600.9,1022.2c0-4.5-2.7-8.3-6.5-10c0.9,5.2,2.8,10.1,5.6,14.4C1600.6,1025.2,1600.9,1023.7,1600.9,1022.2
			L1600.9,1022.2z"/>
	</g>
	<g>
		<path class="st7" d="M2183.2,43.9h-377.4c-9.3,0-18-2.9-25.1-7.9h-159.5c-15.5,0-27.9,12.7-27.5,28.3c0.4,15,13.1,26.7,28.1,26.7
			h30c21.3,0,38.6,17.3,38.6,38.6v0c0,21.3,17.3,38.6,38.6,38.6h9.1c-8.6-8-14.1-19.5-14.1-32.3v0c0-24.3,19.7-44,44-44h105
			c2.2-2.1,5.1-3.3,8.4-3.3h14.5c5.5,0,10-4.5,10-10s4.5-10,10-10h34.4c5.5,0,10,4.5,10,10s4.5,10,10,10h17.3c3.2,0,6.2,1.3,8.4,3.3
			h187.2c13.3,0,24-10.7,24-24v0C2207.2,54.6,2196.5,43.9,2183.2,43.9z"/>
		<g>
			<path class="st7" d="M1994,180h-26.8c-2.1,3.8-6.1,6.4-10.7,6.4h-42.2h-6.3c-4.6,0-8.6-2.6-10.7-6.4H1874
				c5.8,6.4,9.4,14.9,9.4,24.2v0c0,12.3-6.2,23.2-15.6,29.7H1994c14.9,0,27-12.1,27-27v0C2021,192.1,2008.9,180,1994,180z"/>
			<path class="st7" d="M1968.8,174.1c0-6.8,5.5-12.2,12.2-12.2h2.1c6.8,0,12.2-5.5,12.2-12.2c0-5-3-9.2-7.2-11.1
				c-1.5-0.7-3.2-1.1-5-1.1h-1.7c-6.7,0-12.5-5.3-12.6-12c-0.1-6.9,5.4-12.5,12.2-12.5h6.7c2.2,0,4.2-0.6,6-1.6c1.6-3,3.7-5.8,6-8.3
				c0.1-0.8,0.2-1.5,0.2-2.3v0c0-3.5-1.5-6.7-3.9-8.9h-123c-2.4,2.2-3.9,5.4-3.9,8.9v0c0,6.8,5.5,12.2,12.2,12.2h2.1
				c6.8,0,12.2,5.5,12.2,12.2v0c0,6.8-5.5,12.2-12.2,12.2h-1.7c-6.7,0-12.5,5.3-12.6,12c-0.1,6.9,5.4,12.5,12.2,12.5h2.1
				c6.7,0,12.4,5.3,12.3,12c0,2.2,0.5,4.3,1.5,6.1h69.9C1968.2,178.2,1968.8,176.2,1968.8,174.1z"/>
			<path class="st0" d="M1908,186.3h6.3h42.2c4.6,0,8.6-2.6,10.7-6.4h-69.9C1899.4,183.8,1903.4,186.3,1908,186.3z"/>
		</g>
		<path class="st0" d="M1970.4,88.6c-5.5,0-10-4.5-10-10s-4.5-10-10-10H1916c-5.5,0-10,4.5-10,10s-4.5,10-10,10h-14.5
			c-3.2,0-6.2,1.3-8.4,3.3h123c-2.2-2.1-5.1-3.3-8.4-3.3H1970.4z"/>
	</g>
	<path class="st0" d="M1942.6,205.3h-1.4c-2.3,0-4.1-1.9-4.1-4.1s-1.9-4.1-4.1-4.1h-20.5c-0.9,0-1.6,0.3-2.3,0.7
		c-1.1,0.8-1.8,2.1-1.8,3.5c0,2.3-1.9,4.1-4.1,4.1h-0.2c-2.3,0-4.1,1.9-4.1,4.1v0c0,2.3,1.9,4.1,4.2,4.1c1.9,0,3.5,1.6,3.5,3.6v0.6
		c0,2.3,1.9,4.1,4.1,4.1h1.1c0.5,0,1,0.1,1.5,0.3c1.4,0.6,2.4,2,2.4,3.6c0,0,0,0,0,0c1,1.3,2.1,2.6,3.3,3.8c0.2,0,0.4,0.1,0.6,0.1
		h6.4c2.2,0,3.9-1.7,3.9-3.9s1.7-3.9,3.9-3.9h0.6c2.3,0,4.1-1.9,4.1-4.1s1.9-4.1,4.1-4.1c1.7,0,3-1.3,3-3v-1.1
		C1946.8,207.2,1944.9,205.3,1942.6,205.3z"/>
	<g>
		<path class="st7" d="M1942.4,335.3c0-11.7-5.3-22.2-13.6-29.2h-29.5c-2.2,0-4.2,1.2-5.2,3.1c-0.5,0.8-0.7,1.8-0.7,2.8
			c0,3.2-2.6,5.9-5.9,5.9h-6.1c-3.6,0-6.5,2.9-6.5,6.5s2.9,6.5,6.5,6.5c2.9,0,5.2,2.4,5.2,5.2v1.1c0,3,2.4,5.4,5.4,5.4
			s5.4,2.4,5.4,5.4s2.4,5.4,5.4,5.4h22.5c3,0,5.4-2.4,5.4-5.4s2.4-5.4,5.4-5.4h1c2.2,0,4.2-1.3,5.2-3.1
			C1942.3,338.2,1942.4,336.8,1942.4,335.3L1942.4,335.3z"/>
		<path class="st0" d="M1948.7,330.9c3.4,0,6.1-2.7,6.1-6.1V324c0-3.4-2.7-6.1-6.1-6.1h-3.5c-3.2,0-5.9-2.6-5.9-5.9
			c0-1-0.3-2-0.7-2.8c-1-1.8-2.9-3.1-5.2-3.1h-4.7c8.3,7,13.6,17.5,13.6,29.2v0c0,1.4-0.1,2.8-0.2,4.2c0.4-0.8,0.7-1.8,0.7-2.8
			C1942.8,333.5,1945.5,330.9,1948.7,330.9z"/>
	</g>
	<g>
		<path class="st7" d="M1937,688.9L1937,688.9c0,1.9,0.2,3.7,0.4,5.5h32.4c7.3,0,13.2-5.9,13.2-13.2s5.9-13.2,13.2-13.2
			c6.7,0,12.1-5.4,12.2-12c0-0.1,0-0.2,0-0.2v-1.2c0-0.2,0-0.3,0-0.5H1972C1952.7,653.9,1937,669.6,1937,688.9z"/>
		<path class="st0" d="M1995.1,640.9h-4.5c-6.9,0-12.5-5.6-12.5-12.5c0-3.3-1.3-6.3-3.4-8.5c-2.3-2.5-5.5-4-9.1-4h-39.2
			c-3.6,0-6.9,1.5-9.1,4c-2.1,2.2-3.4,5.2-3.4,8.5c0,6.9-5.6,12.5-12.5,12.5c-5.4,0-9.8,4.4-9.8,9.8v7.5c0,2.6,1,5,2.7,6.8
			c1.8,1.8,4.3,3,7,3h4.2c7.3,0,13.2,5.9,13.2,13.2s5.9,13.2,13.2,13.2h5.4c-0.3-1.8-0.4-3.6-0.4-5.5v0c0-19.3,15.7-35,35-35h36.6
			C2008.3,646.7,2002.4,640.9,1995.1,640.9z"/>
	</g>
	<g>
		<path class="st7" d="M2075.9,723.9H1972c-17.5,0-31.9-12.8-34.6-29.5h-5.4c-7.3,0-13.2-5.9-13.2-13.2s-5.9-13.2-13.2-13.2h-4.2
			c-2.8,0-5.2-1.1-7-3c-1.7-1.8-2.7-4.1-2.7-6.8v-7.5c0-5.4,4.4-9.8,9.8-9.8c6.9,0,12.5-5.6,12.5-12.5c0-3.3,1.3-6.3,3.4-8.5
			c2.3-2.5,5.5-4,9.1-4h39.2c3.6,0,6.9,1.5,9.1,4c2.1,2.2,3.4,5.2,3.4,8.5c0,6.9,5.6,12.5,12.5,12.5h4.5c7.3,0,13.2,5.8,13.5,13h4
			c16,0,29-13,29-29v0c0-16-13-29-29-29h-79.7c-5.1,14-18.5,24-34.2,24h-307.9c2.1,2.2,3.4,5.2,3.4,8.5c0,6.9,5.6,12.5,12.5,12.5
			h4.5c7.5,0,13.5,6,13.5,13.5v1.2c0,0.1,0,0.2,0,0.2H1728c16,0,29,13,29,29v0c0,16-13,29-29,29h-86c-16,0-29,13-29,29v0
			c0,16-13,29-29,29h-104.4c-22.1,0-40,17.9-40,40v0c0,20.9,16,38.1,36.5,39.8c-1.8-5.7-7.1-9.9-13.4-9.9h-2.3c-7.2,0-13-5.8-13-13
			s5.8-13,13-13h10.3c7.7,0,14-6.3,14-14s6.3-14,14-14h70c7.7,0,14,6.3,14,14s6.3,14,14,14h12.4c7.2,0,13,5.8,13,13s-5.8,13-13,13
			h-12.4c-6.4,0-11.7,4.2-13.4,10h107.2c17.1,0,31,13.9,31,31v0c0,17.1-13.9,31-31,31H1331c-14.4,0-26,11.6-26,26v0
			c0,14.4,11.6,26,26,26h223.4c8.9,0,17.2,3,23.8,8h0.2c5.3,0,9.7,4.3,9.7,9.7v0c0,0.4,0,0.8-0.1,1.2c3.7,6,5.8,13,5.8,20.6v0
			c0,2.3,0.2,4.6,0.6,6.8c3.8,1.7,6.5,5.6,6.5,10v0c0,1.5-0.3,3-0.9,4.3c7,10.9,19.3,18.2,33.2,18.2h118.5
			c-12-19.1-33.3-31.9-57.5-31.9h-20.8c-12.4,0-22.5-10.1-22.5-22.5v0c0-12.4,10.1-22.5,22.5-22.5H1928c12.2,0,22-9.9,22-22v0
			c0-12.2-9.9-22-22-22h-61c-10.5,0-19-8.5-19-19v0c0-10.5,8.5-19,19-19h90.9c18.2,0,33-14.8,33-33v0c0-3.9-0.7-7.6-1.9-11h-8.3
			c-7.7,0-14,6.3-14,14s-6.3,14-14,14h-78c-7.7,0-14-6.3-14-14s-6.3-14-14-14h-2.3c-7.2,0-13-5.8-13-13s5.8-13,13-13h10.3
			c7.7,0,14-6.3,14-14s6.3-14,14-14h24.7c3.7-7.1,11-12,19.6-12h148.9c14.4,0,26-11.6,26-26v0
			C2101.9,735.5,2090.3,723.9,2075.9,723.9z"/>
		<path class="st7" d="M1905,797.9c0,12.2,9.8,22,22,22h31c14.3,0,26.6,9.2,31.1,22h4c7.2,0,13-5.8,13-13s-5.8-13-13-13h-12.4
			c-7.7,0-14-6.3-14-14s-6.3-14-14-14h-45.3C1905.9,790.9,1905,794.3,1905,797.9L1905,797.9z"/>
		<path class="st0" d="M1868.8,801.8c0,7.7-6.3,14-14,14h-10.3c-7.2,0-13,5.8-13,13s5.8,13,13,13h2.3c7.7,0,14,6.3,14,14
			s6.3,14,14,14h78c7.7,0,14-6.3,14-14s6.3-14,14-14h8.3c-4.5-12.8-16.7-22-31.1-22h-31c-12.2,0-22-9.8-22-22v0c0-3.6,0.9-7,2.4-10
			h-24.7C1875,787.8,1868.8,794.1,1868.8,801.8z"/>
	</g>
	<path class="st7" d="M1973.9,1011.1h-16.5c-4.2,0-7.7-3.4-7.7-7.7v-2.6c0-4.2,3.4-7.7,7.7-7.7h5c5.3,0,9.7-4.3,9.7-9.7v0
		c0-5.3-4.3-9.7-9.7-9.7h-25.5h-41.8c-5.3,0-9.7,4.3-9.7,9.7v0c0,5.3,4.3,9.7,9.7,9.7h3.4c4.9,0,9,4,9,9s-4,9-9,9h-2
		c-2.1,0-4.1,0.6-5.8,1.7c-3.1,1.9-5.2,5.4-5.2,9.3v0c0,6.1,4.9,11,11,11h0c6.1,0,11,4.9,11,11v0.4c0,6.1,4.9,11,11,11h31.2
		c0.1,0,0.1,0,0.2,0c4.8-0.1,8.8-3.1,10.3-7.4c0.4-1.2,0.7-2.5,0.7-3.8c0-6.2,5-11.2,11.2-11.2h1.9c6.1,0,11-4.9,11-11v0
		C1984.9,1016.1,1980,1011.1,1973.9,1011.1z"/>
	<g>
		<path class="st7" d="M1865.2,495.3c5.5-0.4,9.9-5.1,9.9-10.7c0-0.6,0.1-1.2,0.2-1.8c-3.8,5.6-9.1,10-15.5,12.6h4.5
			C1864.6,495.4,1864.9,495.4,1865.2,495.3z"/>
		<path class="st7" d="M1985,516.9c-8,0-14.4,6.5-14.4,14.4v1.4c0,8,6.5,14.4,14.4,14.4h0c4.2,0,7.6,3.4,7.6,7.6v0
			c0,2-0.8,3.8-2,5.1h89.1c12.3,0,22.3-10,22.3-22.3v0c0-12.3-10-22.3-22.3-22.3h-87.5c-1.6,0.9-3.5,1.5-5.5,1.5H1985z"/>
		<path class="st7" d="M1875.1,532c0-8.4-6.8-15.1-15.1-15.1h-3.5c-5.9,0-10.8-4.8-10.8-10.8c0-3.4,1.6-6.4,4-8.4
			c-0.9,0.1-1.8,0.1-2.7,0.1h-196.5c-13.6,0-24.6,11-24.6,24.6v0c0,13.6,11,24.6,24.6,24.6h197.2h12.3
			C1868.3,547.2,1875.1,540.4,1875.1,532z"/>
		<path class="st7" d="M2121.6,415.9h-104.8c-21.5,0-39-17.5-39-39v0c0-21.5,17.5-39,39-39h28.1c12.2,0,22-9.8,22-22v0
			c0-12.2-9.8-22-22-22h-258.2c4,2.1,8.5,3.3,13.3,3.3h104.2c9.3,0,17.9,3.4,24.5,8.9h4.7c2.2,0,4.2,1.2,5.2,3.1
			c0.5,0.8,0.7,1.8,0.7,2.8c0,3.2,2.6,5.9,5.9,5.9h3.5c3.4,0,6.1,2.7,6.1,6.1v0.8c0,3.4-2.7,6.1-6.1,6.1c-3.2,0-5.9,2.6-5.9,5.9
			c0,1-0.3,1.9-0.7,2.8c-2.1,19.1-18.3,34-37.9,34h-91.5c-15.6,0-28.2,12.6-28.2,28.2v0c0,15.6,12.6,28.2,28.2,28.2h34.3
			c18.8,0,34,15.2,34,34v0c0,4.6-0.9,9-2.6,13c1.9-1.8,4.5-3,7.4-3h71.5c2.3,0,4.5,0.7,6.2,2h158c16.6,0,30-13.4,30-30v0
			C2151.6,429.3,2138.2,415.9,2121.6,415.9z"/>
		<path class="st7" d="M1889.9,495.6L1889.9,495.6c0,10.9,8.8,19.7,19.7,19.7h82.5c3.2-1.9,5.3-5.3,5.3-9.2c0-3.3-1.5-6.2-3.8-8.2
			c-1.9-1.6-4.3-2.5-6.9-2.5h-7.9c-5.9,0-10.8-4.8-10.8-10.8c0-3.6-1.8-6.8-4.5-8.8h-53.9C1898.8,475.9,1889.9,484.7,1889.9,495.6z"
			/>
		<path class="st0" d="M1875.3,482.8c1.3-1.9,2.3-3.9,3.2-6C1876.8,478.4,1875.7,480.5,1875.3,482.8z"/>
		<g>
			<path class="st7" d="M1892.1,569.9L1892.1,569.9c0-4.2-3.4-7.6-7.6-7.6h-27.4c-5.4,3.1-9,8.9-9,15.6v0c0,9.9,8.1,18,18,18h66.7
				c1.4-3.9,2.2-8,2.2-12.4v0c0-2.1-0.2-4.1-0.5-6.1h-34.8C1895.5,577.5,1892.1,574.1,1892.1,569.9z"/>
			<path class="st0" d="M1926.2,559.9c4.2,4.9,7.1,10.9,8.2,17.6h13.9c4.2,0,7.6-3.4,7.6-7.6v0c0-4.2,3.4-7.6,7.6-7.6h21.5
				c2.2,0,4.2-0.9,5.6-2.4H1926.2z"/>
			<path class="st0" d="M1926.2,559.9c-6.7-7.8-16.6-12.7-27.6-12.7h-38.7h-12.3c-4.2,0-7.6,3.4-7.6,7.6v0c0,0.1,0,0.2,0,0.3
				c0.2,4,3.5,7.3,7.6,7.3h9.4c2.7-1.5,5.7-2.4,9-2.4H1926.2z"/>
			<path class="st8" d="M1866.1,559.9c-3.3,0-6.4,0.9-9,2.4h27.4c4.2,0,7.6,3.4,7.6,7.6v0c0,4.2,3.4,7.6,7.6,7.6h34.8
				c-1.1-6.7-4-12.7-8.2-17.6H1866.1z"/>
		</g>
		<path class="st0" d="M1856.5,495.4c-2.6,0-4.9,0.9-6.7,2.4c3.5-0.3,6.9-1.1,10.1-2.4H1856.5z"/>
		<path class="st0" d="M1885.8,473.9c-2.9,0-5.5,1.1-7.4,3c-0.9,2.1-1.9,4.1-3.2,6c-0.1,0.6-0.2,1.2-0.2,1.8
			c0,5.7-4.4,10.3-9.9,10.7c-0.3,0-0.6,0-0.8,0h-4.5c-3.1,1.3-6.5,2.1-10.1,2.4c-2.4,2-4,5-4,8.4c0,5.9,4.8,10.8,10.8,10.8h3.5
			c8.4,0,15.1,6.8,15.1,15.1s-6.8,15.1-15.1,15.1h38.7c11,0,20.9,4.9,27.6,12.7h64.3c1.2-1.3,2-3.1,2-5.1v0c0-4.2-3.4-7.6-7.6-7.6h0
			c-8,0-14.4-6.5-14.4-14.4v-1.4c0-8,6.5-14.4,14.4-14.4h1.7c2,0,3.9-0.6,5.5-1.5h-82.5c-10.9,0-19.7-8.8-19.7-19.7v0
			c0-10.9,8.8-19.7,19.7-19.7h53.9c-1.8-1.3-3.9-2-6.2-2H1885.8z"/>
	</g>
</g>
<g id="Layer_2">
	<path class="st10" d="M384.1,93.7h-3c-6,0-11.5,3.2-14.5,8.3l-1.5,2.6c-3,5.2-3,11.5,0,16.7l1.5,2.6c3,5.2,8.5,8.3,14.5,8.3h3
		c6,0,11.5-3.2,14.5-8.3l1.5-2.6c3-5.2,3-11.5,0-16.7l-1.5-2.6C395.5,96.9,390,93.7,384.1,93.7z"/>
	<g>
		<defs>
			<path id="XMLID_1_" d="M412.2,120l-11.3-6.5c-5.2-3-11.5-3-16.7,0L373,120c-5.2,3-8.3,8.5-8.3,14.5v13c0,6,3.2,11.5,8.3,14.5
				l11.3,6.5c5.2,3,11.5,3,16.7,0l11.3-6.5c5.2-3,8.3-8.5,8.3-14.5v-13C420.5,128.5,417.4,123,412.2,120z"/>
		</defs>
		<use xlink:href="#XMLID_1_"  style="overflow:visible;fill:#636363;"/>
		<clipPath id="XMLID_12_">
			<use xlink:href="#XMLID_1_"  style="overflow:visible;"/>
		</clipPath>
		<path class="st11" d="M426.3,113c-15,30.2-35.3,50.9-97.7,74.2s138,6.3,131-31.3S426.3,113,426.3,113z"/>
	</g>
	<g>
		<defs>
			<path id="XMLID_2_" d="M380,540.8l12.5-3.4c5.8-1.5,10.3-6,11.8-11.8l3.4-12.5c1.5-5.8-0.1-11.9-4.3-16.1l-9.2-9.2
				c-4.2-4.2-10.4-5.9-16.1-4.3l-12.5,3.4c-5.8,1.5-10.3,6-11.8,11.8l-3.4,12.5c-1.5,5.8,0.1,11.9,4.3,16.1l9.2,9.2
				C368.1,540.7,374.3,542.3,380,540.8z"/>
		</defs>
		<use xlink:href="#XMLID_2_"  style="overflow:visible;fill:#636363;"/>
		<clipPath id="XMLID_13_">
			<use xlink:href="#XMLID_2_"  style="overflow:visible;"/>
		</clipPath>
		<path class="st12" d="M330.1,536.3c22.9-24.8,48.2-38.9,114.6-43.8s-130.7-44.8-134.5-6.7C306.3,523.9,330.1,536.3,330.1,536.3z"
			/>
	</g>
	<path class="st10" d="M414.6,545.6L414.6,545.6c4.2-4.2,5.9-10.4,4.3-16.1l0,0c-1.5-5.8-6-10.3-11.8-11.8h0
		c-5.8-1.5-11.9,0.1-16.1,4.3h0c-4.2,4.2-5.9,10.4-4.3,16.1l0,0c1.5,5.8,6,10.3,11.8,11.8h0C404.2,551.4,410.3,549.8,414.6,545.6z"
		/>
	<path class="st13" d="M386.2,217.8l-3.5,1.9c-2.1,1.2-4.6,1.1-6.7-0.1l-3.4-2c-2-1.2-3.3-3.5-3.2-5.8l0.1-4c0-2.4,1.3-4.6,3.4-5.7
		l3.5-1.9c2.1-1.2,4.6-1.1,6.7,0.1l3.4,2c2,1.2,3.3,3.5,3.2,5.8l-0.1,4C389.6,214.4,388.3,216.6,386.2,217.8z"/>
	<path class="st13" d="M362.3,328.4l-5.6-7.2c-1.5-1.9-1.8-4.4-0.9-6.6l3.4-8.5c0.9-2.2,2.9-3.8,5.3-4.1l9-1.3
		c2.4-0.3,4.7,0.6,6.2,2.5l5.6,7.2c1.5,1.9,1.8,4.4,0.9,6.6l-3.4,8.5c-0.9,2.2-2.9,3.8-5.3,4.1l-9,1.3
		C366.2,331.2,363.8,330.2,362.3,328.4z"/>
	<path class="st13" d="M393.8,665.1l-5.6-7.2c-1.5-1.9-1.8-4.4-0.9-6.6l3.4-8.5c0.9-2.2,2.9-3.8,5.3-4.1l9-1.3
		c2.4-0.3,4.7,0.6,6.2,2.5l5.6,7.2c1.5,1.9,1.8,4.4,0.9,6.6l-3.4,8.5c-0.9,2.2-2.9,3.8-5.3,4.1l-9,1.3
		C397.6,667.9,395.2,667,393.8,665.1z"/>
	<path class="st13" d="M356.8,852.4l-12.9-16.6c-1.5-1.9-1.8-4.4-0.9-6.6l7.9-19.5c0.9-2.2,2.9-3.8,5.3-4.1l20.8-2.9
		c2.4-0.3,4.7,0.6,6.2,2.5l12.9,16.6c1.5,1.9,1.8,4.4,0.9,6.6l-7.9,19.5c-0.9,2.2-2.9,3.8-5.3,4.1l-20.8,2.9
		C360.6,855.3,358.3,854.3,356.8,852.4z"/>
	<path class="st13" d="M389,1046.9l-5.3-6.8c-1.5-1.9-1.8-4.4-0.9-6.6l3.2-7.9c0.9-2.2,2.9-3.8,5.3-4.1l8.5-1.2
		c2.4-0.3,4.7,0.6,6.2,2.5l5.3,6.8c1.5,1.9,1.8,4.4,0.9,6.6l-3.2,7.9c-0.9,2.2-2.9,3.8-5.3,4.1l-8.5,1.2
		C392.8,1049.7,390.4,1048.8,389,1046.9z"/>
	<path class="st13" d="M374.3,1005.1l-1.4-1.9c-1.5-1.9-1.8-4.4-0.9-6.6l0.9-2.2c0.9-2.2,2.9-3.8,5.3-4.1l2.3-0.3
		c2.4-0.3,4.7,0.6,6.2,2.5l1.4,1.9c1.5,1.9,1.8,4.4,0.9,6.6l-0.9,2.2c-0.9,2.2-2.9,3.8-5.3,4.1l-2.3,0.3
		C378.1,1008,375.8,1007,374.3,1005.1z"/>
	<path class="st10" d="M775.2,93.7h-3c-6,0-11.5,3.2-14.5,8.3l-1.5,2.6c-3,5.2-3,11.5,0,16.7l1.5,2.6c3,5.2,8.5,8.3,14.5,8.3h3
		c6,0,11.5-3.2,14.5-8.3l1.5-2.6c3-5.2,3-11.5,0-16.7l-1.5-2.6C786.6,96.9,781.1,93.7,775.2,93.7z"/>
	<g>
		<defs>
			<path id="XMLID_4_" d="M803.3,120l-11.3-6.5c-5.2-3-11.5-3-16.7,0l-11.3,6.5c-5.2,3-8.3,8.5-8.3,14.5v13c0,6,3.2,11.5,8.3,14.5
				l11.3,6.5c5.2,3,11.5,3,16.7,0l11.3-6.5c5.2-3,8.3-8.5,8.3-14.5v-13C811.6,128.5,808.4,123,803.3,120z"/>
		</defs>
		<use xlink:href="#XMLID_4_"  style="overflow:visible;fill:#636363;"/>
		<clipPath id="XMLID_14_">
			<use xlink:href="#XMLID_4_"  style="overflow:visible;"/>
		</clipPath>
		<path class="st14" d="M817.4,113c-15,30.2-35.3,50.9-97.7,74.2s138,6.3,131-31.3S817.4,113,817.4,113z"/>
	</g>
	<g>
		<defs>
			<path id="XMLID_3_" d="M771.1,540.8l12.5-3.4c5.8-1.5,10.3-6,11.8-11.8l3.4-12.5c1.5-5.8-0.1-11.9-4.3-16.1l-9.2-9.2
				c-4.2-4.2-10.4-5.9-16.1-4.3l-12.5,3.4c-5.8,1.5-10.3,6-11.8,11.8l-3.4,12.5c-1.5,5.8,0.1,11.9,4.3,16.1l9.2,9.2
				C759.2,540.7,765.3,542.3,771.1,540.8z"/>
		</defs>
		<use xlink:href="#XMLID_3_"  style="overflow:visible;fill:#636363;"/>
		<clipPath id="XMLID_15_">
			<use xlink:href="#XMLID_3_"  style="overflow:visible;"/>
		</clipPath>
		<path class="st15" d="M721.2,536.3c22.9-24.8,48.2-38.9,114.6-43.8s-130.7-44.8-134.5-6.7C697.4,523.9,721.2,536.3,721.2,536.3z"
			/>
	</g>
	<path class="st10" d="M805.6,545.6L805.6,545.6c4.2-4.2,5.9-10.4,4.3-16.1l0,0c-1.5-5.8-6-10.3-11.8-11.8h0
		c-5.8-1.5-11.9,0.1-16.1,4.3h0c-4.2,4.2-5.9,10.4-4.3,16.1l0,0c1.5,5.8,6,10.3,11.8,11.8h0C795.3,551.4,801.4,549.8,805.6,545.6z"
		/>
	<path class="st13" d="M777.3,217.8l-3.5,1.9c-2.1,1.2-4.6,1.1-6.7-0.1l-3.4-2c-2-1.2-3.3-3.5-3.2-5.8l0.1-4c0-2.4,1.3-4.6,3.4-5.7
		l3.5-1.9c2.1-1.2,4.6-1.1,6.7,0.1l3.4,2c2,1.2,3.3,3.5,3.2,5.8l-0.1,4C780.7,214.4,779.4,216.6,777.3,217.8z"/>
	<path class="st13" d="M753.4,328.4l-5.6-7.2c-1.5-1.9-1.8-4.4-0.9-6.6l3.4-8.5c0.9-2.2,2.9-3.8,5.3-4.1l9-1.3
		c2.4-0.3,4.7,0.6,6.2,2.5l5.6,7.2c1.5,1.9,1.8,4.4,0.9,6.6l-3.4,8.5c-0.9,2.2-2.9,3.8-5.3,4.1l-9,1.3
		C757.3,331.2,754.9,330.2,753.4,328.4z"/>
	<path class="st13" d="M784.9,665.1l-5.6-7.2c-1.5-1.9-1.8-4.4-0.9-6.6l3.4-8.5c0.9-2.2,2.9-3.8,5.3-4.1l9-1.3
		c2.4-0.3,4.7,0.6,6.2,2.5l5.6,7.2c1.5,1.9,1.8,4.4,0.9,6.6l-3.4,8.5c-0.9,2.2-2.9,3.8-5.3,4.1l-9,1.3
		C788.7,667.9,786.3,667,784.9,665.1z"/>
	<path class="st13" d="M747.9,852.4L735,835.8c-1.5-1.9-1.8-4.4-0.9-6.6l7.9-19.5c0.9-2.2,2.9-3.8,5.3-4.1l20.8-2.9
		c2.4-0.3,4.7,0.6,6.2,2.5l12.9,16.6c1.5,1.9,1.8,4.4,0.9,6.6l-7.9,19.5c-0.9,2.2-2.9,3.8-5.3,4.1l-20.8,2.9
		C751.7,855.3,749.4,854.3,747.9,852.4z"/>
	<path class="st13" d="M780,1046.9l-5.3-6.8c-1.5-1.9-1.8-4.4-0.9-6.6l3.2-7.9c0.9-2.2,2.9-3.8,5.3-4.1l8.5-1.2
		c2.4-0.3,4.7,0.6,6.2,2.5l5.3,6.8c1.5,1.9,1.8,4.4,0.9,6.6l-3.2,7.9c-0.9,2.2-2.9,3.8-5.3,4.1l-8.5,1.2
		C783.9,1049.7,781.5,1048.8,780,1046.9z"/>
	<path class="st13" d="M765.4,1005.1l-1.4-1.9c-1.5-1.9-1.8-4.4-0.9-6.6l0.9-2.2c0.9-2.2,2.9-3.8,5.3-4.1l2.3-0.3
		c2.4-0.3,4.7,0.6,6.2,2.5l1.4,1.9c1.5,1.9,1.8,4.4,0.9,6.6l-0.9,2.2c-0.9,2.2-2.9,3.8-5.3,4.1l-2.3,0.3
		C769.2,1008,766.9,1007,765.4,1005.1z"/>
	<path class="st10" d="M1159.2,93.7h-3c-6,0-11.5,3.2-14.5,8.3l-1.5,2.6c-3,5.2-3,11.5,0,16.7l1.5,2.6c3,5.2,8.5,8.3,14.5,8.3h3
		c6,0,11.5-3.2,14.5-8.3l1.5-2.6c3-5.2,3-11.5,0-16.7l-1.5-2.6C1170.6,96.9,1165.1,93.7,1159.2,93.7z"/>
	<g>
		<defs>
			<path id="XMLID_6_" d="M1187.3,120l-11.3-6.5c-5.2-3-11.5-3-16.7,0l-11.3,6.5c-5.2,3-8.3,8.5-8.3,14.5v13c0,6,3.2,11.5,8.3,14.5
				l11.3,6.5c5.2,3,11.5,3,16.7,0l11.3-6.5c5.2-3,8.3-8.5,8.3-14.5v-13C1195.6,128.5,1192.4,123,1187.3,120z"/>
		</defs>
		<use xlink:href="#XMLID_6_"  style="overflow:visible;fill:#636363;"/>
		<clipPath id="XMLID_16_">
			<use xlink:href="#XMLID_6_"  style="overflow:visible;"/>
		</clipPath>
		<path class="st16" d="M1201.4,113c-15,30.2-35.3,50.9-97.7,74.2s138,6.3,131-31.3S1201.4,113,1201.4,113z"/>
	</g>
	<g>
		<defs>
			<path id="XMLID_5_" d="M1155.1,540.8l12.5-3.4c5.8-1.5,10.3-6,11.8-11.8l3.4-12.5c1.5-5.8-0.1-11.9-4.3-16.1l-9.2-9.2
				c-4.2-4.2-10.4-5.9-16.1-4.3l-12.5,3.4c-5.8,1.5-10.3,6-11.8,11.8l-3.4,12.5c-1.5,5.8,0.1,11.9,4.3,16.1l9.2,9.2
				C1143.2,540.7,1149.3,542.3,1155.1,540.8z"/>
		</defs>
		<use xlink:href="#XMLID_5_"  style="overflow:visible;fill:#636363;"/>
		<clipPath id="XMLID_17_">
			<use xlink:href="#XMLID_5_"  style="overflow:visible;"/>
		</clipPath>
		<path class="st17" d="M1105.2,536.3c22.9-24.8,48.2-38.9,114.6-43.8s-130.7-44.8-134.5-6.7S1105.2,536.3,1105.2,536.3z"/>
	</g>
	<path class="st10" d="M1189.6,545.6L1189.6,545.6c4.2-4.2,5.9-10.4,4.3-16.1l0,0c-1.5-5.8-6-10.3-11.8-11.8l0,0
		c-5.8-1.5-11.9,0.1-16.1,4.3l0,0c-4.2,4.2-5.9,10.4-4.3,16.1l0,0c1.5,5.8,6,10.3,11.8,11.8l0,0
		C1179.3,551.4,1185.4,549.8,1189.6,545.6z"/>
	<path class="st13" d="M1161.3,217.8l-3.5,1.9c-2.1,1.2-4.6,1.1-6.7-0.1l-3.4-2c-2-1.2-3.3-3.5-3.2-5.8l0.1-4c0-2.4,1.3-4.6,3.4-5.7
		l3.5-1.9c2.1-1.2,4.6-1.1,6.7,0.1l3.4,2c2,1.2,3.3,3.5,3.2,5.8l-0.1,4C1164.7,214.4,1163.4,216.6,1161.3,217.8z"/>
	<path class="st13" d="M1137.4,328.4l-5.6-7.2c-1.5-1.9-1.8-4.4-0.9-6.6l3.4-8.5c0.9-2.2,2.9-3.8,5.3-4.1l9-1.3
		c2.4-0.3,4.7,0.6,6.2,2.5l5.6,7.2c1.5,1.9,1.8,4.4,0.9,6.6l-3.4,8.5c-0.9,2.2-2.9,3.8-5.3,4.1l-9,1.3
		C1141.3,331.2,1138.9,330.2,1137.4,328.4z"/>
	<path class="st13" d="M1168.9,665.1l-5.6-7.2c-1.5-1.9-1.8-4.4-0.9-6.6l3.4-8.5c0.9-2.2,2.9-3.8,5.3-4.1l9-1.3
		c2.4-0.3,4.7,0.6,6.2,2.5l5.6,7.2c1.5,1.9,1.8,4.4,0.9,6.6l-3.4,8.5c-0.9,2.2-2.9,3.8-5.3,4.1l-9,1.3
		C1172.7,667.9,1170.3,667,1168.9,665.1z"/>
	<path class="st13" d="M1131.9,852.4l-12.9-16.6c-1.5-1.9-1.8-4.4-0.9-6.6l7.9-19.5c0.9-2.2,2.9-3.8,5.3-4.1l20.8-2.9
		c2.4-0.3,4.7,0.6,6.2,2.5l12.9,16.6c1.5,1.9,1.8,4.4,0.9,6.6l-7.9,19.5c-0.9,2.2-2.9,3.8-5.3,4.1l-20.8,2.9
		C1135.7,855.3,1133.4,854.3,1131.9,852.4z"/>
	<path class="st13" d="M1164,1046.9l-5.3-6.8c-1.5-1.9-1.8-4.4-0.9-6.6l3.2-7.9c0.9-2.2,2.9-3.8,5.3-4.1l8.5-1.2
		c2.4-0.3,4.7,0.6,6.2,2.5l5.3,6.8c1.5,1.9,1.8,4.4,0.9,6.6l-3.2,7.9c-0.9,2.2-2.9,3.8-5.3,4.1l-8.5,1.2
		C1167.9,1049.7,1165.5,1048.8,1164,1046.9z"/>
	<path class="st13" d="M1149.4,1005.1l-1.4-1.9c-1.5-1.9-1.8-4.4-0.9-6.6l0.9-2.2c0.9-2.2,2.9-3.8,5.3-4.1l2.3-0.3
		c2.4-0.3,4.7,0.6,6.2,2.5l1.4,1.9c1.5,1.9,1.8,4.4,0.9,6.6l-0.9,2.2c-0.9,2.2-2.9,3.8-5.3,4.1l-2.3,0.3
		C1153.2,1008,1150.9,1007,1149.4,1005.1z"/>
	<path class="st10" d="M1543.2,93.7h-3c-6,0-11.5,3.2-14.5,8.3l-1.5,2.6c-3,5.2-3,11.5,0,16.7l1.5,2.6c3,5.2,8.5,8.3,14.5,8.3h3
		c6,0,11.5-3.2,14.5-8.3l1.5-2.6c3-5.2,3-11.5,0-16.7l-1.5-2.6C1554.6,96.9,1549.1,93.7,1543.2,93.7z"/>
	<g>
		<defs>
			<path id="XMLID_8_" d="M1571.3,120l-11.3-6.5c-5.2-3-11.5-3-16.7,0l-11.3,6.5c-5.2,3-8.3,8.5-8.3,14.5v13c0,6,3.2,11.5,8.3,14.5
				l11.3,6.5c5.2,3,11.5,3,16.7,0l11.3-6.5c5.2-3,8.3-8.5,8.3-14.5v-13C1579.6,128.5,1576.4,123,1571.3,120z"/>
		</defs>
		<use xlink:href="#XMLID_8_"  style="overflow:visible;fill:#636363;"/>
		<clipPath id="XMLID_18_">
			<use xlink:href="#XMLID_8_"  style="overflow:visible;"/>
		</clipPath>
		<path class="st18" d="M1585.4,113c-15,30.2-35.3,50.9-97.7,74.2s138,6.3,131-31.3S1585.4,113,1585.4,113z"/>
	</g>
	<g>
		<defs>
			<path id="XMLID_7_" d="M1539.1,540.8l12.5-3.4c5.8-1.5,10.3-6,11.8-11.8l3.4-12.5c1.5-5.8-0.1-11.9-4.3-16.1l-9.2-9.2
				c-4.2-4.2-10.4-5.9-16.1-4.3l-12.5,3.4c-5.8,1.5-10.3,6-11.8,11.8l-3.4,12.5c-1.5,5.8,0.1,11.9,4.3,16.1l9.2,9.2
				C1527.2,540.7,1533.3,542.3,1539.1,540.8z"/>
		</defs>
		<use xlink:href="#XMLID_7_"  style="overflow:visible;fill:#636363;"/>
		<clipPath id="XMLID_19_">
			<use xlink:href="#XMLID_7_"  style="overflow:visible;"/>
		</clipPath>
		<path class="st19" d="M1489.2,536.3c22.9-24.8,48.2-38.9,114.6-43.8s-130.7-44.8-134.5-6.7S1489.2,536.3,1489.2,536.3z"/>
	</g>
	<path class="st10" d="M1573.6,545.6L1573.6,545.6c4.2-4.2,5.9-10.4,4.3-16.1l0,0c-1.5-5.8-6-10.3-11.8-11.8l0,0
		c-5.8-1.5-11.9,0.1-16.1,4.3l0,0c-4.2,4.2-5.9,10.4-4.3,16.1l0,0c1.5,5.8,6,10.3,11.8,11.8l0,0
		C1563.3,551.4,1569.4,549.8,1573.6,545.6z"/>
	<path class="st13" d="M1545.3,217.8l-3.5,1.9c-2.1,1.2-4.6,1.1-6.7-0.1l-3.4-2c-2-1.2-3.3-3.5-3.2-5.8l0.1-4c0-2.4,1.3-4.6,3.4-5.7
		l3.5-1.9c2.1-1.2,4.6-1.1,6.7,0.1l3.4,2c2,1.2,3.3,3.5,3.2,5.8l-0.1,4C1548.7,214.4,1547.4,216.6,1545.3,217.8z"/>
	<path class="st13" d="M1521.4,328.4l-5.6-7.2c-1.5-1.9-1.8-4.4-0.9-6.6l3.4-8.5c0.9-2.2,2.9-3.8,5.3-4.1l9-1.3
		c2.4-0.3,4.7,0.6,6.2,2.5l5.6,7.2c1.5,1.9,1.8,4.4,0.9,6.6l-3.4,8.5c-0.9,2.2-2.9,3.8-5.3,4.1l-9,1.3
		C1525.3,331.2,1522.9,330.2,1521.4,328.4z"/>
	<path class="st13" d="M1552.9,665.1l-5.6-7.2c-1.5-1.9-1.8-4.4-0.9-6.6l3.4-8.5c0.9-2.2,2.9-3.8,5.3-4.1l9-1.3
		c2.4-0.3,4.7,0.6,6.2,2.5l5.6,7.2c1.5,1.9,1.8,4.4,0.9,6.6l-3.4,8.5c-0.9,2.2-2.9,3.8-5.3,4.1l-9,1.3
		C1556.7,667.9,1554.3,667,1552.9,665.1z"/>
	<path class="st13" d="M1515.9,852.4l-12.9-16.6c-1.5-1.9-1.8-4.4-0.9-6.6l7.9-19.5c0.9-2.2,2.9-3.8,5.3-4.1l20.8-2.9
		c2.4-0.3,4.7,0.6,6.2,2.5l12.9,16.6c1.5,1.9,1.8,4.4,0.9,6.6l-7.9,19.5c-0.9,2.2-2.9,3.8-5.3,4.1l-20.8,2.9
		C1519.7,855.3,1517.4,854.3,1515.9,852.4z"/>
	<path class="st13" d="M1548,1046.9l-5.3-6.8c-1.5-1.9-1.8-4.4-0.9-6.6l3.2-7.9c0.9-2.2,2.9-3.8,5.3-4.1l8.5-1.2
		c2.4-0.3,4.7,0.6,6.2,2.5l5.3,6.8c1.5,1.9,1.8,4.4,0.9,6.6l-3.2,7.9c-0.9,2.2-2.9,3.8-5.3,4.1l-8.5,1.2
		C1551.9,1049.7,1549.5,1048.8,1548,1046.9z"/>
	<path class="st13" d="M1533.4,1005.1l-1.4-1.9c-1.5-1.9-1.8-4.4-0.9-6.6l0.9-2.2c0.9-2.2,2.9-3.8,5.3-4.1l2.3-0.3
		c2.4-0.3,4.7,0.6,6.2,2.5l1.4,1.9c1.5,1.9,1.8,4.4,0.9,6.6l-0.9,2.2c-0.9,2.2-2.9,3.8-5.3,4.1l-2.3,0.3
		C1537.2,1008,1534.9,1007,1533.4,1005.1z"/>
	<path class="st10" d="M1927.2,93.7h-3c-6,0-11.5,3.2-14.5,8.3l-1.5,2.6c-3,5.2-3,11.5,0,16.7l1.5,2.6c3,5.2,8.5,8.3,14.5,8.3h3
		c6,0,11.5-3.2,14.5-8.3l1.5-2.6c3-5.2,3-11.5,0-16.7l-1.5-2.6C1938.6,96.9,1933.1,93.7,1927.2,93.7z"/>
	<g>
		<defs>
			<path id="XMLID_10_" d="M1955.3,120l-11.3-6.5c-5.2-3-11.5-3-16.7,0l-11.3,6.5c-5.2,3-8.3,8.5-8.3,14.5v13c0,6,3.2,11.5,8.3,14.5
				l11.3,6.5c5.2,3,11.5,3,16.7,0l11.3-6.5c5.2-3,8.3-8.5,8.3-14.5v-13C1963.6,128.5,1960.4,123,1955.3,120z"/>
		</defs>
		<use xlink:href="#XMLID_10_"  style="overflow:visible;fill:#636363;"/>
		<clipPath id="XMLID_20_">
			<use xlink:href="#XMLID_10_"  style="overflow:visible;"/>
		</clipPath>
		<path class="st20" d="M1969.4,113c-15,30.2-35.3,50.9-97.7,74.2s138,6.3,131-31.3S1969.4,113,1969.4,113z"/>
	</g>
	<g>
		<defs>
			<path id="XMLID_9_" d="M1923.1,540.8l12.5-3.4c5.8-1.5,10.3-6,11.8-11.8l3.4-12.5c1.5-5.8-0.1-11.9-4.3-16.1l-9.2-9.2
				c-4.2-4.2-10.4-5.9-16.1-4.3l-12.5,3.4c-5.8,1.5-10.3,6-11.8,11.8l-3.4,12.5c-1.5,5.8,0.1,11.9,4.3,16.1l9.2,9.2
				C1911.2,540.7,1917.3,542.3,1923.1,540.8z"/>
		</defs>
		<use xlink:href="#XMLID_9_"  style="overflow:visible;fill:#636363;"/>
		<clipPath id="XMLID_21_">
			<use xlink:href="#XMLID_9_"  style="overflow:visible;"/>
		</clipPath>
		<path class="st21" d="M1873.2,536.3c22.9-24.8,48.2-38.9,114.6-43.8s-130.7-44.8-134.5-6.7S1873.2,536.3,1873.2,536.3z"/>
	</g>
	<path class="st13" d="M1929.3,217.8l-3.5,1.9c-2.1,1.2-4.6,1.1-6.7-0.1l-3.4-2c-2-1.2-3.3-3.5-3.2-5.8l0.1-4c0-2.4,1.3-4.6,3.4-5.7
		l3.5-1.9c2.1-1.2,4.6-1.1,6.7,0.1l3.4,2c2,1.2,3.3,3.5,3.2,5.8l-0.1,4C1932.7,214.4,1931.4,216.6,1929.3,217.8z"/>
	<path class="st13" d="M1905.4,340.4l-5.6-7.2c-1.5-1.9-1.8-4.4-0.9-6.6l3.4-8.5c0.9-2.2,2.9-3.8,5.3-4.1l9-1.3
		c2.4-0.3,4.7,0.6,6.2,2.5l5.6,7.2c1.5,1.9,1.8,4.4,0.9,6.6l-3.4,8.5c-0.9,2.2-2.9,3.8-5.3,4.1l-9,1.3
		C1909.3,343.2,1906.9,342.2,1905.4,340.4z"/>
	<path class="st13" d="M1936.9,665.1l-5.6-7.2c-1.5-1.9-1.8-4.4-0.9-6.6l3.4-8.5c0.9-2.2,2.9-3.8,5.3-4.1l9-1.3
		c2.4-0.3,4.7,0.6,6.2,2.5l5.6,7.2c1.5,1.9,1.8,4.4,0.9,6.6l-3.4,8.5c-0.9,2.2-2.9,3.8-5.3,4.1l-9,1.3
		C1940.7,667.9,1938.3,667,1936.9,665.1z"/>
	<path class="st13" d="M1899.9,852.4l-12.9-16.6c-1.5-1.9-1.8-4.4-0.9-6.6l7.9-19.5c0.9-2.2,2.9-3.8,5.3-4.1l20.8-2.9
		c2.4-0.3,4.7,0.6,6.2,2.5l12.9,16.6c1.5,1.9,1.8,4.4,0.9,6.6l-7.9,19.5c-0.9,2.2-2.9,3.8-5.3,4.1l-20.8,2.9
		C1903.7,855.3,1901.4,854.3,1899.9,852.4z"/>
	<path class="st13" d="M1932,1046.9l-5.3-6.8c-1.5-1.9-1.8-4.4-0.9-6.6l3.2-7.9c0.9-2.2,2.9-3.8,5.3-4.1l8.5-1.2
		c2.4-0.3,4.7,0.6,6.2,2.5l5.3,6.8c1.5,1.9,1.8,4.4,0.9,6.6l-3.2,7.9c-0.9,2.2-2.9,3.8-5.3,4.1l-8.5,1.2
		C1935.9,1049.7,1933.5,1048.8,1932,1046.9z"/>
	<path class="st13" d="M1917.4,1005.1l-1.4-1.9c-1.5-1.9-1.8-4.4-0.9-6.6l0.9-2.2c0.9-2.2,2.9-3.8,5.3-4.1l2.3-0.3
		c2.4-0.3,4.7,0.6,6.2,2.5l1.4,1.9c1.5,1.9,1.8,4.4,0.9,6.6l-0.9,2.2c-0.9,2.2-2.9,3.8-5.3,4.1l-2.3,0.3
		C1921.2,1008,1918.9,1007,1917.4,1005.1z"/>
	<path class="st10" d="M1957.6,545.6L1957.6,545.6c4.2-4.2,5.9-10.4,4.3-16.1h0c-1.5-5.8-6-10.3-11.8-11.8l0,0
		c-5.8-1.5-11.9,0.1-16.1,4.3h0c-4.2,4.2-5.9,10.4-4.3,16.1l0,0c1.5,5.8,6,10.3,11.8,11.8l0,0
		C1947.3,551.4,1953.4,549.8,1957.6,545.6z"/>
</g>
</svg>
