<?xml version="1.0" encoding="utf-8"?>
<!-- Generator: Adobe Illustrator 21.0.0, SVG Export Plug-In . SVG Version: 6.00 Build 0)  -->
<svg version="1.1" id="Laag_1" xmlns="http://www.w3.org/2000/svg" xmlns:xlink="http://www.w3.org/1999/xlink" x="0px" y="0px"
	 viewBox="0 0 58 132.3" style="enable-background:new 0 0 58 132.3;" xml:space="preserve">
<style type="text/css">
	.st0{fill:#563827;stroke:#FFFFFF;stroke-miterlimit:10;}
	.st1{fill:#8C6B51;}
	.st2{fill:#AF5E27;}
	.st3{fill:#57594D;}
	.st4{fill:#A53E16;}
	.st5{fill:#72533E;}
	.st6{fill:#6D4922;stroke:#FFFFFF;stroke-miterlimit:10;}
	.st7{fill:#B77C42;}
	.st8{fill:#1EA813;}
	.st9{fill:#5C930D;}
	.st10{fill:#9B611C;}
</style>
<path class="st0" d="M54.8,130.5c-11,2.2-39.7,1.1-46.3,0c0-13.2,0-28.7,0-28.7S9.6,104,14,104s0-2.2,0-2.2l1.1-4.4L14,94.1h-3.3
	l1.1-3.3l-3.3-3.3c0,0,0-28.7,0-36.4S7.4,8,6.3,4.7c6.6-2.2,50-8.3,48.6,0c-3,16.9-11.6,78.6-6.6,89.4
	C53.1,104.6,54.8,130.5,54.8,130.5z"/>
<path class="st1" d="M10,105.6c1,2,6.5,1.5,7.5,0.5s1.5-1.8,1.5-2.5c0-0.5-1-1-1-1l-1-2l0.4-0.7c0,0,0.6-0.9,0.6-1.3
	c0.2-0.7,0-3,0-3s0-1-1-2s-2.6-0.6-3-1c-0.4-0.4,0.1-1.5,0-2c-0.2-1-0.7-0.9-1-1c-0.3-0.1-0.8-0.9-1-1c-0.2-0.1-1.9-1.2-2-1
	c-0.4,0.7,2.2,2.5,2.9,2.9c0.1,0.1,0.1,0.2,0.1,0.3c0,0.2-0.1,0.6,0,0.8c0.1,0.2-0.1,0.8,0,1c0.1,0.3,1.5,0.8,2,1
	c0.7,0.2,1.8,1.3,2,2c0.2,0.5,0.1,1.5,0,2c-0.2,0.8-1,2.2-1,3c0,0.5,0.8,1.8,0.8,1.8l1.2,1.2c0,0-0.5,1.8-1,2c-0.7,0.3-2.2,1-3,1
	s-3-1-3-1S9.9,105.4,10,105.6z"/>
<path class="st1" d="M49,110.6c-0.8-5.7-5.5-20.5-5.5-22.5s5.5-45.5,5-62c0-0.5-1.5-3.5-1.5-1.5c0,2.2-4.5,47.5-5,63
	c0.2,5.4,5,25,6,26S49.1,111.4,49,110.6z"/>
<path class="st2" d="M41,17.6c0,0,1,2,2,2c-1,1-1,1-1,1s-1-2-2-2C41,17.6,41,17.6,41,17.6z"/>
<path class="st1" d="M42.7,15.7c-0.5,1.9-2.9,5.3-5.6,5.4c1-1.5,0.3-0.9,0.3-0.9c2-0.3,2.3-1.8,2.7-2.2c1.5-1.6,1-3.3,1-6.3
	C41,10.2,43,14.7,42.7,15.7z"/>
<path class="st3" d="M42,12.6c0,0,0,6-6,9c-1,0-2-1-1-1s1.6,0,2-0.2c1.4-1,3.3-4.2,3.8-5.9C41,14,41.1,13,41,12.6c-0.1-0.5-1-2,0-2
	S42,12.6,42,12.6z"/>
<path class="st4" d="M43,18.6c0,0-1,2-2,3c1,1,4,1,4,0S44,19.6,43,18.6z"/>
<path class="st5" d="M52,128.6c0,0-9.7-1.9-20-2c-9.3-0.1-19.1,1.5-21,2c-1-1,0-2,1-2c0.5,0,10.4-1.1,20-1c9.7,0.1,19,1.5,20,2
	C53,128.6,52,128.6,52,128.6z"/>
<path class="st1" d="M49,128.6c0,0-32,1-33,0C19,127.6,48,127.6,49,128.6z"/>
<path class="st3" d="M25,62.6c1-3,2-7,1.6-25.2c-0.2-1.6-2.4,0.5-2.6,1.2c-0.4,1.5-0.1,4.5,0,6c0.3,4.8,0,15.1-1,19c0,2,1,1,1,1
	S24.9,62.8,25,62.6z"/>
<path class="st1" d="M27,61.6c0-2,3.5-14.1,3-21.4c0-0.4,0.3-6.4,0-6.6c-3.5-2.6-4,1-5,6c-0.6,3.1,1,14,1,15s0,5-1,7s-3,4,0,3
	C25.9,64.3,27,61.6,27,61.6z"/>
<path class="st1" d="M31.1,97c0,0-2.7-52.2-1.9-54.8c-2.2-3.2-2.1-0.7-2.1-0.7c1.6,50.6,1.5,50.1,1.8,53.9c0.3,4.1,3.9,12.2,4.9,13
	C35,109.2,31.1,97.8,31.1,97z"/>
<path class="st5" d="M48,108.6c0,0,1,6,0,5s-7-23-7-25s5.2-70.7,7-67c1,2-1,15-1,16s-3,35-3,35s-1.3,13.8-1,16
	C44,95.6,45,101.6,48,108.6z"/>
<path class="st5" d="M33.5,105.5c0,0-3.5-6.9-3.5-8.9s-1.5-38.8-1.8-41.9S27,39.4,27.5,37.5c0.5-1.9,2-4.5,2.5-3.9c1.1,1.3,0,5,0,9
	c0,5,1,22,1,28s0,21,1,25s5,12,4,13s-2,1-2,0S33.5,105.5,33.5,105.5z"/>
<path class="st1" d="M17,30.6c0,0-10-4-12-2c-1.9,1.8-3.6,3.4-4,4l-1-2c0,0,13-9,14-12C16,24.6,17,30.6,17,30.6z"/>
<path class="st5" d="M14,18.6c-1,2-4,6-5,7s0,0-1,1c-0.5,0.5,1,0,3,0s6,4,6,4C18,23.6,14,18.6,14,18.6z"/>
<path class="st5" d="M1,32.6c0,0,0.3-2.2-1-2C0.3,32,0.8,32.8,1,32.6z"/>
<path class="st5" d="M16.5,47.6c0,0,2.3-14.4-6-41.6c0.9-1.1,2.9-1.3,3.2,1.6s7.5,37.4,5.7,39.6C17.7,49.5,16.5,47.6,16.5,47.6z"/>
</svg>
