<?xml version="1.0" encoding="utf-8"?>
<!-- Generator: Adobe Illustrator 21.0.2, SVG Export Plug-In . SVG Version: 6.00 Build 0)  -->
<svg version="1.1" xmlns="http://www.w3.org/2000/svg" xmlns:xlink="http://www.w3.org/1999/xlink" x="0px" y="0px"
	 viewBox="0 0 74.7 134.4" style="enable-background:new 0 0 74.7 134.4;" xml:space="preserve">
<style type="text/css">
	.st0{fill:#49283D;}
	.st1{fill:#8E4C68;}
	.st2{fill:#6D631D;}
	.st3{fill:#E4D928;}
</style>
<g id="Layer_1">
	<path class="st0" d="M0,5.6c0,0,42.9-9.6,54.5-3.7c4.9,51.6-2.3,129.2-2.3,129.2S12.6,137,0.9,133C0,105.9,0,5.6,0,5.6z"/>
	<path class="st1" d="M64.7,30.4c0,0,0,0-0.7-4.1c-4.5,13-14.4,9.5-17.8,7.9C43,25,39.7,17.3,39.7,17.3s-6.4-6.3-5-0.4
		c1.5,6.1,2.3,7.5,3.3,9.3c1.8,3.2,0.8,2.1,5.9,9.2s5.6,22.9,5.4,24.8c-0.2,2-6.9,11.5-8.3,15.4s-1.6,7.9-1.6,7.9
		s9.9-11.2,12.7-21.1c1.1-3.9-0.6-11.7-3-19.7L64.7,30.4z"/>
	<path class="st2" d="M62.4,29.9c0,0-1.2-5.9,1-7.7c2.2-1.8,6.4-4.5,11.3-3.1c-1.5,5.9-2,11.9-5,12.6C66.6,32.5,62.4,29.9,62.4,29.9
		z"/>
	<path class="st1" d="M1.4,7.2c0,0,47.2-0.2,51.5-3.9C52.6,6.3,9.2,9.8,1.4,7.2z"/>
	<g>
		<polygon class="st3" points="65.1,26.9 66.4,22.5 65.4,22.4 65,27 63.6,28.3 65,27.1 65,27.4 65,27.2 70.9,27.8 71,26.8 65,27.1 
			65,27.1 72.5,20.9 73.1,19.5 		"/>
		<polygon class="st3" points="71.2,24.9 71.3,23.9 68.9,23.9 		"/>
		<polygon class="st3" points="69.5,20.7 68.5,20.6 69.6,22.7 		"/>
	</g>
	<path class="st2" d="M8.5,5.8c0,0,30.5-5.6,37.4-3C34.7,3.9,15.5,6.3,8.5,5.8z"/>
	<path class="st2" d="M54.1,37.5c0,0,0.1-1-0.9-1.1s0,0-2-0.2c-1.5-0.1-5.1-1-6.9-1.4c-3.2-8.6-6.9-16.7-8.5-20.2
		c-0.4-0.9-1.6-1.1-2.3-0.3c-0.4,0.5-0.8,1-0.8,1.4c-0.1,1-0.4,2.8,2.5,6.2c5.5,6.5,13.6,30.2,12.3,34.1c-1,2.8-6.8,9.5-8.3,15.4
		c-1.5,5.9-1.1,39-0.5,44.1s2.8,3.2,2.8,3.2s1.3-3.9-0.2-10s0.2-27.1,0.5-31.1s3.6-7.7,7.4-17.5c1.3-3.3,0-9.9-2.2-17
		C48.9,41.4,54.1,37.5,54.1,37.5z"/>
	<path class="st1" d="M18.2,109.9c-1.4-8.1,3.5-5.7,1-13c-1.7-5-6-12.6-8.5-16.8c0.1-28.5,0.3-61.4,0.6-65.6
		c-2.3,3.1-3.5,6.2-3.5,6.2S7.3,40.6,6.9,62.9c-0.4,26-0.5,55.4,0.7,60.2c3.5,0.3,3,0.2,3,0.2s0-14.5,0.1-32.9
		c1.6,1.9,3.7,4.1,5.6,6.3c3.7,4.3-0.3,4-0.7,9c-0.4,5,0.4,8.1,1,13.1c0.6,5.1,0.7,4.1,1.3,9.1c0.4,3.1,2.6,2.3,2.1-0.8
		C19.2,123,19.6,118,18.2,109.9z"/>
	<path class="st1" d="M2.4,131.7c11,0.9,40.1,0.2,47.3-2.2c1.1-0.9,1,0.1,1,0.1s-0.1,1-1.1,0.9s-27.4,3.8-45.3,2.4
		C2.4,132.7,1.9,131.7,2.4,131.7z"/>
	<path class="st2" d="M11.1,61.2c0,0,0.4,8.1,1,13.1c0.6,5.1,3.3,8.3,4.2,10.4c0.9,2.1,3.3,8.3,4.1,11.4c0.8,3.1,0.6,5.1-0.6,7
		s-1.4,5.6-1.1,7.8c0.3,2.2,2,18.4,2,18.4s-1.9,2.3-1.4,0.6s-2.9-22-1.6-25.9s2.6-4.5,1.2-7.8C17.6,92.8,8.7,79,8.8,77
		C9,75,11.1,61.2,11.1,61.2z"/>
	<path class="st1" d="M24.8,28.2c0,0-1.3,54.1,1,62.3C26.7,79.5,26.3,34.3,24.8,28.2z"/>
	<path class="st1" d="M25,25.2c0,0-0.1,63.2,1.3,71.3C27.7,104.6,27.9,39.4,25,25.2z"/>
</g>
<g id="Laag_2">
	<path class="st2" d="M83.9,33.8c0,0,0.3-2.2-1-2C83.2,33.2,83.7,34,83.9,33.8z"/>
</g>
</svg>
