<?xml version="1.0" encoding="utf-8"?>
<!-- Generator: Adobe Illustrator 21.0.0, SVG Export Plug-In . SVG Version: 6.00 Build 0)  -->
<svg version="1.1" id="Laag_1" xmlns="http://www.w3.org/2000/svg" xmlns:xlink="http://www.w3.org/1999/xlink" x="0px" y="0px"
	 viewBox="0 0 75.2 135.4" style="enable-background:new 0 0 75.2 135.4;" xml:space="preserve">
<style type="text/css">
	.st0{fill:#563827;stroke:#FFFFFF;stroke-miterlimit:10;}
	.st1{fill:#8C6B51;}
	.st2{fill:#AF5E27;}
	.st3{fill:#57594D;}
	.st4{fill:#A53E16;}
	.st5{fill:#72533E;}
	.st6{fill:#6D4922;stroke:#FFFFFF;stroke-miterlimit:10;}
	.st7{fill:#B77C42;}
	.st8{fill:#1EA813;}
	.st9{fill:#5C930D;}
	.st10{fill:#9B611C;}
</style>
<path class="st6" d="M0.5,6.1c0,0,42.9-9.6,54.5-3.7c4.9,51.6-2.3,129.2-2.3,129.2s-39.6,5.9-51.3,1.9C0.5,106.4,0.5,6.1,0.5,6.1z"
	/>
<path class="st7" d="M8.3,21.3c0,0-0.5,19.8-0.9,42.1c-0.4,26-0.5,55.4,0.7,60.2c3.5,0.3,3,0.2,3,0.2S11.2,22.6,11.8,15
	C9.6,18.1,8.3,21.3,8.3,21.3z"/>
<path class="st7" d="M45.6,34c0,0,13.5,8.6,19-7.2c0.7,4.1,0.7,4.1,0.7,4.1l-16.4,13L45.6,34z"/>
<path class="st7" d="M40.2,17.8c0,0,15.2,35.3,12.4,45.1S39.9,84,39.9,84s0.3-4,1.6-7.9c1.3-3.9,8.1-13.4,8.3-15.4
	c0.2-2-0.4-17.8-5.4-24.8s-4.1-6-5.9-9.2c-1-1.7-1.8-3.2-3.3-9.3C33.8,11.5,40.2,17.8,40.2,17.8z"/>
<path class="st8" d="M62.9,30.4c0,0-1.2-5.9,1-7.7s6.4-4.5,11.3-3.1c-1.5,5.9-2,11.9-5,12.6C67.1,33,62.9,30.4,62.9,30.4z"/>
<path class="st7" d="M1.9,7.7c0,0,47.2-0.2,51.5-3.9C53.1,6.8,9.7,10.3,1.9,7.7z"/>
<polygon class="st9" points="64.1,28.8 73.6,20 73,21.4 "/>
<polygon class="st9" points="65.5,27.6 71.5,27.3 71.4,28.3 "/>
<polygon class="st9" points="65.5,27.9 65.9,22.9 66.9,23 "/>
<polygon class="st9" points="69.4,24.4 71.8,24.4 71.7,25.4 "/>
<polygon class="st9" points="70.1,23.2 70,21.2 69,21.1 "/>
<path class="st10" d="M9,6.3c0,0,30.5-5.6,37.4-3C35.2,4.4,16,6.8,9,6.3z"/>
<path class="st10" d="M34.1,14.9c0.6-0.8,1.8-0.6,2.3,0.3c3.5,7.5,16.7,37.1,13.4,45.5c-3.8,9.7-7.1,13.5-7.4,17.5
	c-0.3,4-2,24.9-0.5,31.1c1.5,6.1,0.2,10,0.2,10s-2.2,1.8-2.8-3.2c-0.6-5.1-1-38.2,0.5-44.1c1.5-5.9,7.3-12.5,8.3-15.4
	c1.3-3.9-6.8-27.6-12.3-34.1c-3-3.5-2.6-5.2-2.5-6.2C33.3,15.9,33.7,15.3,34.1,14.9z"/>
<path class="st10" d="M43.8,35.1c0,0,5.9,1.5,7.9,1.7c2,0.2,1,0.1,2,0.2c1,0.1,0.9,1.1,0.9,1.1s-7.5,5.4-7.5,6.4
	C47,45.4,43.8,35.2,43.8,35.1"/>
<path class="st7" d="M9.3,77.5c0,0,8,12.7,10.4,19.9c2.4,7.2-2.4,4.8-1,13c1.4,8.1,1,13.1,1.6,17.2c0.5,3.1-1.7,4-2.1,0.8
	c-0.6-5.1-0.7-4.1-1.3-9.1c-0.6-5.1-1.4-8.1-1-13.1c0.4-5,4.4-4.7,0.7-9s-8.3-8.7-8.2-10.7c0.2-2,0.6-7,0.6-7L9.3,77.5z"/>
<path class="st7" d="M2.9,132.2c11,0.9,40.1,0.2,47.3-2.2c1.1-0.9,1,0.1,1,0.1s-0.1,1-1.1,0.9c-1-0.1-27.4,3.8-45.3,2.4
	C2.9,133.2,2.4,132.2,2.9,132.2z"/>
<path class="st10" d="M11.6,61.7c0,0,0.4,8.1,1,13.1c0.6,5.1,3.3,8.3,4.2,10.4s3.3,8.3,4.1,11.4c0.8,3.1,0.6,5.1-0.6,7
	c-1.2,1.9-1.4,5.6-1.1,7.8c0.3,2.2,2,18.4,2,18.4s-1.9,2.3-1.4,0.6c0.5-1.7-2.9-22-1.6-25.9c1.3-3.9,2.6-4.5,1.2-7.8
	c-1.4-3.3-10.3-17-10.1-19C9.5,75.5,11.6,61.7,11.6,61.7z"/>
<path class="st10" d="M25.3,28.7c0,0-1.3,54.1,1,62.3C27.2,80,26.8,34.8,25.3,28.7z"/>
<path class="st7" d="M25.5,25.7c0,0-0.1,63.2,1.3,71.3C28.2,105.1,28.4,39.9,25.5,25.7z"/>
</svg>
