<?xml version="1.0" encoding="utf-8"?>
<!-- Generator: Adobe Illustrator 21.0.2, SVG Export Plug-In . SVG Version: 6.00 Build 0)  -->
<svg version="1.1" xmlns="http://www.w3.org/2000/svg" xmlns:xlink="http://www.w3.org/1999/xlink" x="0px" y="0px"
	 viewBox="0 0 792 612" style="enable-background:new 0 0 792 612;" xml:space="preserve">
<style type="text/css">
	.st0{fill:#F8FAF2;}
	.st1{display:none;}
	.st2{display:inline;fill:#BBE0DF;}
	.st3{fill:#EB5A70;}
	.st4{fill:#FAE1E6;}
	.st5{fill:#56344D;}
</style>
<g id="Laag_5">
	<rect x="1" class="st0" width="791" height="612"/>
</g>
<g id="Laag_7" class="st1">
	<path class="st2" d="M639.9,301.2h-59.5c-10.9,0-14.7-18.9,10.2-18.5c24.9,0.3,23.7-20.1,8-20.8c-15.7-0.6-53.7,0-53.7,0
		c-17.9,0-28.1-19.8-6.4-19.8c21.7,0,79.3,0,79.3,0c15.3,0.3,19.8-20.5,1.3-20.5s-155,0-155,0c-16.3-0.3-26.5-21.1,8.3-21.4
		s125.3,0,125.3,0c13.7,0.6,20.1-22.1-3.8-21.7s-93,0-93,0c-19.2,0-22.1-19.2-0.6-20.5c21.4-1.3,137.8,0.3,158.2,0
		s30.4-23.7,6.4-24.3c-24-0.6-81.5,0-81.5,0c-13.1,0.3-22.7-17.6-1.3-17.6s31.3,0.6,32.6,0c15.7-0.6,16.6-20.5,0-20.8
		C598,95,459,95.3,459,95.3c-18.2,0.6-28.4,21.1-0.6,21.1c27.8,0,38.4,0,38.4,0c15.7,0.6,9.9,15.3-1.6,15.3
		c-11.5,0-169.7-0.3-169.7-0.3c-17.9,0-20.1,16.9-1.9,16.6s62.3,0.3,75.4,0.6s30,26.9,0,27.5s-215.4,1.3-215.4,1.3
		c-15.7,1-15.3,15.7,0,15.7s79,0.3,91.4,0.3s20.1,23-1.9,23.7s-220.2,0.3-220.2,0.3l71.7,538.1l490.1-9.4l71.6-312.8L639.9,301.2z"
		/>
</g>
<g id="Laag_6">
	<g>
		<g>
			<path class="st3" d="M698.7,390.7c0,0-65.8-46.2-86.9-49.1c-21.1-2.9-44.4-11.8-70.4-35.4c-3.7-2.7-7.4-5.4-9.4-8.6
				c0,0-33.1,12.5-65.3-24.8c-22.1-26-53-48.4-53-48.4c-5.2-4.9-27.7-8.8-30.4-12.3c-4.8-4.2-17.8-19.3-24.6-32.6
				c0,0-15.1,31.6-0.9,49.8c2,2.7,10.1,25.3-16,43.9s-22.1,47.4,19.6,88.4s-57.9,99.7-57.9,99.7L167.7,612l261.3,1h209l148.6-59.8
				L698.7,390.7z"/>
			<path class="st4" d="M531.3,297.8c0,0,7.7,12.4,3.3,19c-4.4,6.6-5,14-5,14l-57.5-52.1C472.1,278.8,497.7,306.2,531.3,297.8z"/>
		</g>
		<path class="st4" d="M358.6,179.6c0,0-10.2,25-3.2,39.3c7,14.4,14.7,39-10.3,54.1c-25,15.1-21.7,50.8,6.3,74
			c28,23.2,31.3,61.5-23.2,91S91.3,295.2,91.3,295.2v-61.5C91.3,233.6,255.1,306.7,358.6,179.6z"/>
	</g>
</g>
<g id="Laag_3">
	<g>
		<path class="st5" d="M792,100c0,0-3.8,20.1-5.3,15.5c-1.5-4.6-6.6-27-15.9,11.8c0-5.3-13.1-14.8-17.2,18.2
			c-2-13.1-8.6-10.1-13.6,12.9c-3.8-13.4-11.4-18.4-14.9,9.4c-7.1-16.3-14.4,0.7-17.2,16.5c-4.3-20.1-14.7-6.4-16.2,12.2
			c-8.1-18-13.6,6.4-15.2,13.9c-7.1-26.6-16.7,5.3-16.9,13.1c-7.3-21.1-10.9,12.4-10.9,12.4c-7.3-13.9-11.9,0-17.2,15.5
			c-6.1-17.5-14.4-5.3-15.2,7c-5.1-12.7-13.6,7-13.6,14.6c-4.5-18.5-14.4,14.8-14.4,14.8c-6.1-14.1-14.9,16.5-14.9,16.5
			c-5.1-16.1-15.7,13.4-15.7,13.4c-9.1-14.6-12.6-4.8-15.9,12.5c-7.8-17.5-12.9,6.7-13.6,11.3c-6.1-17-12.6-4.5-16.7,8.1
			c-4.8-16.3-12.9,16.3-12.9,16.3c-3-16-13.9,5.3-15.4,15.6c-7.6-17.2-13.6,5.2-16.4,17.2c-5.6-21.1-13.9-7.2-16.2,11
			c-3.5-16.7-12.6-5.7-15.4,14.1c-2-14.8-12.4-20.9-17.4,8.4c-5.6-25.4-18.9-5.5-21,14.3c-2,19.7-2,165.6-2,165.6h396.8L792,100z"/>
		<path class="st5" d="M-0.4,104.9c0,0,5.2,19.9,6.8,15.3S13,93.5,22.4,132c0-5.3,13.3-14.6,17.4,18c2-12.9,8.7-10,13.8,12.8
			c3.8-13.3,11.5-18.2,15.1,9.4c7.1-16.2,14.5,0.7,17.4,16.3c4.3-19.9,14.8-6.3,16.3,12.1c8.2-17.9,13.8,6.3,15.3,13.8
			c7.1-26.4,16.8,5.3,17.1,12.9c7.4-20.9,11,12.3,11,12.3c7.4-13.8,12,0,17.4,15.3c6.1-17.4,14.5-5.3,15.3,7
			c5.1-12.6,13.8,7,13.8,14.5c4.6-18.4,14.5,14.6,14.5,14.6c6.1-14,15.1,16.3,15.1,16.3c5.1-16,15.8,13.3,15.8,13.3
			c9.2-14.5,12.8-4.8,16.1,12.4c7.9-17.4,13,6.6,13.8,11.2c6.1-16.8,12.8-4.4,16.8,8c4.8-16.2,13,16.2,13,16.2
			c3.1-15.8,14,5.3,15.6,15.5c7.7-17,13.8,5.1,16.6,17c5.6-20.9,14-7.1,16.3,10.9c3.6-16.5,12.8-5.6,15.6,14
			c2-14.6,12.5-20.8,17.6,8.3c5.6-25.2,19.1-5.4,21.2,14.1c2,19.6,1,164.9,1,164.9H0.6L-0.4,104.9z"/>
	</g>
</g>
<g id="Laag_4">
</g>
<g id="Laag_1">
</g>
<g id="Laag_8">
</g>
</svg>
